0
SECTION
2
HEADER
9
$INSUNITS
70
4
9
$ACADVER
1
AC1014
9
$HANDSEED
5
FFFF
0
ENDSEC
0
SECTION
2
TABLES
0
TABLE
2
VPORT
5
8
100
AcDbSymbolTable
0
ENDTAB
0
TABLE
2
LTYPE
5
5
100
AcDbSymbolTable
0
LTYPE
5
14
100
AcDbSymbolTableRecord
100
AcDbLinetypeTableRecord
2
BYBLOCK
70
0
0
LTYPE
5
15
100
AcDbSymbolTableRecord
100
AcDbLinetypeTableRecord
2
BYLAYER
70
0
0
ENDTAB
0
TABLE
2
LAYER
5
2
100
AcDbSymbolTable
70
2
0
LAYER
5
50
100
AcDbSymbolTableRecord
100
AcDbLayerTableRecord
2
0
70
0
6
CONTINUOUS
0
ENDTAB
0
TABLE
2
STYLE
5
3
100
AcDbSymbolTable
70
1
0
STYLE
5
11
100
AcDbSymbolTableRecord
100
AcDbTextStyleTableRecord
2
STANDARD
70
0
0
ENDTAB
0
TABLE
2
VIEW
5
6
100
AcDbSymbolTable
70
0
0
ENDTAB
0
TABLE
2
UCS
5
7
100
AcDbSymbolTable
70
0
0
ENDTAB
0
TABLE
2
APPID
5
9
100
AcDbSymbolTable
70
2
0
APPID
5
12
100
AcDbSymbolTableRecord
100
AcDbRegAppTableRecord
2
ACAD
70
0
0
ENDTAB
0
TABLE
2
DIMSTYLE
5
A
100
AcDbSymbolTable
70
1
0
ENDTAB
0
TABLE
2
BLOCK_RECORD
5
1
100
AcDbSymbolTable
70
1
0
BLOCK_RECORD
5
1F
100
AcDbSymbolTableRecord
100
AcDbBlockTableRecord
2
*MODEL_SPACE
0
BLOCK_RECORD
5
1B
100
AcDbSymbolTableRecord
100
AcDbBlockTableRecord
2
*PAPER_SPACE
0
ENDTAB
0
ENDSEC
0
SECTION
2
BLOCKS
0
BLOCK
5
20
100
AcDbEntity
100
AcDbBlockBegin
2
*MODEL_SPACE
0
ENDBLK
5
21
100
AcDbEntity
100
AcDbBlockEnd
0
BLOCK
5
1C
100
AcDbEntity
100
AcDbBlockBegin
2
*PAPER_SPACE
0
ENDBLK
5
1D
100
AcDbEntity
100
AcDbBlockEnd
0
ENDSEC
0
SECTION
2
ENTITIES
0
LINE
5
100
100
AcDbEntity
8
0
100
AcDbLine
10
304.00146602165199
20
-28.851613805155058
30
-5.3290705182007514e-14
11
303.72263101952541
21
-28.790956814930713
31
-5.3174695549551565e-14
0
LINE
5
101
100
AcDbEntity
8
0
100
AcDbLine
10
303.72263101952541
20
-28.790956814930713
30
-5.3174695549551565e-14
11
303.43800101881175
21
-28.770599824909532
31
-5.3251809429069596e-14
0
LINE
5
102
100
AcDbEntity
8
0
100
AcDbLine
10
303.43800101881175
20
-28.770599824909532
30
-5.3251809429069596e-14
11
20.438001018811853
21
-28.770609746580153
31
-5.3290724240248827e-14
0
LINE
5
103
100
AcDbEntity
8
0
100
AcDbLine
10
20.438001018811853
20
-28.770609746580153
30
-5.3290724240248827e-14
11
20.153371019525537
21
-28.790966756558966
31
-5.3329600934945431e-14
0
LINE
5
104
100
AcDbEntity
8
0
100
AcDbLine
10
20.153371019525537
20
-28.790966756558966
30
-5.3329600934945431e-14
11
19.874536021652105
21
-28.851623766334615
31
-5.5627160863713776e-14
0
LINE
5
105
100
AcDbEntity
8
0
100
AcDbLine
10
19.874536021652105
20
-28.851623766334615
30
-5.5627160863713776e-14
11
19.607171025148247
21
-28.951345775708141
31
-5.5701970813615276e-14
0
LINE
5
106
100
AcDbEntity
8
0
100
AcDbLine
10
19.607171025148247
20
-28.951345775708141
30
-5.5701970813615276e-14
11
19.356719029942802
21
-29.088102784488715
31
-5.5773528156999319e-14
0
LINE
5
107
100
AcDbEntity
8
0
100
AcDbLine
10
19.356719029942802
20
-29.088102784488715
30
-5.5773528156999319e-14
11
19.128280035938154
21
-29.259110792497541
31
-5.5837496085175964e-14
0
LINE
5
108
100
AcDbEntity
8
0
100
AcDbLine
10
19.128280035938154
20
-29.259110792497541
30
-5.5837496085175964e-14
11
18.92650204301227
21
-29.460888799571649
31
-5.811757325391298e-14
0
LINE
5
109
100
AcDbEntity
8
0
100
AcDbLine
10
18.92650204301227
20
-29.460888799571649
30
-5.811757325391298e-14
11
18.755494051021099
21
-29.689327805567007
31
-5.5947000504597e-14
0
LINE
5
110
100
AcDbEntity
8
0
100
AcDbLine
10
18.755494051021099
20
-29.689327805567007
30
-5.5947000504597e-14
11
18.618737059801667
21
-29.939779810361561
31
-5.8210814640746733e-14
0
LINE
5
111
100
AcDbEntity
8
0
100
AcDbLine
10
18.618737059801667
20
-29.939779810361561
30
-5.8210814640746733e-14
11
18.51901506917519
21
-30.207144813857703
31
-5.6022894656670985e-14
0
LINE
5
112
100
AcDbEntity
8
0
100
AcDbLine
10
18.51901506917519
20
-30.207144813857703
30
-5.6022894656670985e-14
11
18.458358078950845
21
-30.485979815984273
31
-5.8265024749371008e-14
0
LINE
5
113
100
AcDbEntity
8
0
100
AcDbLine
10
18.458358078950845
20
-30.485979815984273
30
-5.8265024749371008e-14
11
18.43800108892966
21
-30.770609816697959
31
-5.8275866771095863e-14
0
LINE
5
114
100
AcDbEntity
8
0
100
AcDbLine
10
305.43800108892958
20
-30.770599754791714
30
-5.8841820305133297e-14
11
305.41764407895073
21
-30.485969755505408
31
-5.7187327789920417e-14
0
LINE
5
115
100
AcDbEntity
8
0
100
AcDbLine
10
305.41764407895073
20
-30.485969755505408
30
-5.7187327789920417e-14
11
305.35698706917509
21
-30.207134757631977
31
-5.9418615860895585e-14
0
LINE
5
116
100
AcDbEntity
8
0
100
AcDbLine
10
305.35698706917509
20
-30.207134757631977
30
-5.9418615860895585e-14
11
305.25726505980163
21
-29.939769761128122
31
-5.4999407805844669e-14
0
LINE
5
117
100
AcDbEntity
8
0
100
AcDbLine
10
305.25726505980163
20
-29.939769761128122
30
-5.4999407805844669e-14
11
305.12050805102098
21
-29.68931776592267
31
-5.5034102275364205e-14
0
LINE
5
118
100
AcDbEntity
8
0
100
AcDbLine
10
305.12050805102098
20
-29.68931776592267
30
-5.5034102275364205e-14
11
304.94950004301222
21
-29.460878771918026
31
-5.7295748007168967e-14
0
LINE
5
119
100
AcDbEntity
8
0
100
AcDbLine
10
304.94950004301222
20
-29.460878771918026
30
-5.7295748007168967e-14
11
304.74772203593807
21
-29.259100778992138
31
-5.7347789711448272e-14
0
LINE
5
120
100
AcDbEntity
8
0
100
AcDbLine
10
304.74772203593807
20
-29.259100778992138
30
-5.7347789711448272e-14
11
304.5192830299427
21
-29.08809278700096
31
-5.518480637733969e-14
0
LINE
5
121
100
AcDbEntity
8
0
100
AcDbLine
10
304.5192830299427
20
-29.08809278700096
30
-5.518480637733969e-14
11
304.26883102514813
21
-28.951335795781532
31
-5.524985850768882e-14
0
LINE
5
122
100
AcDbEntity
8
0
100
AcDbLine
10
304.26883102514813
20
-28.951335795781532
30
-5.524985850768882e-14
11
304.00146602165199
21
-28.851613805155058
31
-5.3290705182007514e-14
0
CIRCLE
5
123
100
AcDbEntity
8
0
100
AcDbCircle
10
20.978001018811739
20
-49.090604789001929
30
-9.3258734068513149e-14
40
1.3500000000000001
210
-1.8347946286300246e-25
220
-1.915134717478395e-15
230
1
0
CIRCLE
5
124
100
AcDbEntity
8
0
100
AcDbCircle
10
20.978001018811739
20
-31.310604789001918
30
-5.9952043329758453e-14
40
1.3500000000000001
210
-1.8347946286300246e-25
220
-1.915134717478395e-15
230
1
0
CIRCLE
5
125
100
AcDbEntity
8
0
100
AcDbCircle
10
302.91800101881176
20
-49.090604789001915
30
-9.3258734068513149e-14
40
1.3500000000000001
210
-1.8347946286300246e-25
220
-1.915134717478395e-15
230
1
0
CIRCLE
5
126
100
AcDbEntity
8
0
100
AcDbCircle
10
302.91800101881176
20
-31.310604789001914
30
-5.9952043329758453e-14
40
1.3500000000000001
210
-1.8347946286300246e-25
220
-1.915134717478395e-15
230
1
0
LWPOLYLINE
5
127
100
AcDbEntity
8
0
100
AcDbPolyline
90
8
70
1
43
0.0
10
20.438002859462088
20
-28.77060840345727
10
303.43800182025859
20
-28.770608403457256
42
-0.41421356237309825
10
305.43800182025859
20
-30.77060840345727
10
305.43800182025859
20
-49.630604789001922
42
-0.41421356237309892
10
303.43800182025859
20
-51.630604789001936
10
20.438002859462081
20
-51.630604789001922
42
-0.41421356237308915
10
18.438002859462092
20
-49.630604789001929
10
18.438002859462092
20
-30.770608403457267
42
-0.41421356237309631
0
CIRCLE
5
128
100
AcDbEntity
8
0
100
AcDbCircle
10
20.978001018811739
20
-49.090604789001929
30
-9.3258734068513149e-14
40
1.3499999999999979
210
0
220
0
230
1
0
CIRCLE
5
129
100
AcDbEntity
8
0
100
AcDbCircle
10
20.978001018811739
20
-31.310604789001918
30
-5.9952043329758453e-14
40
1.3500000000000001
210
0
220
0
230
1
0
CIRCLE
5
130
100
AcDbEntity
8
0
100
AcDbCircle
10
302.91800101881176
20
-31.310604789001914
30
-5.9952043329758453e-14
40
1.3500000000000156
210
0
220
0
230
1
0
CIRCLE
5
131
100
AcDbEntity
8
0
100
AcDbCircle
10
302.91800101881176
20
-49.090604789001915
30
-9.3258734068513149e-14
40
1.3500000000000156
210
0
220
0
230
1
0
ENDSEC
0
SECTION
2
OBJECTS
0
DICTIONARY
5
C
100
AcDbDictionary
3
ACAD_GROUP
350
D
3
ACAD_MLINESTYLE
350
17
0
DICTIONARY
5
D
100
AcDbDictionary
0
DICTIONARY
5
1A
330
C
100
AcDbDictionary
0
DICTIONARY
5
17
100
AcDbDictionary
0
ENDSEC
0
EOF
