%TF.GenerationSoftware,KiCad,Pcbnew,7.0.6*%
%TF.CreationDate,2024-02-02T12:37:57-05:00*%
%TF.ProjectId,causeway_THT,63617573-6577-4617-995f-5448542e6b69,rev?*%
%TF.SameCoordinates,Original*%
%TF.FileFunction,Drillmap*%
%TF.FilePolarity,Positive*%
%FSLAX45Y45*%
G04 Gerber Fmt 4.5, Leading zero omitted, Abs format (unit mm)*
G04 Created by KiCad (PCBNEW 7.0.6) date 2024-02-02 12:37:57*
%MOMM*%
%LPD*%
G01*
G04 APERTURE LIST*
%ADD10C,0.100000*%
%ADD11C,0.200000*%
%ADD12C,0.040000*%
%ADD13C,0.060000*%
%ADD14C,0.076200*%
%ADD15C,0.080000*%
%ADD16C,0.109220*%
%ADD17C,0.110000*%
%ADD18C,0.150000*%
G04 APERTURE END LIST*
D10*
X30343800Y-15006000D02*
G75*
G03*
X30543800Y-14806000I0J200000D01*
G01*
X2043800Y-2906000D02*
G75*
G03*
X1843800Y-3106000I0J-200000D01*
G01*
X1843800Y-14806000D02*
X1843800Y-3106000D01*
X1843800Y-14806000D02*
G75*
G03*
X2043800Y-15006000I200000J0D01*
G01*
X30343800Y-15006000D02*
X2043800Y-15006000D01*
X30543800Y-3106000D02*
G75*
G03*
X30343800Y-2906000I-200000J0D01*
G01*
X30543800Y-3106000D02*
X30543800Y-14806000D01*
X2043800Y-2906000D02*
X30343800Y-2906000D01*
D11*
D12*
X2139000Y-6965000D02*
X2179000Y-7005000D01*
X2179000Y-6965000D02*
X2139000Y-7005000D01*
X2380000Y-3530000D02*
X2420000Y-3570000D01*
X2420000Y-3530000D02*
X2380000Y-3570000D01*
X2640000Y-3040000D02*
X2680000Y-3080000D01*
X2680000Y-3040000D02*
X2640000Y-3080000D01*
X2646800Y-4227000D02*
X2686800Y-4267000D01*
X2686800Y-4227000D02*
X2646800Y-4267000D01*
X2648800Y-4411000D02*
X2688800Y-4451000D01*
X2688800Y-4411000D02*
X2648800Y-4451000D01*
X2690000Y-4820000D02*
X2730000Y-4860000D01*
X2730000Y-4820000D02*
X2690000Y-4860000D01*
X2837630Y-4138630D02*
X2877630Y-4178630D01*
X2877630Y-4138630D02*
X2837630Y-4178630D01*
X2876630Y-3496578D02*
X2916630Y-3536578D01*
X2916630Y-3496578D02*
X2876630Y-3536578D01*
X2930000Y-4405000D02*
X2970000Y-4445000D01*
X2970000Y-4405000D02*
X2930000Y-4445000D01*
X2949080Y-3760000D02*
X2989080Y-3800000D01*
X2989080Y-3760000D02*
X2949080Y-3800000D01*
X3334000Y-3635000D02*
X3374000Y-3675000D01*
X3374000Y-3635000D02*
X3334000Y-3675000D01*
X3403800Y-4620000D02*
X3443800Y-4660000D01*
X3443800Y-4620000D02*
X3403800Y-4660000D01*
X3601800Y-4156000D02*
X3641800Y-4196000D01*
X3641800Y-4156000D02*
X3601800Y-4196000D01*
X4340000Y-4030000D02*
X4380000Y-4070000D01*
X4380000Y-4030000D02*
X4340000Y-4070000D01*
X4353800Y-4520000D02*
X4393800Y-4560000D01*
X4393800Y-4520000D02*
X4353800Y-4560000D01*
X4679000Y-6965000D02*
X4719000Y-7005000D01*
X4719000Y-6965000D02*
X4679000Y-7005000D01*
X6457000Y-6965000D02*
X6497000Y-7005000D01*
X6497000Y-6965000D02*
X6457000Y-7005000D01*
X8489000Y-6965000D02*
X8529000Y-7005000D01*
X8529000Y-6965000D02*
X8489000Y-7005000D01*
X10267000Y-6965000D02*
X10307000Y-7005000D01*
X10307000Y-6965000D02*
X10267000Y-7005000D01*
X12299000Y-6965000D02*
X12339000Y-7005000D01*
X12339000Y-6965000D02*
X12299000Y-7005000D01*
X13009000Y-3060000D02*
X13049000Y-3100000D01*
X13049000Y-3060000D02*
X13009000Y-3100000D01*
X13473800Y-4156000D02*
X13513800Y-4196000D01*
X13513800Y-4156000D02*
X13473800Y-4196000D01*
X13484000Y-4510000D02*
X13524000Y-4550000D01*
X13524000Y-4510000D02*
X13484000Y-4550000D01*
X13634000Y-3360000D02*
X13674000Y-3400000D01*
X13674000Y-3360000D02*
X13634000Y-3400000D01*
X14083592Y-4157550D02*
X14123592Y-4197550D01*
X14123592Y-4157550D02*
X14083592Y-4197550D01*
X14190550Y-4157550D02*
X14230550Y-4197550D01*
X14230550Y-4157550D02*
X14190550Y-4197550D01*
X14303050Y-4157550D02*
X14343050Y-4197550D01*
X14343050Y-4157550D02*
X14303050Y-4197550D01*
X14331000Y-6965000D02*
X14371000Y-7005000D01*
X14371000Y-6965000D02*
X14331000Y-7005000D01*
X14524130Y-4310670D02*
X14564130Y-4350670D01*
X14564130Y-4310670D02*
X14524130Y-4350670D01*
X15566986Y-4432466D02*
X15606986Y-4472466D01*
X15606986Y-4432466D02*
X15566986Y-4472466D01*
X15682770Y-4511230D02*
X15722770Y-4551230D01*
X15722770Y-4511230D02*
X15682770Y-4551230D01*
X15702431Y-4878431D02*
X15742431Y-4918431D01*
X15742431Y-4878431D02*
X15702431Y-4918431D01*
X15726350Y-4260000D02*
X15766350Y-4300000D01*
X15766350Y-4260000D02*
X15726350Y-4300000D01*
X15798800Y-3933550D02*
X15838800Y-3973550D01*
X15838800Y-3933550D02*
X15798800Y-3973550D01*
X15817000Y-3360000D02*
X15857000Y-3400000D01*
X15857000Y-3360000D02*
X15817000Y-3400000D01*
X15934000Y-4387550D02*
X15974000Y-4427550D01*
X15974000Y-4387550D02*
X15934000Y-4427550D01*
X16034000Y-3485000D02*
X16074000Y-3525000D01*
X16074000Y-3485000D02*
X16034000Y-3525000D01*
X16109000Y-6965000D02*
X16149000Y-7005000D01*
X16149000Y-6965000D02*
X16109000Y-7005000D01*
X16174000Y-5460000D02*
X16214000Y-5500000D01*
X16214000Y-5460000D02*
X16174000Y-5500000D01*
X16709000Y-3885000D02*
X16749000Y-3925000D01*
X16749000Y-3885000D02*
X16709000Y-3925000D01*
X16734000Y-3310000D02*
X16774000Y-3350000D01*
X16774000Y-3310000D02*
X16734000Y-3350000D01*
X16857550Y-3510000D02*
X16897550Y-3550000D01*
X16897550Y-3510000D02*
X16857550Y-3550000D01*
X16857599Y-3711130D02*
X16897599Y-3751130D01*
X16897599Y-3711130D02*
X16857599Y-3751130D01*
X16932770Y-3786230D02*
X16972770Y-3826230D01*
X16972770Y-3786230D02*
X16932770Y-3826230D01*
X17234000Y-3685000D02*
X17274000Y-3725000D01*
X17274000Y-3685000D02*
X17234000Y-3725000D01*
X17759000Y-4210000D02*
X17799000Y-4250000D01*
X17799000Y-4210000D02*
X17759000Y-4250000D01*
X17765902Y-3594159D02*
X17805902Y-3634159D01*
X17805902Y-3594159D02*
X17765902Y-3634159D01*
X17871257Y-3558804D02*
X17911257Y-3598804D01*
X17911257Y-3558804D02*
X17871257Y-3598804D01*
X17973065Y-3520635D02*
X18013065Y-3560635D01*
X18013065Y-3520635D02*
X17973065Y-3560635D01*
X18031801Y-3730459D02*
X18071801Y-3770459D01*
X18071801Y-3730459D02*
X18031801Y-3770459D01*
X18034000Y-4260000D02*
X18074000Y-4300000D01*
X18074000Y-4260000D02*
X18034000Y-4300000D01*
X18072570Y-3484770D02*
X18112570Y-3524770D01*
X18112570Y-3484770D02*
X18072570Y-3524770D01*
X18114106Y-3648153D02*
X18154106Y-3688153D01*
X18154106Y-3648153D02*
X18114106Y-3688153D01*
X18133140Y-4959904D02*
X18173140Y-4999904D01*
X18173140Y-4959904D02*
X18133140Y-4999904D01*
X18141000Y-6965000D02*
X18181000Y-7005000D01*
X18181000Y-6965000D02*
X18141000Y-7005000D01*
X18194566Y-5408813D02*
X18234566Y-5448813D01*
X18234566Y-5408813D02*
X18194566Y-5448813D01*
X18199485Y-3562774D02*
X18239485Y-3602774D01*
X18239485Y-3562774D02*
X18199485Y-3602774D01*
X18232935Y-4965466D02*
X18272935Y-5005466D01*
X18272935Y-4965466D02*
X18232935Y-5005466D01*
X18265241Y-5338137D02*
X18305241Y-5378137D01*
X18305241Y-5338137D02*
X18265241Y-5378137D01*
X18275030Y-3487230D02*
X18315030Y-3527230D01*
X18315030Y-3487230D02*
X18275030Y-3527230D01*
X18332699Y-4959370D02*
X18372699Y-4999370D01*
X18372699Y-4959370D02*
X18332699Y-4999370D01*
X18335917Y-5267462D02*
X18375917Y-5307462D01*
X18375917Y-5267462D02*
X18335917Y-5307462D01*
X18432649Y-4959370D02*
X18472649Y-4999370D01*
X18472649Y-4959370D02*
X18432649Y-4999370D01*
X18432649Y-5242450D02*
X18472649Y-5282450D01*
X18472649Y-5242450D02*
X18432649Y-5282450D01*
X18532600Y-4959370D02*
X18572600Y-4999370D01*
X18572600Y-4959370D02*
X18532600Y-4999370D01*
X18532600Y-5242450D02*
X18572600Y-5282450D01*
X18572600Y-5242450D02*
X18532600Y-5282450D01*
X18632550Y-4377450D02*
X18672550Y-4417450D01*
X18672550Y-4377450D02*
X18632550Y-4417450D01*
X18632550Y-4959370D02*
X18672550Y-4999370D01*
X18672550Y-4959370D02*
X18632550Y-4999370D01*
X18632550Y-5242450D02*
X18672550Y-5282450D01*
X18672550Y-5242450D02*
X18632550Y-5282450D01*
X19183855Y-5300050D02*
X19223855Y-5340050D01*
X19223855Y-5300050D02*
X19183855Y-5340050D01*
X19283795Y-5298795D02*
X19323795Y-5338795D01*
X19323795Y-5298795D02*
X19283795Y-5338795D01*
X19385000Y-5300050D02*
X19425000Y-5340050D01*
X19425000Y-5300050D02*
X19385000Y-5340050D01*
X19485000Y-5300050D02*
X19525000Y-5340050D01*
X19525000Y-5300050D02*
X19485000Y-5340050D01*
X19585000Y-5300050D02*
X19625000Y-5340050D01*
X19625000Y-5300050D02*
X19585000Y-5340050D01*
X19685000Y-5300050D02*
X19725000Y-5340050D01*
X19725000Y-5300050D02*
X19685000Y-5340050D01*
X19984000Y-13835000D02*
X20024000Y-13875000D01*
X20024000Y-13835000D02*
X19984000Y-13875000D01*
X19984000Y-14785000D02*
X20024000Y-14825000D01*
X20024000Y-14785000D02*
X19984000Y-14825000D01*
X20173000Y-6965000D02*
X20213000Y-7005000D01*
X20213000Y-6965000D02*
X20173000Y-7005000D01*
X21951000Y-6965000D02*
X21991000Y-7005000D01*
X21991000Y-6965000D02*
X21951000Y-7005000D01*
X23983000Y-6965000D02*
X24023000Y-7005000D01*
X24023000Y-6965000D02*
X23983000Y-7005000D01*
X25684000Y-13810000D02*
X25724000Y-13850000D01*
X25724000Y-13810000D02*
X25684000Y-13850000D01*
X25709000Y-14760000D02*
X25749000Y-14800000D01*
X25749000Y-14760000D02*
X25709000Y-14800000D01*
X25761000Y-6965000D02*
X25801000Y-7005000D01*
X25801000Y-6965000D02*
X25761000Y-7005000D01*
X27793000Y-6965000D02*
X27833000Y-7005000D01*
X27833000Y-6965000D02*
X27793000Y-7005000D01*
X27859000Y-13810000D02*
X27899000Y-13850000D01*
X27899000Y-13810000D02*
X27859000Y-13850000D01*
X27859000Y-14760000D02*
X27899000Y-14800000D01*
X27899000Y-14760000D02*
X27859000Y-14800000D01*
X30079000Y-6965000D02*
X30119000Y-7005000D01*
X30119000Y-6965000D02*
X30079000Y-7005000D01*
X2643800Y-3364000D02*
G75*
G03*
X2643800Y-3364000I-20000J0D01*
G01*
X2643800Y-3454000D02*
G75*
G03*
X2643800Y-3454000I-20000J0D01*
G01*
X2643800Y-3544000D02*
G75*
G03*
X2643800Y-3544000I-20000J0D01*
G01*
X2643800Y-3634000D02*
G75*
G03*
X2643800Y-3634000I-20000J0D01*
G01*
X2643800Y-3724000D02*
G75*
G03*
X2643800Y-3724000I-20000J0D01*
G01*
X2643800Y-3814000D02*
G75*
G03*
X2643800Y-3814000I-20000J0D01*
G01*
X2643800Y-3904000D02*
G75*
G03*
X2643800Y-3904000I-20000J0D01*
G01*
X2721800Y-3409000D02*
G75*
G03*
X2721800Y-3409000I-20000J0D01*
G01*
X2721800Y-3499000D02*
G75*
G03*
X2721800Y-3499000I-20000J0D01*
G01*
X2721800Y-3589000D02*
G75*
G03*
X2721800Y-3589000I-20000J0D01*
G01*
X2721800Y-3679000D02*
G75*
G03*
X2721800Y-3679000I-20000J0D01*
G01*
X2721800Y-3769000D02*
G75*
G03*
X2721800Y-3769000I-20000J0D01*
G01*
X2721800Y-3859000D02*
G75*
G03*
X2721800Y-3859000I-20000J0D01*
G01*
X2721800Y-3949000D02*
G75*
G03*
X2721800Y-3949000I-20000J0D01*
G01*
D13*
X2519800Y-3384000D02*
X2519800Y-3444000D01*
X2489800Y-3414000D02*
X2549800Y-3414000D01*
D11*
X2549800Y-3464000D02*
X2549800Y-3364000D01*
X2549800Y-3364000D02*
G75*
G03*
X2489800Y-3364000I-30000J0D01*
G01*
X2489800Y-3364000D02*
X2489800Y-3464000D01*
X2489800Y-3464000D02*
G75*
G03*
X2549800Y-3464000I30000J0D01*
G01*
D13*
X2519800Y-3864000D02*
X2519800Y-3924000D01*
X2489800Y-3894000D02*
X2549800Y-3894000D01*
D11*
X2549800Y-3944000D02*
X2549800Y-3844000D01*
X2549800Y-3844000D02*
G75*
G03*
X2489800Y-3844000I-30000J0D01*
G01*
X2489800Y-3844000D02*
X2489800Y-3944000D01*
X2489800Y-3944000D02*
G75*
G03*
X2549800Y-3944000I30000J0D01*
G01*
D13*
X2805800Y-3384000D02*
X2805800Y-3444000D01*
X2775800Y-3414000D02*
X2835800Y-3414000D01*
D11*
X2835800Y-3464000D02*
X2835800Y-3364000D01*
X2835800Y-3364000D02*
G75*
G03*
X2775800Y-3364000I-30000J0D01*
G01*
X2775800Y-3364000D02*
X2775800Y-3464000D01*
X2775800Y-3464000D02*
G75*
G03*
X2835800Y-3464000I30000J0D01*
G01*
D13*
X2805800Y-3864000D02*
X2805800Y-3924000D01*
X2775800Y-3894000D02*
X2835800Y-3894000D01*
D11*
X2835800Y-3944000D02*
X2835800Y-3844000D01*
X2835800Y-3844000D02*
G75*
G03*
X2775800Y-3844000I-30000J0D01*
G01*
X2775800Y-3844000D02*
X2775800Y-3944000D01*
X2775800Y-3944000D02*
G75*
G03*
X2835800Y-3944000I30000J0D01*
G01*
D14*
X28276741Y-3464941D02*
X28276741Y-3411059D01*
X28222859Y-3411059D01*
X28222859Y-3464941D01*
X28276741Y-3464941D01*
X28276741Y-3718941D02*
X28276741Y-3665059D01*
X28222859Y-3665059D01*
X28222859Y-3718941D01*
X28276741Y-3718941D01*
X28276741Y-3972941D02*
X28276741Y-3919059D01*
X28222859Y-3919059D01*
X28222859Y-3972941D01*
X28276741Y-3972941D01*
X28530741Y-3464941D02*
X28530741Y-3411059D01*
X28476859Y-3411059D01*
X28476859Y-3464941D01*
X28530741Y-3464941D01*
X28530741Y-3718941D02*
X28530741Y-3665059D01*
X28476859Y-3665059D01*
X28476859Y-3718941D01*
X28530741Y-3718941D01*
X28530741Y-3972941D02*
X28530741Y-3919059D01*
X28476859Y-3919059D01*
X28476859Y-3972941D01*
X28530741Y-3972941D01*
D15*
X3113800Y-3200000D02*
X3153800Y-3160000D01*
X3113800Y-3120000D01*
X3073800Y-3160000D01*
X3113800Y-3200000D01*
X3113800Y-3454000D02*
X3153800Y-3414000D01*
X3113800Y-3374000D01*
X3073800Y-3414000D01*
X3113800Y-3454000D01*
X3113800Y-3708000D02*
X3153800Y-3668000D01*
X3113800Y-3628000D01*
X3073800Y-3668000D01*
X3113800Y-3708000D01*
X3113800Y-3962000D02*
X3153800Y-3922000D01*
X3113800Y-3882000D01*
X3073800Y-3922000D01*
X3113800Y-3962000D01*
X3113800Y-4216000D02*
X3153800Y-4176000D01*
X3113800Y-4136000D01*
X3073800Y-4176000D01*
X3113800Y-4216000D01*
X3113800Y-4470000D02*
X3153800Y-4430000D01*
X3113800Y-4390000D01*
X3073800Y-4430000D01*
X3113800Y-4470000D01*
X3113800Y-4724000D02*
X3153800Y-4684000D01*
X3113800Y-4644000D01*
X3073800Y-4684000D01*
X3113800Y-4724000D01*
X3113800Y-4978000D02*
X3153800Y-4938000D01*
X3113800Y-4898000D01*
X3073800Y-4938000D01*
X3113800Y-4978000D01*
X3875800Y-3200000D02*
X3915800Y-3160000D01*
X3875800Y-3120000D01*
X3835800Y-3160000D01*
X3875800Y-3200000D01*
X3875800Y-3454000D02*
X3915800Y-3414000D01*
X3875800Y-3374000D01*
X3835800Y-3414000D01*
X3875800Y-3454000D01*
X3875800Y-3708000D02*
X3915800Y-3668000D01*
X3875800Y-3628000D01*
X3835800Y-3668000D01*
X3875800Y-3708000D01*
X3875800Y-3962000D02*
X3915800Y-3922000D01*
X3875800Y-3882000D01*
X3835800Y-3922000D01*
X3875800Y-3962000D01*
X3875800Y-4216000D02*
X3915800Y-4176000D01*
X3875800Y-4136000D01*
X3835800Y-4176000D01*
X3875800Y-4216000D01*
X3875800Y-4470000D02*
X3915800Y-4430000D01*
X3875800Y-4390000D01*
X3835800Y-4430000D01*
X3875800Y-4470000D01*
X3875800Y-4724000D02*
X3915800Y-4684000D01*
X3875800Y-4644000D01*
X3835800Y-4684000D01*
X3875800Y-4724000D01*
X3875800Y-4978000D02*
X3915800Y-4938000D01*
X3875800Y-4898000D01*
X3835800Y-4938000D01*
X3875800Y-4978000D01*
X4137800Y-4978000D02*
X4177800Y-4938000D01*
X4137800Y-4898000D01*
X4097800Y-4938000D01*
X4137800Y-4978000D01*
X4383800Y-3204000D02*
X4423800Y-3164000D01*
X4383800Y-3124000D01*
X4343800Y-3164000D01*
X4383800Y-3204000D01*
X4383800Y-3454000D02*
X4423800Y-3414000D01*
X4383800Y-3374000D01*
X4343800Y-3414000D01*
X4383800Y-3454000D01*
X4637800Y-4978000D02*
X4677800Y-4938000D01*
X4637800Y-4898000D01*
X4597800Y-4938000D01*
X4637800Y-4978000D01*
X4891800Y-3200000D02*
X4931800Y-3160000D01*
X4891800Y-3120000D01*
X4851800Y-3160000D01*
X4891800Y-3200000D01*
X4891800Y-3962000D02*
X4931800Y-3922000D01*
X4891800Y-3882000D01*
X4851800Y-3922000D01*
X4891800Y-3962000D01*
X5145800Y-3454000D02*
X5185800Y-3414000D01*
X5145800Y-3374000D01*
X5105800Y-3414000D01*
X5145800Y-3454000D01*
X5145800Y-4216000D02*
X5185800Y-4176000D01*
X5145800Y-4136000D01*
X5105800Y-4176000D01*
X5145800Y-4216000D01*
X5399800Y-3708000D02*
X5439800Y-3668000D01*
X5399800Y-3628000D01*
X5359800Y-3668000D01*
X5399800Y-3708000D01*
X5399800Y-4470000D02*
X5439800Y-4430000D01*
X5399800Y-4390000D01*
X5359800Y-4430000D01*
X5399800Y-4470000D01*
X5653800Y-3962000D02*
X5693800Y-3922000D01*
X5653800Y-3882000D01*
X5613800Y-3922000D01*
X5653800Y-3962000D01*
X5653800Y-4724000D02*
X5693800Y-4684000D01*
X5653800Y-4644000D01*
X5613800Y-4684000D01*
X5653800Y-4724000D01*
X5907800Y-4216000D02*
X5947800Y-4176000D01*
X5907800Y-4136000D01*
X5867800Y-4176000D01*
X5907800Y-4216000D01*
X5907800Y-4978000D02*
X5947800Y-4938000D01*
X5907800Y-4898000D01*
X5867800Y-4938000D01*
X5907800Y-4978000D01*
X6161800Y-3200000D02*
X6201800Y-3160000D01*
X6161800Y-3120000D01*
X6121800Y-3160000D01*
X6161800Y-3200000D01*
X6161800Y-3962000D02*
X6201800Y-3922000D01*
X6161800Y-3882000D01*
X6121800Y-3922000D01*
X6161800Y-3962000D01*
X6415800Y-3454000D02*
X6455800Y-3414000D01*
X6415800Y-3374000D01*
X6375800Y-3414000D01*
X6415800Y-3454000D01*
X6415800Y-4216000D02*
X6455800Y-4176000D01*
X6415800Y-4136000D01*
X6375800Y-4176000D01*
X6415800Y-4216000D01*
X6669800Y-3708000D02*
X6709800Y-3668000D01*
X6669800Y-3628000D01*
X6629800Y-3668000D01*
X6669800Y-3708000D01*
X6669800Y-4470000D02*
X6709800Y-4430000D01*
X6669800Y-4390000D01*
X6629800Y-4430000D01*
X6669800Y-4470000D01*
X6923800Y-3962000D02*
X6963800Y-3922000D01*
X6923800Y-3882000D01*
X6883800Y-3922000D01*
X6923800Y-3962000D01*
X6923800Y-4724000D02*
X6963800Y-4684000D01*
X6923800Y-4644000D01*
X6883800Y-4684000D01*
X6923800Y-4724000D01*
X7177800Y-4216000D02*
X7217800Y-4176000D01*
X7177800Y-4136000D01*
X7137800Y-4176000D01*
X7177800Y-4216000D01*
X7177800Y-4978000D02*
X7217800Y-4938000D01*
X7177800Y-4898000D01*
X7137800Y-4938000D01*
X7177800Y-4978000D01*
X7431800Y-3200000D02*
X7471800Y-3160000D01*
X7431800Y-3120000D01*
X7391800Y-3160000D01*
X7431800Y-3200000D01*
X7431800Y-3962000D02*
X7471800Y-3922000D01*
X7431800Y-3882000D01*
X7391800Y-3922000D01*
X7431800Y-3962000D01*
X7685800Y-3454000D02*
X7725800Y-3414000D01*
X7685800Y-3374000D01*
X7645800Y-3414000D01*
X7685800Y-3454000D01*
X7685800Y-4216000D02*
X7725800Y-4176000D01*
X7685800Y-4136000D01*
X7645800Y-4176000D01*
X7685800Y-4216000D01*
X7939800Y-3708000D02*
X7979800Y-3668000D01*
X7939800Y-3628000D01*
X7899800Y-3668000D01*
X7939800Y-3708000D01*
X7939800Y-4470000D02*
X7979800Y-4430000D01*
X7939800Y-4390000D01*
X7899800Y-4430000D01*
X7939800Y-4470000D01*
X8193800Y-3962000D02*
X8233800Y-3922000D01*
X8193800Y-3882000D01*
X8153800Y-3922000D01*
X8193800Y-3962000D01*
X8193800Y-4724000D02*
X8233800Y-4684000D01*
X8193800Y-4644000D01*
X8153800Y-4684000D01*
X8193800Y-4724000D01*
X8447800Y-4216000D02*
X8487800Y-4176000D01*
X8447800Y-4136000D01*
X8407800Y-4176000D01*
X8447800Y-4216000D01*
X8447800Y-4978000D02*
X8487800Y-4938000D01*
X8447800Y-4898000D01*
X8407800Y-4938000D01*
X8447800Y-4978000D01*
X8701800Y-3200000D02*
X8741800Y-3160000D01*
X8701800Y-3120000D01*
X8661800Y-3160000D01*
X8701800Y-3200000D01*
X8701800Y-3962000D02*
X8741800Y-3922000D01*
X8701800Y-3882000D01*
X8661800Y-3922000D01*
X8701800Y-3962000D01*
X8955800Y-3454000D02*
X8995800Y-3414000D01*
X8955800Y-3374000D01*
X8915800Y-3414000D01*
X8955800Y-3454000D01*
X8955800Y-4216000D02*
X8995800Y-4176000D01*
X8955800Y-4136000D01*
X8915800Y-4176000D01*
X8955800Y-4216000D01*
X9209800Y-3708000D02*
X9249800Y-3668000D01*
X9209800Y-3628000D01*
X9169800Y-3668000D01*
X9209800Y-3708000D01*
X9209800Y-4470000D02*
X9249800Y-4430000D01*
X9209800Y-4390000D01*
X9169800Y-4430000D01*
X9209800Y-4470000D01*
X9463800Y-3962000D02*
X9503800Y-3922000D01*
X9463800Y-3882000D01*
X9423800Y-3922000D01*
X9463800Y-3962000D01*
X9463800Y-4724000D02*
X9503800Y-4684000D01*
X9463800Y-4644000D01*
X9423800Y-4684000D01*
X9463800Y-4724000D01*
X9717800Y-4216000D02*
X9757800Y-4176000D01*
X9717800Y-4136000D01*
X9677800Y-4176000D01*
X9717800Y-4216000D01*
X9717800Y-4978000D02*
X9757800Y-4938000D01*
X9717800Y-4898000D01*
X9677800Y-4938000D01*
X9717800Y-4978000D01*
X9971800Y-3200000D02*
X10011800Y-3160000D01*
X9971800Y-3120000D01*
X9931800Y-3160000D01*
X9971800Y-3200000D01*
X9971800Y-3962000D02*
X10011800Y-3922000D01*
X9971800Y-3882000D01*
X9931800Y-3922000D01*
X9971800Y-3962000D01*
X10225800Y-3454000D02*
X10265800Y-3414000D01*
X10225800Y-3374000D01*
X10185800Y-3414000D01*
X10225800Y-3454000D01*
X10225800Y-4216000D02*
X10265800Y-4176000D01*
X10225800Y-4136000D01*
X10185800Y-4176000D01*
X10225800Y-4216000D01*
X10479800Y-3708000D02*
X10519800Y-3668000D01*
X10479800Y-3628000D01*
X10439800Y-3668000D01*
X10479800Y-3708000D01*
X10479800Y-4470000D02*
X10519800Y-4430000D01*
X10479800Y-4390000D01*
X10439800Y-4430000D01*
X10479800Y-4470000D01*
X10733800Y-3962000D02*
X10773800Y-3922000D01*
X10733800Y-3882000D01*
X10693800Y-3922000D01*
X10733800Y-3962000D01*
X10733800Y-4724000D02*
X10773800Y-4684000D01*
X10733800Y-4644000D01*
X10693800Y-4684000D01*
X10733800Y-4724000D01*
X10987800Y-4216000D02*
X11027800Y-4176000D01*
X10987800Y-4136000D01*
X10947800Y-4176000D01*
X10987800Y-4216000D01*
X10987800Y-4978000D02*
X11027800Y-4938000D01*
X10987800Y-4898000D01*
X10947800Y-4938000D01*
X10987800Y-4978000D01*
X11241800Y-3200000D02*
X11281800Y-3160000D01*
X11241800Y-3120000D01*
X11201800Y-3160000D01*
X11241800Y-3200000D01*
X11241800Y-3962000D02*
X11281800Y-3922000D01*
X11241800Y-3882000D01*
X11201800Y-3922000D01*
X11241800Y-3962000D01*
X11495800Y-3454000D02*
X11535800Y-3414000D01*
X11495800Y-3374000D01*
X11455800Y-3414000D01*
X11495800Y-3454000D01*
X11495800Y-4216000D02*
X11535800Y-4176000D01*
X11495800Y-4136000D01*
X11455800Y-4176000D01*
X11495800Y-4216000D01*
X11749800Y-3708000D02*
X11789800Y-3668000D01*
X11749800Y-3628000D01*
X11709800Y-3668000D01*
X11749800Y-3708000D01*
X11749800Y-4470000D02*
X11789800Y-4430000D01*
X11749800Y-4390000D01*
X11709800Y-4430000D01*
X11749800Y-4470000D01*
X12003800Y-3962000D02*
X12043800Y-3922000D01*
X12003800Y-3882000D01*
X11963800Y-3922000D01*
X12003800Y-3962000D01*
X12003800Y-4724000D02*
X12043800Y-4684000D01*
X12003800Y-4644000D01*
X11963800Y-4684000D01*
X12003800Y-4724000D01*
X12257800Y-4216000D02*
X12297800Y-4176000D01*
X12257800Y-4136000D01*
X12217800Y-4176000D01*
X12257800Y-4216000D01*
X12257800Y-4978000D02*
X12297800Y-4938000D01*
X12257800Y-4898000D01*
X12217800Y-4938000D01*
X12257800Y-4978000D01*
X12511800Y-3454000D02*
X12551800Y-3414000D01*
X12511800Y-3374000D01*
X12471800Y-3414000D01*
X12511800Y-3454000D01*
X12511800Y-4216000D02*
X12551800Y-4176000D01*
X12511800Y-4136000D01*
X12471800Y-4176000D01*
X12511800Y-4216000D01*
X12765800Y-3708000D02*
X12805800Y-3668000D01*
X12765800Y-3628000D01*
X12725800Y-3668000D01*
X12765800Y-3708000D01*
X12765800Y-4470000D02*
X12805800Y-4430000D01*
X12765800Y-4390000D01*
X12725800Y-4430000D01*
X12765800Y-4470000D01*
X13019800Y-3962000D02*
X13059800Y-3922000D01*
X13019800Y-3882000D01*
X12979800Y-3922000D01*
X13019800Y-3962000D01*
X13019800Y-4724000D02*
X13059800Y-4684000D01*
X13019800Y-4644000D01*
X12979800Y-4684000D01*
X13019800Y-4724000D01*
X13273800Y-4216000D02*
X13313800Y-4176000D01*
X13273800Y-4136000D01*
X13233800Y-4176000D01*
X13273800Y-4216000D01*
X13273800Y-4978000D02*
X13313800Y-4938000D01*
X13273800Y-4898000D01*
X13233800Y-4938000D01*
X13273800Y-4978000D01*
X13354000Y-3070000D02*
X13394000Y-3030000D01*
X13354000Y-2990000D01*
X13314000Y-3030000D01*
X13354000Y-3070000D01*
X13354000Y-3320000D02*
X13394000Y-3280000D01*
X13354000Y-3240000D01*
X13314000Y-3280000D01*
X13354000Y-3320000D01*
X13775000Y-3196000D02*
X13815000Y-3156000D01*
X13775000Y-3116000D01*
X13735000Y-3156000D01*
X13775000Y-3196000D01*
X13775000Y-4720000D02*
X13815000Y-4680000D01*
X13775000Y-4640000D01*
X13735000Y-4680000D01*
X13775000Y-4720000D01*
X14029000Y-3196000D02*
X14069000Y-3156000D01*
X14029000Y-3116000D01*
X13989000Y-3156000D01*
X14029000Y-3196000D01*
X14029000Y-4720000D02*
X14069000Y-4680000D01*
X14029000Y-4640000D01*
X13989000Y-4680000D01*
X14029000Y-4720000D01*
X14283000Y-3196000D02*
X14323000Y-3156000D01*
X14283000Y-3116000D01*
X14243000Y-3156000D01*
X14283000Y-3196000D01*
X14283000Y-4720000D02*
X14323000Y-4680000D01*
X14283000Y-4640000D01*
X14243000Y-4680000D01*
X14283000Y-4720000D01*
X14537000Y-3196000D02*
X14577000Y-3156000D01*
X14537000Y-3116000D01*
X14497000Y-3156000D01*
X14537000Y-3196000D01*
X14537000Y-4720000D02*
X14577000Y-4680000D01*
X14537000Y-4640000D01*
X14497000Y-4680000D01*
X14537000Y-4720000D01*
X14791000Y-3196000D02*
X14831000Y-3156000D01*
X14791000Y-3116000D01*
X14751000Y-3156000D01*
X14791000Y-3196000D01*
X14791000Y-4720000D02*
X14831000Y-4680000D01*
X14791000Y-4640000D01*
X14751000Y-4680000D01*
X14791000Y-4720000D01*
X15045000Y-3196000D02*
X15085000Y-3156000D01*
X15045000Y-3116000D01*
X15005000Y-3156000D01*
X15045000Y-3196000D01*
X15045000Y-4720000D02*
X15085000Y-4680000D01*
X15045000Y-4640000D01*
X15005000Y-4680000D01*
X15045000Y-4720000D01*
X15299000Y-3196000D02*
X15339000Y-3156000D01*
X15299000Y-3116000D01*
X15259000Y-3156000D01*
X15299000Y-3196000D01*
X15299000Y-4720000D02*
X15339000Y-4680000D01*
X15299000Y-4640000D01*
X15259000Y-4680000D01*
X15299000Y-4720000D01*
X15463800Y-4996000D02*
X15503800Y-4956000D01*
X15463800Y-4916000D01*
X15423800Y-4956000D01*
X15463800Y-4996000D01*
X15463800Y-5246000D02*
X15503800Y-5206000D01*
X15463800Y-5166000D01*
X15423800Y-5206000D01*
X15463800Y-5246000D01*
X15553000Y-3196000D02*
X15593000Y-3156000D01*
X15553000Y-3116000D01*
X15513000Y-3156000D01*
X15553000Y-3196000D01*
X15553000Y-4720000D02*
X15593000Y-4680000D01*
X15553000Y-4640000D01*
X15513000Y-4680000D01*
X15553000Y-4720000D01*
X15807000Y-3196000D02*
X15847000Y-3156000D01*
X15807000Y-3116000D01*
X15767000Y-3156000D01*
X15807000Y-3196000D01*
X15807000Y-4720000D02*
X15847000Y-4680000D01*
X15807000Y-4640000D01*
X15767000Y-4680000D01*
X15807000Y-4720000D01*
X15943800Y-5106000D02*
X15983800Y-5066000D01*
X15943800Y-5026000D01*
X15903800Y-5066000D01*
X15943800Y-5106000D01*
X16061000Y-3196000D02*
X16101000Y-3156000D01*
X16061000Y-3116000D01*
X16021000Y-3156000D01*
X16061000Y-3196000D01*
X16061000Y-4720000D02*
X16101000Y-4680000D01*
X16061000Y-4640000D01*
X16021000Y-4680000D01*
X16061000Y-4720000D01*
X16315000Y-3196000D02*
X16355000Y-3156000D01*
X16315000Y-3116000D01*
X16275000Y-3156000D01*
X16315000Y-3196000D01*
X16315000Y-4720000D02*
X16355000Y-4680000D01*
X16315000Y-4640000D01*
X16275000Y-4680000D01*
X16315000Y-4720000D01*
X16431800Y-5106000D02*
X16471800Y-5066000D01*
X16431800Y-5026000D01*
X16391800Y-5066000D01*
X16431800Y-5106000D01*
X16569000Y-3196000D02*
X16609000Y-3156000D01*
X16569000Y-3116000D01*
X16529000Y-3156000D01*
X16569000Y-3196000D01*
X16569000Y-4720000D02*
X16609000Y-4680000D01*
X16569000Y-4640000D01*
X16529000Y-4680000D01*
X16569000Y-4720000D01*
X16823000Y-3196000D02*
X16863000Y-3156000D01*
X16823000Y-3116000D01*
X16783000Y-3156000D01*
X16823000Y-3196000D01*
X16823000Y-4720000D02*
X16863000Y-4680000D01*
X16823000Y-4640000D01*
X16783000Y-4680000D01*
X16823000Y-4720000D01*
X16918800Y-4996000D02*
X16958800Y-4956000D01*
X16918800Y-4916000D01*
X16878800Y-4956000D01*
X16918800Y-4996000D01*
X16918800Y-5246000D02*
X16958800Y-5206000D01*
X16918800Y-5166000D01*
X16878800Y-5206000D01*
X16918800Y-5246000D01*
X17077000Y-3196000D02*
X17117000Y-3156000D01*
X17077000Y-3116000D01*
X17037000Y-3156000D01*
X17077000Y-3196000D01*
X17077000Y-4720000D02*
X17117000Y-4680000D01*
X17077000Y-4640000D01*
X17037000Y-4680000D01*
X17077000Y-4720000D01*
X17331000Y-3196000D02*
X17371000Y-3156000D01*
X17331000Y-3116000D01*
X17291000Y-3156000D01*
X17331000Y-3196000D01*
X17331000Y-4720000D02*
X17371000Y-4680000D01*
X17331000Y-4640000D01*
X17291000Y-4680000D01*
X17331000Y-4720000D01*
X17585000Y-3196000D02*
X17625000Y-3156000D01*
X17585000Y-3116000D01*
X17545000Y-3156000D01*
X17585000Y-3196000D01*
X17585000Y-4720000D02*
X17625000Y-4680000D01*
X17585000Y-4640000D01*
X17545000Y-4680000D01*
X17585000Y-4720000D01*
X17839000Y-3196000D02*
X17879000Y-3156000D01*
X17839000Y-3116000D01*
X17799000Y-3156000D01*
X17839000Y-3196000D01*
X17839000Y-4720000D02*
X17879000Y-4680000D01*
X17839000Y-4640000D01*
X17799000Y-4680000D01*
X17839000Y-4720000D01*
X18093000Y-3196000D02*
X18133000Y-3156000D01*
X18093000Y-3116000D01*
X18053000Y-3156000D01*
X18093000Y-3196000D01*
X18093000Y-4720000D02*
X18133000Y-4680000D01*
X18093000Y-4640000D01*
X18053000Y-4680000D01*
X18093000Y-4720000D01*
X18347000Y-3196000D02*
X18387000Y-3156000D01*
X18347000Y-3116000D01*
X18307000Y-3156000D01*
X18347000Y-3196000D01*
X18347000Y-4720000D02*
X18387000Y-4680000D01*
X18347000Y-4640000D01*
X18307000Y-4680000D01*
X18347000Y-4720000D01*
X18601000Y-3196000D02*
X18641000Y-3156000D01*
X18601000Y-3116000D01*
X18561000Y-3156000D01*
X18601000Y-3196000D01*
X18601000Y-4720000D02*
X18641000Y-4680000D01*
X18601000Y-4640000D01*
X18561000Y-4680000D01*
X18601000Y-4720000D01*
X19115800Y-4216000D02*
X19155800Y-4176000D01*
X19115800Y-4136000D01*
X19075800Y-4176000D01*
X19115800Y-4216000D01*
X19115800Y-4978000D02*
X19155800Y-4938000D01*
X19115800Y-4898000D01*
X19075800Y-4938000D01*
X19115800Y-4978000D01*
X19369800Y-3962000D02*
X19409800Y-3922000D01*
X19369800Y-3882000D01*
X19329800Y-3922000D01*
X19369800Y-3962000D01*
X19369800Y-4724000D02*
X19409800Y-4684000D01*
X19369800Y-4644000D01*
X19329800Y-4684000D01*
X19369800Y-4724000D01*
X19623800Y-3708000D02*
X19663800Y-3668000D01*
X19623800Y-3628000D01*
X19583800Y-3668000D01*
X19623800Y-3708000D01*
X19623800Y-4470000D02*
X19663800Y-4430000D01*
X19623800Y-4390000D01*
X19583800Y-4430000D01*
X19623800Y-4470000D01*
X19877800Y-3454000D02*
X19917800Y-3414000D01*
X19877800Y-3374000D01*
X19837800Y-3414000D01*
X19877800Y-3454000D01*
X19877800Y-4216000D02*
X19917800Y-4176000D01*
X19877800Y-4136000D01*
X19837800Y-4176000D01*
X19877800Y-4216000D01*
X20131800Y-4216000D02*
X20171800Y-4176000D01*
X20131800Y-4136000D01*
X20091800Y-4176000D01*
X20131800Y-4216000D01*
X20131800Y-4978000D02*
X20171800Y-4938000D01*
X20131800Y-4898000D01*
X20091800Y-4938000D01*
X20131800Y-4978000D01*
X20385800Y-3962000D02*
X20425800Y-3922000D01*
X20385800Y-3882000D01*
X20345800Y-3922000D01*
X20385800Y-3962000D01*
X20385800Y-4724000D02*
X20425800Y-4684000D01*
X20385800Y-4644000D01*
X20345800Y-4684000D01*
X20385800Y-4724000D01*
X20639800Y-3708000D02*
X20679800Y-3668000D01*
X20639800Y-3628000D01*
X20599800Y-3668000D01*
X20639800Y-3708000D01*
X20639800Y-4470000D02*
X20679800Y-4430000D01*
X20639800Y-4390000D01*
X20599800Y-4430000D01*
X20639800Y-4470000D01*
X20893800Y-3454000D02*
X20933800Y-3414000D01*
X20893800Y-3374000D01*
X20853800Y-3414000D01*
X20893800Y-3454000D01*
X20893800Y-4216000D02*
X20933800Y-4176000D01*
X20893800Y-4136000D01*
X20853800Y-4176000D01*
X20893800Y-4216000D01*
X21147800Y-3200000D02*
X21187800Y-3160000D01*
X21147800Y-3120000D01*
X21107800Y-3160000D01*
X21147800Y-3200000D01*
X21147800Y-3962000D02*
X21187800Y-3922000D01*
X21147800Y-3882000D01*
X21107800Y-3922000D01*
X21147800Y-3962000D01*
X21401800Y-4216000D02*
X21441800Y-4176000D01*
X21401800Y-4136000D01*
X21361800Y-4176000D01*
X21401800Y-4216000D01*
X21401800Y-4978000D02*
X21441800Y-4938000D01*
X21401800Y-4898000D01*
X21361800Y-4938000D01*
X21401800Y-4978000D01*
X21655800Y-3962000D02*
X21695800Y-3922000D01*
X21655800Y-3882000D01*
X21615800Y-3922000D01*
X21655800Y-3962000D01*
X21655800Y-4724000D02*
X21695800Y-4684000D01*
X21655800Y-4644000D01*
X21615800Y-4684000D01*
X21655800Y-4724000D01*
X21909800Y-3708000D02*
X21949800Y-3668000D01*
X21909800Y-3628000D01*
X21869800Y-3668000D01*
X21909800Y-3708000D01*
X21909800Y-4470000D02*
X21949800Y-4430000D01*
X21909800Y-4390000D01*
X21869800Y-4430000D01*
X21909800Y-4470000D01*
X22163800Y-3454000D02*
X22203800Y-3414000D01*
X22163800Y-3374000D01*
X22123800Y-3414000D01*
X22163800Y-3454000D01*
X22163800Y-4216000D02*
X22203800Y-4176000D01*
X22163800Y-4136000D01*
X22123800Y-4176000D01*
X22163800Y-4216000D01*
X22417800Y-3200000D02*
X22457800Y-3160000D01*
X22417800Y-3120000D01*
X22377800Y-3160000D01*
X22417800Y-3200000D01*
X22417800Y-3962000D02*
X22457800Y-3922000D01*
X22417800Y-3882000D01*
X22377800Y-3922000D01*
X22417800Y-3962000D01*
X22671800Y-4216000D02*
X22711800Y-4176000D01*
X22671800Y-4136000D01*
X22631800Y-4176000D01*
X22671800Y-4216000D01*
X22671800Y-4978000D02*
X22711800Y-4938000D01*
X22671800Y-4898000D01*
X22631800Y-4938000D01*
X22671800Y-4978000D01*
X22925800Y-3962000D02*
X22965800Y-3922000D01*
X22925800Y-3882000D01*
X22885800Y-3922000D01*
X22925800Y-3962000D01*
X22925800Y-4724000D02*
X22965800Y-4684000D01*
X22925800Y-4644000D01*
X22885800Y-4684000D01*
X22925800Y-4724000D01*
X23179800Y-3708000D02*
X23219800Y-3668000D01*
X23179800Y-3628000D01*
X23139800Y-3668000D01*
X23179800Y-3708000D01*
X23179800Y-4470000D02*
X23219800Y-4430000D01*
X23179800Y-4390000D01*
X23139800Y-4430000D01*
X23179800Y-4470000D01*
X23433800Y-3454000D02*
X23473800Y-3414000D01*
X23433800Y-3374000D01*
X23393800Y-3414000D01*
X23433800Y-3454000D01*
X23433800Y-4216000D02*
X23473800Y-4176000D01*
X23433800Y-4136000D01*
X23393800Y-4176000D01*
X23433800Y-4216000D01*
X23687800Y-3200000D02*
X23727800Y-3160000D01*
X23687800Y-3120000D01*
X23647800Y-3160000D01*
X23687800Y-3200000D01*
X23687800Y-3962000D02*
X23727800Y-3922000D01*
X23687800Y-3882000D01*
X23647800Y-3922000D01*
X23687800Y-3962000D01*
X23941800Y-4216000D02*
X23981800Y-4176000D01*
X23941800Y-4136000D01*
X23901800Y-4176000D01*
X23941800Y-4216000D01*
X23941800Y-4978000D02*
X23981800Y-4938000D01*
X23941800Y-4898000D01*
X23901800Y-4938000D01*
X23941800Y-4978000D01*
X24195800Y-3962000D02*
X24235800Y-3922000D01*
X24195800Y-3882000D01*
X24155800Y-3922000D01*
X24195800Y-3962000D01*
X24195800Y-4724000D02*
X24235800Y-4684000D01*
X24195800Y-4644000D01*
X24155800Y-4684000D01*
X24195800Y-4724000D01*
X24449800Y-3708000D02*
X24489800Y-3668000D01*
X24449800Y-3628000D01*
X24409800Y-3668000D01*
X24449800Y-3708000D01*
X24449800Y-4470000D02*
X24489800Y-4430000D01*
X24449800Y-4390000D01*
X24409800Y-4430000D01*
X24449800Y-4470000D01*
X24703800Y-3454000D02*
X24743800Y-3414000D01*
X24703800Y-3374000D01*
X24663800Y-3414000D01*
X24703800Y-3454000D01*
X24703800Y-4216000D02*
X24743800Y-4176000D01*
X24703800Y-4136000D01*
X24663800Y-4176000D01*
X24703800Y-4216000D01*
X24957800Y-3200000D02*
X24997800Y-3160000D01*
X24957800Y-3120000D01*
X24917800Y-3160000D01*
X24957800Y-3200000D01*
X24957800Y-3962000D02*
X24997800Y-3922000D01*
X24957800Y-3882000D01*
X24917800Y-3922000D01*
X24957800Y-3962000D01*
X25211800Y-4216000D02*
X25251800Y-4176000D01*
X25211800Y-4136000D01*
X25171800Y-4176000D01*
X25211800Y-4216000D01*
X25211800Y-4978000D02*
X25251800Y-4938000D01*
X25211800Y-4898000D01*
X25171800Y-4938000D01*
X25211800Y-4978000D01*
X25465800Y-3962000D02*
X25505800Y-3922000D01*
X25465800Y-3882000D01*
X25425800Y-3922000D01*
X25465800Y-3962000D01*
X25465800Y-4724000D02*
X25505800Y-4684000D01*
X25465800Y-4644000D01*
X25425800Y-4684000D01*
X25465800Y-4724000D01*
X25719800Y-3708000D02*
X25759800Y-3668000D01*
X25719800Y-3628000D01*
X25679800Y-3668000D01*
X25719800Y-3708000D01*
X25719800Y-4470000D02*
X25759800Y-4430000D01*
X25719800Y-4390000D01*
X25679800Y-4430000D01*
X25719800Y-4470000D01*
X25973800Y-3454000D02*
X26013800Y-3414000D01*
X25973800Y-3374000D01*
X25933800Y-3414000D01*
X25973800Y-3454000D01*
X25973800Y-4216000D02*
X26013800Y-4176000D01*
X25973800Y-4136000D01*
X25933800Y-4176000D01*
X25973800Y-4216000D01*
X26227800Y-3200000D02*
X26267800Y-3160000D01*
X26227800Y-3120000D01*
X26187800Y-3160000D01*
X26227800Y-3200000D01*
X26227800Y-3962000D02*
X26267800Y-3922000D01*
X26227800Y-3882000D01*
X26187800Y-3922000D01*
X26227800Y-3962000D01*
X26481800Y-4216000D02*
X26521800Y-4176000D01*
X26481800Y-4136000D01*
X26441800Y-4176000D01*
X26481800Y-4216000D01*
X26481800Y-4978000D02*
X26521800Y-4938000D01*
X26481800Y-4898000D01*
X26441800Y-4938000D01*
X26481800Y-4978000D01*
X26735800Y-3962000D02*
X26775800Y-3922000D01*
X26735800Y-3882000D01*
X26695800Y-3922000D01*
X26735800Y-3962000D01*
X26735800Y-4724000D02*
X26775800Y-4684000D01*
X26735800Y-4644000D01*
X26695800Y-4684000D01*
X26735800Y-4724000D01*
X26989800Y-3708000D02*
X27029800Y-3668000D01*
X26989800Y-3628000D01*
X26949800Y-3668000D01*
X26989800Y-3708000D01*
X26989800Y-4470000D02*
X27029800Y-4430000D01*
X26989800Y-4390000D01*
X26949800Y-4430000D01*
X26989800Y-4470000D01*
X27243800Y-3454000D02*
X27283800Y-3414000D01*
X27243800Y-3374000D01*
X27203800Y-3414000D01*
X27243800Y-3454000D01*
X27243800Y-4216000D02*
X27283800Y-4176000D01*
X27243800Y-4136000D01*
X27203800Y-4176000D01*
X27243800Y-4216000D01*
X27497800Y-3200000D02*
X27537800Y-3160000D01*
X27497800Y-3120000D01*
X27457800Y-3160000D01*
X27497800Y-3200000D01*
X27497800Y-3962000D02*
X27537800Y-3922000D01*
X27497800Y-3882000D01*
X27457800Y-3922000D01*
X27497800Y-3962000D01*
X28352750Y-4326250D02*
X28392750Y-4286250D01*
X28352750Y-4246250D01*
X28312750Y-4286250D01*
X28352750Y-4326250D01*
X28352750Y-5088250D02*
X28392750Y-5048250D01*
X28352750Y-5008250D01*
X28312750Y-5048250D01*
X28352750Y-5088250D01*
D16*
X2005390Y-3573390D02*
X2114610Y-3682610D01*
X2114610Y-3573390D02*
X2005390Y-3682610D01*
X2114610Y-3628000D02*
G75*
G03*
X2114610Y-3628000I-54610J0D01*
G01*
X2005390Y-3827390D02*
X2114610Y-3936610D01*
X2114610Y-3827390D02*
X2005390Y-3936610D01*
X2114610Y-3882000D02*
G75*
G03*
X2114610Y-3882000I-54610J0D01*
G01*
X2005390Y-4081390D02*
X2114610Y-4190610D01*
X2114610Y-4081390D02*
X2005390Y-4190610D01*
X2114610Y-4136000D02*
G75*
G03*
X2114610Y-4136000I-54610J0D01*
G01*
X2005390Y-4335390D02*
X2114610Y-4444610D01*
X2114610Y-4335390D02*
X2005390Y-4444610D01*
X2114610Y-4390000D02*
G75*
G03*
X2114610Y-4390000I-54610J0D01*
G01*
D17*
X29220800Y-3359000D02*
X29330800Y-3469000D01*
X29330800Y-3359000D02*
X29220800Y-3469000D01*
X29275800Y-3359000D02*
X29275800Y-3469000D01*
X29220800Y-3414000D02*
X29330800Y-3414000D01*
X29220800Y-3809000D02*
X29330800Y-3919000D01*
X29330800Y-3809000D02*
X29220800Y-3919000D01*
X29275800Y-3809000D02*
X29275800Y-3919000D01*
X29220800Y-3864000D02*
X29330800Y-3864000D01*
X29220800Y-4214000D02*
X29330800Y-4324000D01*
X29330800Y-4214000D02*
X29220800Y-4324000D01*
X29275800Y-4214000D02*
X29275800Y-4324000D01*
X29220800Y-4269000D02*
X29330800Y-4269000D01*
X29220800Y-4664000D02*
X29330800Y-4774000D01*
X29330800Y-4664000D02*
X29220800Y-4774000D01*
X29275800Y-4664000D02*
X29275800Y-4774000D01*
X29220800Y-4719000D02*
X29330800Y-4719000D01*
X29870800Y-3359000D02*
X29980800Y-3469000D01*
X29980800Y-3359000D02*
X29870800Y-3469000D01*
X29925800Y-3359000D02*
X29925800Y-3469000D01*
X29870800Y-3414000D02*
X29980800Y-3414000D01*
X29870800Y-3809000D02*
X29980800Y-3919000D01*
X29980800Y-3809000D02*
X29870800Y-3919000D01*
X29925800Y-3809000D02*
X29925800Y-3919000D01*
X29870800Y-3864000D02*
X29980800Y-3864000D01*
X29870800Y-4214000D02*
X29980800Y-4324000D01*
X29980800Y-4214000D02*
X29870800Y-4324000D01*
X29925800Y-4214000D02*
X29925800Y-4324000D01*
X29870800Y-4269000D02*
X29980800Y-4269000D01*
X29870800Y-4664000D02*
X29980800Y-4774000D01*
X29980800Y-4664000D02*
X29870800Y-4774000D01*
X29925800Y-4664000D02*
X29925800Y-4774000D01*
X29870800Y-4719000D02*
X29980800Y-4719000D01*
D18*
X2877800Y-7799000D02*
X3027800Y-7949000D01*
X3027800Y-7799000D02*
X2877800Y-7949000D01*
X3005833Y-7927033D02*
X3005833Y-7820966D01*
X2899766Y-7820966D01*
X2899766Y-7927033D01*
X3005833Y-7927033D01*
X2877800Y-9704000D02*
X3027800Y-9854000D01*
X3027800Y-9704000D02*
X2877800Y-9854000D01*
X3005833Y-9832034D02*
X3005833Y-9725967D01*
X2899766Y-9725967D01*
X2899766Y-9832034D01*
X3005833Y-9832034D01*
X2877800Y-11609000D02*
X3027800Y-11759000D01*
X3027800Y-11609000D02*
X2877800Y-11759000D01*
X3005833Y-11737033D02*
X3005833Y-11630966D01*
X2899766Y-11630966D01*
X2899766Y-11737033D01*
X3005833Y-11737033D01*
X2877800Y-13514000D02*
X3027800Y-13664000D01*
X3027800Y-13514000D02*
X2877800Y-13664000D01*
X3005833Y-13642033D02*
X3005833Y-13535966D01*
X2899766Y-13535966D01*
X2899766Y-13642033D01*
X3005833Y-13642033D01*
X2882000Y-5890000D02*
X3032000Y-6040000D01*
X3032000Y-5890000D02*
X2882000Y-6040000D01*
X3010033Y-6018033D02*
X3010033Y-5911966D01*
X2903966Y-5911966D01*
X2903966Y-6018033D01*
X3010033Y-6018033D01*
X3512800Y-7545000D02*
X3662800Y-7695000D01*
X3662800Y-7545000D02*
X3512800Y-7695000D01*
X3640833Y-7673033D02*
X3640833Y-7566966D01*
X3534766Y-7566966D01*
X3534766Y-7673033D01*
X3640833Y-7673033D01*
X3512800Y-9450000D02*
X3662800Y-9600000D01*
X3662800Y-9450000D02*
X3512800Y-9600000D01*
X3640833Y-9578034D02*
X3640833Y-9471967D01*
X3534766Y-9471967D01*
X3534766Y-9578034D01*
X3640833Y-9578034D01*
X3512800Y-11355000D02*
X3662800Y-11505000D01*
X3662800Y-11355000D02*
X3512800Y-11505000D01*
X3640833Y-11483033D02*
X3640833Y-11376966D01*
X3534766Y-11376966D01*
X3534766Y-11483033D01*
X3640833Y-11483033D01*
X3512800Y-13260000D02*
X3662800Y-13410000D01*
X3662800Y-13260000D02*
X3512800Y-13410000D01*
X3640833Y-13388033D02*
X3640833Y-13281966D01*
X3534766Y-13281966D01*
X3534766Y-13388033D01*
X3640833Y-13388033D01*
X3517000Y-5636000D02*
X3667000Y-5786000D01*
X3667000Y-5636000D02*
X3517000Y-5786000D01*
X3645033Y-5764033D02*
X3645033Y-5657966D01*
X3538966Y-5657966D01*
X3538966Y-5764033D01*
X3645033Y-5764033D01*
X5259000Y-5894000D02*
X5409000Y-6044000D01*
X5409000Y-5894000D02*
X5259000Y-6044000D01*
X5387034Y-6022033D02*
X5387034Y-5915966D01*
X5280967Y-5915966D01*
X5280967Y-6022033D01*
X5387034Y-6022033D01*
X5259000Y-7799000D02*
X5409000Y-7949000D01*
X5409000Y-7799000D02*
X5259000Y-7949000D01*
X5387034Y-7927033D02*
X5387034Y-7820966D01*
X5280967Y-7820966D01*
X5280967Y-7927033D01*
X5387034Y-7927033D01*
X5259000Y-9704000D02*
X5409000Y-9854000D01*
X5409000Y-9704000D02*
X5259000Y-9854000D01*
X5387034Y-9832034D02*
X5387034Y-9725967D01*
X5280967Y-9725967D01*
X5280967Y-9832034D01*
X5387034Y-9832034D01*
X5259000Y-11609000D02*
X5409000Y-11759000D01*
X5409000Y-11609000D02*
X5259000Y-11759000D01*
X5387034Y-11737033D02*
X5387034Y-11630966D01*
X5280967Y-11630966D01*
X5280967Y-11737033D01*
X5387034Y-11737033D01*
X5259000Y-13514000D02*
X5409000Y-13664000D01*
X5409000Y-13514000D02*
X5259000Y-13664000D01*
X5387034Y-13642033D02*
X5387034Y-13535966D01*
X5280967Y-13535966D01*
X5280967Y-13642033D01*
X5387034Y-13642033D01*
X5894000Y-5640000D02*
X6044000Y-5790000D01*
X6044000Y-5640000D02*
X5894000Y-5790000D01*
X6022033Y-5768033D02*
X6022033Y-5661966D01*
X5915966Y-5661966D01*
X5915966Y-5768033D01*
X6022033Y-5768033D01*
X5894000Y-7545000D02*
X6044000Y-7695000D01*
X6044000Y-7545000D02*
X5894000Y-7695000D01*
X6022033Y-7673033D02*
X6022033Y-7566966D01*
X5915966Y-7566966D01*
X5915966Y-7673033D01*
X6022033Y-7673033D01*
X5894000Y-9450000D02*
X6044000Y-9600000D01*
X6044000Y-9450000D02*
X5894000Y-9600000D01*
X6022033Y-9578034D02*
X6022033Y-9471967D01*
X5915966Y-9471967D01*
X5915966Y-9578034D01*
X6022033Y-9578034D01*
X5894000Y-11355000D02*
X6044000Y-11505000D01*
X6044000Y-11355000D02*
X5894000Y-11505000D01*
X6022033Y-11483033D02*
X6022033Y-11376966D01*
X5915966Y-11376966D01*
X5915966Y-11483033D01*
X6022033Y-11483033D01*
X5894000Y-13260000D02*
X6044000Y-13410000D01*
X6044000Y-13260000D02*
X5894000Y-13410000D01*
X6022033Y-13388033D02*
X6022033Y-13281966D01*
X5915966Y-13281966D01*
X5915966Y-13388033D01*
X6022033Y-13388033D01*
X7164000Y-5894000D02*
X7314000Y-6044000D01*
X7314000Y-5894000D02*
X7164000Y-6044000D01*
X7292033Y-6022033D02*
X7292033Y-5915966D01*
X7185966Y-5915966D01*
X7185966Y-6022033D01*
X7292033Y-6022033D01*
X7164000Y-7799000D02*
X7314000Y-7949000D01*
X7314000Y-7799000D02*
X7164000Y-7949000D01*
X7292033Y-7927033D02*
X7292033Y-7820966D01*
X7185966Y-7820966D01*
X7185966Y-7927033D01*
X7292033Y-7927033D01*
X7164000Y-9704000D02*
X7314000Y-9854000D01*
X7314000Y-9704000D02*
X7164000Y-9854000D01*
X7292033Y-9832034D02*
X7292033Y-9725967D01*
X7185966Y-9725967D01*
X7185966Y-9832034D01*
X7292033Y-9832034D01*
X7164000Y-11609000D02*
X7314000Y-11759000D01*
X7314000Y-11609000D02*
X7164000Y-11759000D01*
X7292033Y-11737033D02*
X7292033Y-11630966D01*
X7185966Y-11630966D01*
X7185966Y-11737033D01*
X7292033Y-11737033D01*
X7164000Y-13514000D02*
X7314000Y-13664000D01*
X7314000Y-13514000D02*
X7164000Y-13664000D01*
X7292033Y-13642033D02*
X7292033Y-13535966D01*
X7185966Y-13535966D01*
X7185966Y-13642033D01*
X7292033Y-13642033D01*
X7767250Y-14276000D02*
X7917250Y-14426000D01*
X7917250Y-14276000D02*
X7767250Y-14426000D01*
X7895283Y-14404033D02*
X7895283Y-14297966D01*
X7789216Y-14297966D01*
X7789216Y-14404033D01*
X7895283Y-14404033D01*
X7799000Y-5640000D02*
X7949000Y-5790000D01*
X7949000Y-5640000D02*
X7799000Y-5790000D01*
X7927033Y-5768033D02*
X7927033Y-5661966D01*
X7820966Y-5661966D01*
X7820966Y-5768033D01*
X7927033Y-5768033D01*
X7799000Y-7545000D02*
X7949000Y-7695000D01*
X7949000Y-7545000D02*
X7799000Y-7695000D01*
X7927033Y-7673033D02*
X7927033Y-7566966D01*
X7820966Y-7566966D01*
X7820966Y-7673033D01*
X7927033Y-7673033D01*
X7799000Y-9450000D02*
X7949000Y-9600000D01*
X7949000Y-9450000D02*
X7799000Y-9600000D01*
X7927033Y-9578034D02*
X7927033Y-9471967D01*
X7820966Y-9471967D01*
X7820966Y-9578034D01*
X7927033Y-9578034D01*
X7799000Y-11355000D02*
X7949000Y-11505000D01*
X7949000Y-11355000D02*
X7799000Y-11505000D01*
X7927033Y-11483033D02*
X7927033Y-11376966D01*
X7820966Y-11376966D01*
X7820966Y-11483033D01*
X7927033Y-11483033D01*
X7799000Y-13260000D02*
X7949000Y-13410000D01*
X7949000Y-13260000D02*
X7799000Y-13410000D01*
X7927033Y-13388033D02*
X7927033Y-13281966D01*
X7820966Y-13281966D01*
X7820966Y-13388033D01*
X7927033Y-13388033D01*
X8402250Y-14022000D02*
X8552250Y-14172000D01*
X8552250Y-14022000D02*
X8402250Y-14172000D01*
X8530284Y-14150033D02*
X8530284Y-14043966D01*
X8424217Y-14043966D01*
X8424217Y-14150033D01*
X8530284Y-14150033D01*
X9069000Y-5894000D02*
X9219000Y-6044000D01*
X9219000Y-5894000D02*
X9069000Y-6044000D01*
X9197034Y-6022033D02*
X9197034Y-5915966D01*
X9090967Y-5915966D01*
X9090967Y-6022033D01*
X9197034Y-6022033D01*
X9069000Y-7799000D02*
X9219000Y-7949000D01*
X9219000Y-7799000D02*
X9069000Y-7949000D01*
X9197034Y-7927033D02*
X9197034Y-7820966D01*
X9090967Y-7820966D01*
X9090967Y-7927033D01*
X9197034Y-7927033D01*
X9069000Y-9704000D02*
X9219000Y-9854000D01*
X9219000Y-9704000D02*
X9069000Y-9854000D01*
X9197034Y-9832034D02*
X9197034Y-9725967D01*
X9090967Y-9725967D01*
X9090967Y-9832034D01*
X9197034Y-9832034D01*
X9069000Y-11609000D02*
X9219000Y-11759000D01*
X9219000Y-11609000D02*
X9069000Y-11759000D01*
X9197034Y-11737033D02*
X9197034Y-11630966D01*
X9090967Y-11630966D01*
X9090967Y-11737033D01*
X9197034Y-11737033D01*
X9069000Y-13514000D02*
X9219000Y-13664000D01*
X9219000Y-13514000D02*
X9069000Y-13664000D01*
X9197034Y-13642033D02*
X9197034Y-13535966D01*
X9090967Y-13535966D01*
X9090967Y-13642033D01*
X9197034Y-13642033D01*
X9704000Y-5640000D02*
X9854000Y-5790000D01*
X9854000Y-5640000D02*
X9704000Y-5790000D01*
X9832034Y-5768033D02*
X9832034Y-5661966D01*
X9725967Y-5661966D01*
X9725967Y-5768033D01*
X9832034Y-5768033D01*
X9704000Y-7545000D02*
X9854000Y-7695000D01*
X9854000Y-7545000D02*
X9704000Y-7695000D01*
X9832034Y-7673033D02*
X9832034Y-7566966D01*
X9725967Y-7566966D01*
X9725967Y-7673033D01*
X9832034Y-7673033D01*
X9704000Y-9450000D02*
X9854000Y-9600000D01*
X9854000Y-9450000D02*
X9704000Y-9600000D01*
X9832034Y-9578034D02*
X9832034Y-9471967D01*
X9725967Y-9471967D01*
X9725967Y-9578034D01*
X9832034Y-9578034D01*
X9704000Y-11355000D02*
X9854000Y-11505000D01*
X9854000Y-11355000D02*
X9704000Y-11505000D01*
X9832034Y-11483033D02*
X9832034Y-11376966D01*
X9725967Y-11376966D01*
X9725967Y-11483033D01*
X9832034Y-11483033D01*
X9704000Y-13260000D02*
X9854000Y-13410000D01*
X9854000Y-13260000D02*
X9704000Y-13410000D01*
X9832034Y-13388033D02*
X9832034Y-13281966D01*
X9725967Y-13281966D01*
X9725967Y-13388033D01*
X9832034Y-13388033D01*
X10974000Y-5894000D02*
X11124000Y-6044000D01*
X11124000Y-5894000D02*
X10974000Y-6044000D01*
X11102034Y-6022033D02*
X11102034Y-5915966D01*
X10995967Y-5915966D01*
X10995967Y-6022033D01*
X11102034Y-6022033D01*
X10974000Y-7799000D02*
X11124000Y-7949000D01*
X11124000Y-7799000D02*
X10974000Y-7949000D01*
X11102034Y-7927033D02*
X11102034Y-7820966D01*
X10995967Y-7820966D01*
X10995967Y-7927033D01*
X11102034Y-7927033D01*
X10974000Y-9704000D02*
X11124000Y-9854000D01*
X11124000Y-9704000D02*
X10974000Y-9854000D01*
X11102034Y-9832034D02*
X11102034Y-9725967D01*
X10995967Y-9725967D01*
X10995967Y-9832034D01*
X11102034Y-9832034D01*
X10974000Y-11609000D02*
X11124000Y-11759000D01*
X11124000Y-11609000D02*
X10974000Y-11759000D01*
X11102034Y-11737033D02*
X11102034Y-11630966D01*
X10995967Y-11630966D01*
X10995967Y-11737033D01*
X11102034Y-11737033D01*
X10976800Y-13515000D02*
X11126800Y-13665000D01*
X11126800Y-13515000D02*
X10976800Y-13665000D01*
X11104834Y-13643033D02*
X11104834Y-13536966D01*
X10998767Y-13536966D01*
X10998767Y-13643033D01*
X11104834Y-13643033D01*
X11609000Y-5640000D02*
X11759000Y-5790000D01*
X11759000Y-5640000D02*
X11609000Y-5790000D01*
X11737033Y-5768033D02*
X11737033Y-5661966D01*
X11630966Y-5661966D01*
X11630966Y-5768033D01*
X11737033Y-5768033D01*
X11609000Y-7545000D02*
X11759000Y-7695000D01*
X11759000Y-7545000D02*
X11609000Y-7695000D01*
X11737033Y-7673033D02*
X11737033Y-7566966D01*
X11630966Y-7566966D01*
X11630966Y-7673033D01*
X11737033Y-7673033D01*
X11609000Y-9450000D02*
X11759000Y-9600000D01*
X11759000Y-9450000D02*
X11609000Y-9600000D01*
X11737033Y-9578034D02*
X11737033Y-9471967D01*
X11630966Y-9471967D01*
X11630966Y-9578034D01*
X11737033Y-9578034D01*
X11609000Y-11355000D02*
X11759000Y-11505000D01*
X11759000Y-11355000D02*
X11609000Y-11505000D01*
X11737033Y-11483033D02*
X11737033Y-11376966D01*
X11630966Y-11376966D01*
X11630966Y-11483033D01*
X11737033Y-11483033D01*
X11611800Y-13261000D02*
X11761800Y-13411000D01*
X11761800Y-13261000D02*
X11611800Y-13411000D01*
X11739833Y-13389033D02*
X11739833Y-13282966D01*
X11633766Y-13282966D01*
X11633766Y-13389033D01*
X11739833Y-13389033D01*
X12879000Y-5894000D02*
X13029000Y-6044000D01*
X13029000Y-5894000D02*
X12879000Y-6044000D01*
X13007033Y-6022033D02*
X13007033Y-5915966D01*
X12900966Y-5915966D01*
X12900966Y-6022033D01*
X13007033Y-6022033D01*
X12879000Y-7799000D02*
X13029000Y-7949000D01*
X13029000Y-7799000D02*
X12879000Y-7949000D01*
X13007033Y-7927033D02*
X13007033Y-7820966D01*
X12900966Y-7820966D01*
X12900966Y-7927033D01*
X13007033Y-7927033D01*
X12879000Y-9704000D02*
X13029000Y-9854000D01*
X13029000Y-9704000D02*
X12879000Y-9854000D01*
X13007033Y-9832034D02*
X13007033Y-9725967D01*
X12900966Y-9725967D01*
X12900966Y-9832034D01*
X13007033Y-9832034D01*
X12879000Y-11609000D02*
X13029000Y-11759000D01*
X13029000Y-11609000D02*
X12879000Y-11759000D01*
X13007033Y-11737033D02*
X13007033Y-11630966D01*
X12900966Y-11630966D01*
X12900966Y-11737033D01*
X13007033Y-11737033D01*
X13323550Y-13514000D02*
X13473550Y-13664000D01*
X13473550Y-13514000D02*
X13323550Y-13664000D01*
X13451583Y-13642033D02*
X13451583Y-13535966D01*
X13345516Y-13535966D01*
X13345516Y-13642033D01*
X13451583Y-13642033D01*
X13514000Y-5640000D02*
X13664000Y-5790000D01*
X13664000Y-5640000D02*
X13514000Y-5790000D01*
X13642033Y-5768033D02*
X13642033Y-5661966D01*
X13535966Y-5661966D01*
X13535966Y-5768033D01*
X13642033Y-5768033D01*
X13514000Y-7545000D02*
X13664000Y-7695000D01*
X13664000Y-7545000D02*
X13514000Y-7695000D01*
X13642033Y-7673033D02*
X13642033Y-7566966D01*
X13535966Y-7566966D01*
X13535966Y-7673033D01*
X13642033Y-7673033D01*
X13514000Y-9450000D02*
X13664000Y-9600000D01*
X13664000Y-9450000D02*
X13514000Y-9600000D01*
X13642033Y-9578034D02*
X13642033Y-9471967D01*
X13535966Y-9471967D01*
X13535966Y-9578034D01*
X13642033Y-9578034D01*
X13514000Y-11355000D02*
X13664000Y-11505000D01*
X13664000Y-11355000D02*
X13514000Y-11505000D01*
X13642033Y-11483033D02*
X13642033Y-11376966D01*
X13535966Y-11376966D01*
X13535966Y-11483033D01*
X13642033Y-11483033D01*
X13958500Y-14276000D02*
X14108500Y-14426000D01*
X14108500Y-14276000D02*
X13958500Y-14426000D01*
X14086533Y-14404033D02*
X14086533Y-14297966D01*
X13980466Y-14297966D01*
X13980466Y-14404033D01*
X14086533Y-14404033D01*
X13958550Y-13260000D02*
X14108550Y-13410000D01*
X14108550Y-13260000D02*
X13958550Y-13410000D01*
X14086583Y-13388033D02*
X14086583Y-13281966D01*
X13980516Y-13281966D01*
X13980516Y-13388033D01*
X14086583Y-13388033D01*
X14593500Y-14022000D02*
X14743500Y-14172000D01*
X14743500Y-14022000D02*
X14593500Y-14172000D01*
X14721533Y-14150033D02*
X14721533Y-14043966D01*
X14615466Y-14043966D01*
X14615466Y-14150033D01*
X14721533Y-14150033D01*
X14779000Y-11124000D02*
X14929000Y-11274000D01*
X14929000Y-11124000D02*
X14779000Y-11274000D01*
X14907033Y-11252033D02*
X14907033Y-11145967D01*
X14800966Y-11145967D01*
X14800966Y-11252033D01*
X14907033Y-11252033D01*
X14784000Y-5894000D02*
X14934000Y-6044000D01*
X14934000Y-5894000D02*
X14784000Y-6044000D01*
X14912033Y-6022033D02*
X14912033Y-5915966D01*
X14805966Y-5915966D01*
X14805966Y-6022033D01*
X14912033Y-6022033D01*
X14784000Y-7799000D02*
X14934000Y-7949000D01*
X14934000Y-7799000D02*
X14784000Y-7949000D01*
X14912033Y-7927033D02*
X14912033Y-7820966D01*
X14805966Y-7820966D01*
X14805966Y-7927033D01*
X14912033Y-7927033D01*
X14784000Y-9704000D02*
X14934000Y-9854000D01*
X14934000Y-9704000D02*
X14784000Y-9854000D01*
X14912033Y-9832034D02*
X14912033Y-9725967D01*
X14805966Y-9725967D01*
X14805966Y-9832034D01*
X14912033Y-9832034D01*
X14906000Y-9036000D02*
X15056000Y-9186000D01*
X15056000Y-9036000D02*
X14906000Y-9186000D01*
X15034033Y-9164034D02*
X15034033Y-9057967D01*
X14927966Y-9057967D01*
X14927966Y-9164034D01*
X15034033Y-9164034D01*
X14908800Y-12370000D02*
X15058800Y-12520000D01*
X15058800Y-12370000D02*
X14908800Y-12520000D01*
X15036833Y-12498033D02*
X15036833Y-12391966D01*
X14930766Y-12391966D01*
X14930766Y-12498033D01*
X15036833Y-12498033D01*
X15414000Y-10870000D02*
X15564000Y-11020000D01*
X15564000Y-10870000D02*
X15414000Y-11020000D01*
X15542033Y-10998034D02*
X15542033Y-10891967D01*
X15435966Y-10891967D01*
X15435966Y-10998034D01*
X15542033Y-10998034D01*
X15419000Y-5640000D02*
X15569000Y-5790000D01*
X15569000Y-5640000D02*
X15419000Y-5790000D01*
X15547033Y-5768033D02*
X15547033Y-5661966D01*
X15440966Y-5661966D01*
X15440966Y-5768033D01*
X15547033Y-5768033D01*
X15419000Y-7545000D02*
X15569000Y-7695000D01*
X15569000Y-7545000D02*
X15419000Y-7695000D01*
X15547033Y-7673033D02*
X15547033Y-7566966D01*
X15440966Y-7566966D01*
X15440966Y-7673033D01*
X15547033Y-7673033D01*
X15419000Y-9450000D02*
X15569000Y-9600000D01*
X15569000Y-9450000D02*
X15419000Y-9600000D01*
X15547033Y-9578034D02*
X15547033Y-9471967D01*
X15440966Y-9471967D01*
X15440966Y-9578034D01*
X15547033Y-9578034D01*
X15541000Y-8782000D02*
X15691000Y-8932000D01*
X15691000Y-8782000D02*
X15541000Y-8932000D01*
X15669033Y-8910034D02*
X15669033Y-8803967D01*
X15562966Y-8803967D01*
X15562966Y-8910034D01*
X15669033Y-8910034D01*
X15543800Y-12116000D02*
X15693800Y-12266000D01*
X15693800Y-12116000D02*
X15543800Y-12266000D01*
X15671833Y-12244033D02*
X15671833Y-12137966D01*
X15565766Y-12137966D01*
X15565766Y-12244033D01*
X15671833Y-12244033D01*
X15736500Y-13517000D02*
X15886500Y-13667000D01*
X15886500Y-13517000D02*
X15736500Y-13667000D01*
X15864533Y-13645033D02*
X15864533Y-13538966D01*
X15758466Y-13538966D01*
X15758466Y-13645033D01*
X15864533Y-13645033D01*
X16371500Y-13263000D02*
X16521500Y-13413000D01*
X16521500Y-13263000D02*
X16371500Y-13413000D01*
X16499533Y-13391033D02*
X16499533Y-13284966D01*
X16393466Y-13284966D01*
X16393466Y-13391033D01*
X16499533Y-13391033D01*
X16689000Y-5894000D02*
X16839000Y-6044000D01*
X16839000Y-5894000D02*
X16689000Y-6044000D01*
X16817034Y-6022033D02*
X16817034Y-5915966D01*
X16710966Y-5915966D01*
X16710966Y-6022033D01*
X16817034Y-6022033D01*
X16689000Y-7799000D02*
X16839000Y-7949000D01*
X16839000Y-7799000D02*
X16689000Y-7949000D01*
X16817034Y-7927033D02*
X16817034Y-7820966D01*
X16710966Y-7820966D01*
X16710966Y-7927033D01*
X16817034Y-7927033D01*
X16689000Y-9704000D02*
X16839000Y-9854000D01*
X16839000Y-9704000D02*
X16689000Y-9854000D01*
X16817034Y-9832034D02*
X16817034Y-9725967D01*
X16710966Y-9725967D01*
X16710966Y-9832034D01*
X16817034Y-9832034D01*
X16689000Y-11134000D02*
X16839000Y-11284000D01*
X16839000Y-11134000D02*
X16689000Y-11284000D01*
X16817034Y-11262033D02*
X16817034Y-11155967D01*
X16710966Y-11155967D01*
X16710966Y-11262033D01*
X16817034Y-11262033D01*
X16816000Y-9036000D02*
X16966000Y-9186000D01*
X16966000Y-9036000D02*
X16816000Y-9186000D01*
X16944034Y-9164034D02*
X16944034Y-9057967D01*
X16837967Y-9057967D01*
X16837967Y-9164034D01*
X16944034Y-9164034D01*
X16817800Y-12370000D02*
X16967800Y-12520000D01*
X16967800Y-12370000D02*
X16817800Y-12520000D01*
X16945834Y-12498033D02*
X16945834Y-12391966D01*
X16839767Y-12391966D01*
X16839767Y-12498033D01*
X16945834Y-12498033D01*
X17324000Y-5640000D02*
X17474000Y-5790000D01*
X17474000Y-5640000D02*
X17324000Y-5790000D01*
X17452034Y-5768033D02*
X17452034Y-5661966D01*
X17345967Y-5661966D01*
X17345967Y-5768033D01*
X17452034Y-5768033D01*
X17324000Y-7545000D02*
X17474000Y-7695000D01*
X17474000Y-7545000D02*
X17324000Y-7695000D01*
X17452034Y-7673033D02*
X17452034Y-7566966D01*
X17345967Y-7566966D01*
X17345967Y-7673033D01*
X17452034Y-7673033D01*
X17324000Y-9450000D02*
X17474000Y-9600000D01*
X17474000Y-9450000D02*
X17324000Y-9600000D01*
X17452034Y-9578034D02*
X17452034Y-9471967D01*
X17345967Y-9471967D01*
X17345967Y-9578034D01*
X17452034Y-9578034D01*
X17324000Y-10880000D02*
X17474000Y-11030000D01*
X17474000Y-10880000D02*
X17324000Y-11030000D01*
X17452034Y-11008034D02*
X17452034Y-10901967D01*
X17345967Y-10901967D01*
X17345967Y-11008034D01*
X17452034Y-11008034D01*
X17451000Y-8782000D02*
X17601000Y-8932000D01*
X17601000Y-8782000D02*
X17451000Y-8932000D01*
X17579034Y-8910034D02*
X17579034Y-8803967D01*
X17472967Y-8803967D01*
X17472967Y-8910034D01*
X17579034Y-8910034D01*
X17452800Y-12116000D02*
X17602800Y-12266000D01*
X17602800Y-12116000D02*
X17452800Y-12266000D01*
X17580834Y-12244033D02*
X17580834Y-12137966D01*
X17474767Y-12137966D01*
X17474767Y-12244033D01*
X17580834Y-12244033D01*
X17643800Y-13516000D02*
X17793800Y-13666000D01*
X17793800Y-13516000D02*
X17643800Y-13666000D01*
X17771834Y-13644033D02*
X17771834Y-13537966D01*
X17665767Y-13537966D01*
X17665767Y-13644033D01*
X17771834Y-13644033D01*
X18244750Y-14276000D02*
X18394750Y-14426000D01*
X18394750Y-14276000D02*
X18244750Y-14426000D01*
X18372784Y-14404033D02*
X18372784Y-14297966D01*
X18266717Y-14297966D01*
X18266717Y-14404033D01*
X18372784Y-14404033D01*
X18278800Y-13262000D02*
X18428800Y-13412000D01*
X18428800Y-13262000D02*
X18278800Y-13412000D01*
X18406834Y-13390033D02*
X18406834Y-13283966D01*
X18300767Y-13283966D01*
X18300767Y-13390033D01*
X18406834Y-13390033D01*
X18594000Y-5894000D02*
X18744000Y-6044000D01*
X18744000Y-5894000D02*
X18594000Y-6044000D01*
X18722034Y-6022033D02*
X18722034Y-5915966D01*
X18615967Y-5915966D01*
X18615967Y-6022033D01*
X18722034Y-6022033D01*
X18594000Y-7799000D02*
X18744000Y-7949000D01*
X18744000Y-7799000D02*
X18594000Y-7949000D01*
X18722034Y-7927033D02*
X18722034Y-7820966D01*
X18615967Y-7820966D01*
X18615967Y-7927033D01*
X18722034Y-7927033D01*
X18594000Y-9704000D02*
X18744000Y-9854000D01*
X18744000Y-9704000D02*
X18594000Y-9854000D01*
X18722034Y-9832034D02*
X18722034Y-9725967D01*
X18615967Y-9725967D01*
X18615967Y-9832034D01*
X18722034Y-9832034D01*
X18594000Y-11609000D02*
X18744000Y-11759000D01*
X18744000Y-11609000D02*
X18594000Y-11759000D01*
X18722034Y-11737033D02*
X18722034Y-11630966D01*
X18615967Y-11630966D01*
X18615967Y-11737033D01*
X18722034Y-11737033D01*
X18879750Y-14022000D02*
X19029750Y-14172000D01*
X19029750Y-14022000D02*
X18879750Y-14172000D01*
X19007784Y-14150033D02*
X19007784Y-14043966D01*
X18901717Y-14043966D01*
X18901717Y-14150033D01*
X19007784Y-14150033D01*
X19229000Y-5640000D02*
X19379000Y-5790000D01*
X19379000Y-5640000D02*
X19229000Y-5790000D01*
X19357034Y-5768033D02*
X19357034Y-5661966D01*
X19250967Y-5661966D01*
X19250967Y-5768033D01*
X19357034Y-5768033D01*
X19229000Y-7545000D02*
X19379000Y-7695000D01*
X19379000Y-7545000D02*
X19229000Y-7695000D01*
X19357034Y-7673033D02*
X19357034Y-7566966D01*
X19250967Y-7566966D01*
X19250967Y-7673033D01*
X19357034Y-7673033D01*
X19229000Y-9450000D02*
X19379000Y-9600000D01*
X19379000Y-9450000D02*
X19229000Y-9600000D01*
X19357034Y-9578034D02*
X19357034Y-9471967D01*
X19250967Y-9471967D01*
X19250967Y-9578034D01*
X19357034Y-9578034D01*
X19229000Y-11355000D02*
X19379000Y-11505000D01*
X19379000Y-11355000D02*
X19229000Y-11505000D01*
X19357034Y-11483033D02*
X19357034Y-11376966D01*
X19250967Y-11376966D01*
X19250967Y-11483033D01*
X19357034Y-11483033D01*
X20499000Y-5894000D02*
X20649000Y-6044000D01*
X20649000Y-5894000D02*
X20499000Y-6044000D01*
X20627034Y-6022033D02*
X20627034Y-5915966D01*
X20520967Y-5915966D01*
X20520967Y-6022033D01*
X20627034Y-6022033D01*
X20499000Y-7799000D02*
X20649000Y-7949000D01*
X20649000Y-7799000D02*
X20499000Y-7949000D01*
X20627034Y-7927033D02*
X20627034Y-7820966D01*
X20520967Y-7820966D01*
X20520967Y-7927033D01*
X20627034Y-7927033D01*
X20499000Y-9704000D02*
X20649000Y-9854000D01*
X20649000Y-9704000D02*
X20499000Y-9854000D01*
X20627034Y-9832034D02*
X20627034Y-9725967D01*
X20520967Y-9725967D01*
X20520967Y-9832034D01*
X20627034Y-9832034D01*
X20499000Y-11609000D02*
X20649000Y-11759000D01*
X20649000Y-11609000D02*
X20499000Y-11759000D01*
X20627034Y-11737033D02*
X20627034Y-11630966D01*
X20520967Y-11630966D01*
X20520967Y-11737033D01*
X20627034Y-11737033D01*
X20499000Y-13517000D02*
X20649000Y-13667000D01*
X20649000Y-13517000D02*
X20499000Y-13667000D01*
X20627034Y-13645033D02*
X20627034Y-13538966D01*
X20520967Y-13538966D01*
X20520967Y-13645033D01*
X20627034Y-13645033D01*
X21134000Y-5640000D02*
X21284000Y-5790000D01*
X21284000Y-5640000D02*
X21134000Y-5790000D01*
X21262034Y-5768033D02*
X21262034Y-5661966D01*
X21155967Y-5661966D01*
X21155967Y-5768033D01*
X21262034Y-5768033D01*
X21134000Y-7545000D02*
X21284000Y-7695000D01*
X21284000Y-7545000D02*
X21134000Y-7695000D01*
X21262034Y-7673033D02*
X21262034Y-7566966D01*
X21155967Y-7566966D01*
X21155967Y-7673033D01*
X21262034Y-7673033D01*
X21134000Y-9450000D02*
X21284000Y-9600000D01*
X21284000Y-9450000D02*
X21134000Y-9600000D01*
X21262034Y-9578034D02*
X21262034Y-9471967D01*
X21155967Y-9471967D01*
X21155967Y-9578034D01*
X21262034Y-9578034D01*
X21134000Y-11355000D02*
X21284000Y-11505000D01*
X21284000Y-11355000D02*
X21134000Y-11505000D01*
X21262034Y-11483033D02*
X21262034Y-11376966D01*
X21155967Y-11376966D01*
X21155967Y-11483033D01*
X21262034Y-11483033D01*
X21134000Y-13263000D02*
X21284000Y-13413000D01*
X21284000Y-13263000D02*
X21134000Y-13413000D01*
X21262034Y-13391033D02*
X21262034Y-13284966D01*
X21155967Y-13284966D01*
X21155967Y-13391033D01*
X21262034Y-13391033D01*
X22404000Y-5894000D02*
X22554000Y-6044000D01*
X22554000Y-5894000D02*
X22404000Y-6044000D01*
X22532033Y-6022033D02*
X22532033Y-5915966D01*
X22425966Y-5915966D01*
X22425966Y-6022033D01*
X22532033Y-6022033D01*
X22404000Y-7799000D02*
X22554000Y-7949000D01*
X22554000Y-7799000D02*
X22404000Y-7949000D01*
X22532033Y-7927033D02*
X22532033Y-7820966D01*
X22425966Y-7820966D01*
X22425966Y-7927033D01*
X22532033Y-7927033D01*
X22404000Y-9704000D02*
X22554000Y-9854000D01*
X22554000Y-9704000D02*
X22404000Y-9854000D01*
X22532033Y-9832034D02*
X22532033Y-9725967D01*
X22425966Y-9725967D01*
X22425966Y-9832034D01*
X22532033Y-9832034D01*
X22404000Y-11609000D02*
X22554000Y-11759000D01*
X22554000Y-11609000D02*
X22404000Y-11759000D01*
X22532033Y-11737033D02*
X22532033Y-11630966D01*
X22425966Y-11630966D01*
X22425966Y-11737033D01*
X22532033Y-11737033D01*
X22404000Y-13514000D02*
X22554000Y-13664000D01*
X22554000Y-13514000D02*
X22404000Y-13664000D01*
X22532033Y-13642033D02*
X22532033Y-13535966D01*
X22425966Y-13535966D01*
X22425966Y-13642033D01*
X22532033Y-13642033D01*
X23039000Y-5640000D02*
X23189000Y-5790000D01*
X23189000Y-5640000D02*
X23039000Y-5790000D01*
X23167033Y-5768033D02*
X23167033Y-5661966D01*
X23060966Y-5661966D01*
X23060966Y-5768033D01*
X23167033Y-5768033D01*
X23039000Y-7545000D02*
X23189000Y-7695000D01*
X23189000Y-7545000D02*
X23039000Y-7695000D01*
X23167033Y-7673033D02*
X23167033Y-7566966D01*
X23060966Y-7566966D01*
X23060966Y-7673033D01*
X23167033Y-7673033D01*
X23039000Y-9450000D02*
X23189000Y-9600000D01*
X23189000Y-9450000D02*
X23039000Y-9600000D01*
X23167033Y-9578034D02*
X23167033Y-9471967D01*
X23060966Y-9471967D01*
X23060966Y-9578034D01*
X23167033Y-9578034D01*
X23039000Y-11355000D02*
X23189000Y-11505000D01*
X23189000Y-11355000D02*
X23039000Y-11505000D01*
X23167033Y-11483033D02*
X23167033Y-11376966D01*
X23060966Y-11376966D01*
X23060966Y-11483033D01*
X23167033Y-11483033D01*
X23039000Y-13260000D02*
X23189000Y-13410000D01*
X23189000Y-13260000D02*
X23039000Y-13410000D01*
X23167033Y-13388033D02*
X23167033Y-13281966D01*
X23060966Y-13281966D01*
X23060966Y-13388033D01*
X23167033Y-13388033D01*
X23832750Y-13514000D02*
X23982750Y-13664000D01*
X23982750Y-13514000D02*
X23832750Y-13664000D01*
X23960783Y-13642033D02*
X23960783Y-13535966D01*
X23854716Y-13535966D01*
X23854716Y-13642033D01*
X23960783Y-13642033D01*
X24309000Y-5894000D02*
X24459000Y-6044000D01*
X24459000Y-5894000D02*
X24309000Y-6044000D01*
X24437033Y-6022033D02*
X24437033Y-5915966D01*
X24330966Y-5915966D01*
X24330966Y-6022033D01*
X24437033Y-6022033D01*
X24309000Y-7799000D02*
X24459000Y-7949000D01*
X24459000Y-7799000D02*
X24309000Y-7949000D01*
X24437033Y-7927033D02*
X24437033Y-7820966D01*
X24330966Y-7820966D01*
X24330966Y-7927033D01*
X24437033Y-7927033D01*
X24309000Y-9704000D02*
X24459000Y-9854000D01*
X24459000Y-9704000D02*
X24309000Y-9854000D01*
X24437033Y-9832034D02*
X24437033Y-9725967D01*
X24330966Y-9725967D01*
X24330966Y-9832034D01*
X24437033Y-9832034D01*
X24309000Y-11609000D02*
X24459000Y-11759000D01*
X24459000Y-11609000D02*
X24309000Y-11759000D01*
X24437033Y-11737033D02*
X24437033Y-11630966D01*
X24330966Y-11630966D01*
X24330966Y-11737033D01*
X24437033Y-11737033D01*
X24436000Y-14276000D02*
X24586000Y-14426000D01*
X24586000Y-14276000D02*
X24436000Y-14426000D01*
X24564033Y-14404033D02*
X24564033Y-14297966D01*
X24457966Y-14297966D01*
X24457966Y-14404033D01*
X24564033Y-14404033D01*
X24467750Y-13260000D02*
X24617750Y-13410000D01*
X24617750Y-13260000D02*
X24467750Y-13410000D01*
X24595783Y-13388033D02*
X24595783Y-13281966D01*
X24489716Y-13281966D01*
X24489716Y-13388033D01*
X24595783Y-13388033D01*
X24944000Y-5640000D02*
X25094000Y-5790000D01*
X25094000Y-5640000D02*
X24944000Y-5790000D01*
X25072033Y-5768033D02*
X25072033Y-5661966D01*
X24965966Y-5661966D01*
X24965966Y-5768033D01*
X25072033Y-5768033D01*
X24944000Y-7545000D02*
X25094000Y-7695000D01*
X25094000Y-7545000D02*
X24944000Y-7695000D01*
X25072033Y-7673033D02*
X25072033Y-7566966D01*
X24965966Y-7566966D01*
X24965966Y-7673033D01*
X25072033Y-7673033D01*
X24944000Y-9450000D02*
X25094000Y-9600000D01*
X25094000Y-9450000D02*
X24944000Y-9600000D01*
X25072033Y-9578034D02*
X25072033Y-9471967D01*
X24965966Y-9471967D01*
X24965966Y-9578034D01*
X25072033Y-9578034D01*
X24944000Y-11355000D02*
X25094000Y-11505000D01*
X25094000Y-11355000D02*
X24944000Y-11505000D01*
X25072033Y-11483033D02*
X25072033Y-11376966D01*
X24965966Y-11376966D01*
X24965966Y-11483033D01*
X25072033Y-11483033D01*
X25071000Y-14022000D02*
X25221000Y-14172000D01*
X25221000Y-14022000D02*
X25071000Y-14172000D01*
X25199033Y-14150033D02*
X25199033Y-14043966D01*
X25092966Y-14043966D01*
X25092966Y-14150033D01*
X25199033Y-14150033D01*
X26214000Y-5894000D02*
X26364000Y-6044000D01*
X26364000Y-5894000D02*
X26214000Y-6044000D01*
X26342033Y-6022033D02*
X26342033Y-5915966D01*
X26235966Y-5915966D01*
X26235966Y-6022033D01*
X26342033Y-6022033D01*
X26214000Y-7799000D02*
X26364000Y-7949000D01*
X26364000Y-7799000D02*
X26214000Y-7949000D01*
X26342033Y-7927033D02*
X26342033Y-7820966D01*
X26235966Y-7820966D01*
X26235966Y-7927033D01*
X26342033Y-7927033D01*
X26214000Y-9704000D02*
X26364000Y-9854000D01*
X26364000Y-9704000D02*
X26214000Y-9854000D01*
X26342033Y-9832034D02*
X26342033Y-9725967D01*
X26235966Y-9725967D01*
X26235966Y-9832034D01*
X26342033Y-9832034D01*
X26214000Y-11609000D02*
X26364000Y-11759000D01*
X26364000Y-11609000D02*
X26214000Y-11759000D01*
X26342033Y-11737033D02*
X26342033Y-11630966D01*
X26235966Y-11630966D01*
X26235966Y-11737033D01*
X26342033Y-11737033D01*
X26214000Y-13514000D02*
X26364000Y-13664000D01*
X26364000Y-13514000D02*
X26214000Y-13664000D01*
X26342033Y-13642033D02*
X26342033Y-13535966D01*
X26235966Y-13535966D01*
X26235966Y-13642033D01*
X26342033Y-13642033D01*
X26849000Y-5640000D02*
X26999000Y-5790000D01*
X26999000Y-5640000D02*
X26849000Y-5790000D01*
X26977033Y-5768033D02*
X26977033Y-5661966D01*
X26870966Y-5661966D01*
X26870966Y-5768033D01*
X26977033Y-5768033D01*
X26849000Y-7545000D02*
X26999000Y-7695000D01*
X26999000Y-7545000D02*
X26849000Y-7695000D01*
X26977033Y-7673033D02*
X26977033Y-7566966D01*
X26870966Y-7566966D01*
X26870966Y-7673033D01*
X26977033Y-7673033D01*
X26849000Y-9450000D02*
X26999000Y-9600000D01*
X26999000Y-9450000D02*
X26849000Y-9600000D01*
X26977033Y-9578034D02*
X26977033Y-9471967D01*
X26870966Y-9471967D01*
X26870966Y-9578034D01*
X26977033Y-9578034D01*
X26849000Y-11355000D02*
X26999000Y-11505000D01*
X26999000Y-11355000D02*
X26849000Y-11505000D01*
X26977033Y-11483033D02*
X26977033Y-11376966D01*
X26870966Y-11376966D01*
X26870966Y-11483033D01*
X26977033Y-11483033D01*
X26849000Y-13260000D02*
X26999000Y-13410000D01*
X26999000Y-13260000D02*
X26849000Y-13410000D01*
X26977033Y-13388033D02*
X26977033Y-13281966D01*
X26870966Y-13281966D01*
X26870966Y-13388033D01*
X26977033Y-13388033D01*
X28595200Y-5894000D02*
X28745200Y-6044000D01*
X28745200Y-5894000D02*
X28595200Y-6044000D01*
X28723233Y-6022033D02*
X28723233Y-5915966D01*
X28617166Y-5915966D01*
X28617166Y-6022033D01*
X28723233Y-6022033D01*
X28595200Y-7799000D02*
X28745200Y-7949000D01*
X28745200Y-7799000D02*
X28595200Y-7949000D01*
X28723233Y-7927033D02*
X28723233Y-7820966D01*
X28617166Y-7820966D01*
X28617166Y-7927033D01*
X28723233Y-7927033D01*
X28595200Y-9704000D02*
X28745200Y-9854000D01*
X28745200Y-9704000D02*
X28595200Y-9854000D01*
X28723233Y-9832034D02*
X28723233Y-9725967D01*
X28617166Y-9725967D01*
X28617166Y-9832034D01*
X28723233Y-9832034D01*
X28595200Y-11609000D02*
X28745200Y-11759000D01*
X28745200Y-11609000D02*
X28595200Y-11759000D01*
X28723233Y-11737033D02*
X28723233Y-11630966D01*
X28617166Y-11630966D01*
X28617166Y-11737033D01*
X28723233Y-11737033D01*
X28595200Y-13514000D02*
X28745200Y-13664000D01*
X28745200Y-13514000D02*
X28595200Y-13664000D01*
X28723233Y-13642033D02*
X28723233Y-13535966D01*
X28617166Y-13535966D01*
X28617166Y-13642033D01*
X28723233Y-13642033D01*
X29230200Y-5640000D02*
X29380200Y-5790000D01*
X29380200Y-5640000D02*
X29230200Y-5790000D01*
X29358233Y-5768033D02*
X29358233Y-5661966D01*
X29252166Y-5661966D01*
X29252166Y-5768033D01*
X29358233Y-5768033D01*
X29230200Y-7545000D02*
X29380200Y-7695000D01*
X29380200Y-7545000D02*
X29230200Y-7695000D01*
X29358233Y-7673033D02*
X29358233Y-7566966D01*
X29252166Y-7566966D01*
X29252166Y-7673033D01*
X29358233Y-7673033D01*
X29230200Y-9450000D02*
X29380200Y-9600000D01*
X29380200Y-9450000D02*
X29230200Y-9600000D01*
X29358233Y-9578034D02*
X29358233Y-9471967D01*
X29252166Y-9471967D01*
X29252166Y-9578034D01*
X29358233Y-9578034D01*
X29230200Y-11355000D02*
X29380200Y-11505000D01*
X29380200Y-11355000D02*
X29230200Y-11505000D01*
X29358233Y-11483033D02*
X29358233Y-11376966D01*
X29252166Y-11376966D01*
X29252166Y-11483033D01*
X29358233Y-11483033D01*
X29230200Y-13260000D02*
X29380200Y-13410000D01*
X29380200Y-13260000D02*
X29230200Y-13410000D01*
X29358233Y-13388033D02*
X29358233Y-13281966D01*
X29252166Y-13281966D01*
X29252166Y-13388033D01*
X29358233Y-13388033D01*
D11*
X2099577Y-15322484D02*
X2099577Y-15122484D01*
X2099577Y-15122484D02*
X2147196Y-15122484D01*
X2147196Y-15122484D02*
X2175767Y-15132008D01*
X2175767Y-15132008D02*
X2194815Y-15151055D01*
X2194815Y-15151055D02*
X2204339Y-15170103D01*
X2204339Y-15170103D02*
X2213863Y-15208198D01*
X2213863Y-15208198D02*
X2213863Y-15236769D01*
X2213863Y-15236769D02*
X2204339Y-15274865D01*
X2204339Y-15274865D02*
X2194815Y-15293912D01*
X2194815Y-15293912D02*
X2175767Y-15312960D01*
X2175767Y-15312960D02*
X2147196Y-15322484D01*
X2147196Y-15322484D02*
X2099577Y-15322484D01*
X2299577Y-15322484D02*
X2299577Y-15189150D01*
X2299577Y-15227246D02*
X2309101Y-15208198D01*
X2309101Y-15208198D02*
X2318624Y-15198674D01*
X2318624Y-15198674D02*
X2337672Y-15189150D01*
X2337672Y-15189150D02*
X2356720Y-15189150D01*
X2423386Y-15322484D02*
X2423386Y-15189150D01*
X2423386Y-15122484D02*
X2413863Y-15132008D01*
X2413863Y-15132008D02*
X2423386Y-15141531D01*
X2423386Y-15141531D02*
X2432910Y-15132008D01*
X2432910Y-15132008D02*
X2423386Y-15122484D01*
X2423386Y-15122484D02*
X2423386Y-15141531D01*
X2547196Y-15322484D02*
X2528148Y-15312960D01*
X2528148Y-15312960D02*
X2518624Y-15293912D01*
X2518624Y-15293912D02*
X2518624Y-15122484D01*
X2651958Y-15322484D02*
X2632910Y-15312960D01*
X2632910Y-15312960D02*
X2623386Y-15293912D01*
X2623386Y-15293912D02*
X2623386Y-15122484D01*
X2880529Y-15322484D02*
X2880529Y-15122484D01*
X2880529Y-15122484D02*
X2947196Y-15265341D01*
X2947196Y-15265341D02*
X3013862Y-15122484D01*
X3013862Y-15122484D02*
X3013862Y-15322484D01*
X3194815Y-15322484D02*
X3194815Y-15217722D01*
X3194815Y-15217722D02*
X3185291Y-15198674D01*
X3185291Y-15198674D02*
X3166243Y-15189150D01*
X3166243Y-15189150D02*
X3128148Y-15189150D01*
X3128148Y-15189150D02*
X3109101Y-15198674D01*
X3194815Y-15312960D02*
X3175767Y-15322484D01*
X3175767Y-15322484D02*
X3128148Y-15322484D01*
X3128148Y-15322484D02*
X3109101Y-15312960D01*
X3109101Y-15312960D02*
X3099577Y-15293912D01*
X3099577Y-15293912D02*
X3099577Y-15274865D01*
X3099577Y-15274865D02*
X3109101Y-15255817D01*
X3109101Y-15255817D02*
X3128148Y-15246293D01*
X3128148Y-15246293D02*
X3175767Y-15246293D01*
X3175767Y-15246293D02*
X3194815Y-15236769D01*
X3290053Y-15189150D02*
X3290053Y-15389150D01*
X3290053Y-15198674D02*
X3309101Y-15189150D01*
X3309101Y-15189150D02*
X3347196Y-15189150D01*
X3347196Y-15189150D02*
X3366243Y-15198674D01*
X3366243Y-15198674D02*
X3375767Y-15208198D01*
X3375767Y-15208198D02*
X3385291Y-15227246D01*
X3385291Y-15227246D02*
X3385291Y-15284388D01*
X3385291Y-15284388D02*
X3375767Y-15303436D01*
X3375767Y-15303436D02*
X3366243Y-15312960D01*
X3366243Y-15312960D02*
X3347196Y-15322484D01*
X3347196Y-15322484D02*
X3309101Y-15322484D01*
X3309101Y-15322484D02*
X3290053Y-15312960D01*
X3471005Y-15303436D02*
X3480529Y-15312960D01*
X3480529Y-15312960D02*
X3471005Y-15322484D01*
X3471005Y-15322484D02*
X3461482Y-15312960D01*
X3461482Y-15312960D02*
X3471005Y-15303436D01*
X3471005Y-15303436D02*
X3471005Y-15322484D01*
X3471005Y-15198674D02*
X3480529Y-15208198D01*
X3480529Y-15208198D02*
X3471005Y-15217722D01*
X3471005Y-15217722D02*
X3461482Y-15208198D01*
X3461482Y-15208198D02*
X3471005Y-15198674D01*
X3471005Y-15198674D02*
X3471005Y-15217722D01*
D12*
X1798800Y-15631000D02*
X1838800Y-15671000D01*
X1838800Y-15631000D02*
X1798800Y-15671000D01*
D11*
X2137672Y-15542484D02*
X2156720Y-15542484D01*
X2156720Y-15542484D02*
X2175767Y-15552008D01*
X2175767Y-15552008D02*
X2185291Y-15561531D01*
X2185291Y-15561531D02*
X2194815Y-15580579D01*
X2194815Y-15580579D02*
X2204339Y-15618674D01*
X2204339Y-15618674D02*
X2204339Y-15666293D01*
X2204339Y-15666293D02*
X2194815Y-15704388D01*
X2194815Y-15704388D02*
X2185291Y-15723436D01*
X2185291Y-15723436D02*
X2175767Y-15732960D01*
X2175767Y-15732960D02*
X2156720Y-15742484D01*
X2156720Y-15742484D02*
X2137672Y-15742484D01*
X2137672Y-15742484D02*
X2118624Y-15732960D01*
X2118624Y-15732960D02*
X2109101Y-15723436D01*
X2109101Y-15723436D02*
X2099577Y-15704388D01*
X2099577Y-15704388D02*
X2090053Y-15666293D01*
X2090053Y-15666293D02*
X2090053Y-15618674D01*
X2090053Y-15618674D02*
X2099577Y-15580579D01*
X2099577Y-15580579D02*
X2109101Y-15561531D01*
X2109101Y-15561531D02*
X2118624Y-15552008D01*
X2118624Y-15552008D02*
X2137672Y-15542484D01*
X2290053Y-15723436D02*
X2299577Y-15732960D01*
X2299577Y-15732960D02*
X2290053Y-15742484D01*
X2290053Y-15742484D02*
X2280529Y-15732960D01*
X2280529Y-15732960D02*
X2290053Y-15723436D01*
X2290053Y-15723436D02*
X2290053Y-15742484D01*
X2471005Y-15609150D02*
X2471005Y-15742484D01*
X2423386Y-15532960D02*
X2375767Y-15675817D01*
X2375767Y-15675817D02*
X2499577Y-15675817D01*
X2613863Y-15542484D02*
X2632910Y-15542484D01*
X2632910Y-15542484D02*
X2651958Y-15552008D01*
X2651958Y-15552008D02*
X2661482Y-15561531D01*
X2661482Y-15561531D02*
X2671005Y-15580579D01*
X2671005Y-15580579D02*
X2680529Y-15618674D01*
X2680529Y-15618674D02*
X2680529Y-15666293D01*
X2680529Y-15666293D02*
X2671005Y-15704388D01*
X2671005Y-15704388D02*
X2661482Y-15723436D01*
X2661482Y-15723436D02*
X2651958Y-15732960D01*
X2651958Y-15732960D02*
X2632910Y-15742484D01*
X2632910Y-15742484D02*
X2613863Y-15742484D01*
X2613863Y-15742484D02*
X2594815Y-15732960D01*
X2594815Y-15732960D02*
X2585291Y-15723436D01*
X2585291Y-15723436D02*
X2575767Y-15704388D01*
X2575767Y-15704388D02*
X2566244Y-15666293D01*
X2566244Y-15666293D02*
X2566244Y-15618674D01*
X2566244Y-15618674D02*
X2575767Y-15580579D01*
X2575767Y-15580579D02*
X2585291Y-15561531D01*
X2585291Y-15561531D02*
X2594815Y-15552008D01*
X2594815Y-15552008D02*
X2613863Y-15542484D01*
X2804339Y-15542484D02*
X2823386Y-15542484D01*
X2823386Y-15542484D02*
X2842434Y-15552008D01*
X2842434Y-15552008D02*
X2851958Y-15561531D01*
X2851958Y-15561531D02*
X2861482Y-15580579D01*
X2861482Y-15580579D02*
X2871005Y-15618674D01*
X2871005Y-15618674D02*
X2871005Y-15666293D01*
X2871005Y-15666293D02*
X2861482Y-15704388D01*
X2861482Y-15704388D02*
X2851958Y-15723436D01*
X2851958Y-15723436D02*
X2842434Y-15732960D01*
X2842434Y-15732960D02*
X2823386Y-15742484D01*
X2823386Y-15742484D02*
X2804339Y-15742484D01*
X2804339Y-15742484D02*
X2785291Y-15732960D01*
X2785291Y-15732960D02*
X2775767Y-15723436D01*
X2775767Y-15723436D02*
X2766244Y-15704388D01*
X2766244Y-15704388D02*
X2756720Y-15666293D01*
X2756720Y-15666293D02*
X2756720Y-15618674D01*
X2756720Y-15618674D02*
X2766244Y-15580579D01*
X2766244Y-15580579D02*
X2775767Y-15561531D01*
X2775767Y-15561531D02*
X2785291Y-15552008D01*
X2785291Y-15552008D02*
X2804339Y-15542484D01*
X2956720Y-15742484D02*
X2956720Y-15609150D01*
X2956720Y-15628198D02*
X2966243Y-15618674D01*
X2966243Y-15618674D02*
X2985291Y-15609150D01*
X2985291Y-15609150D02*
X3013863Y-15609150D01*
X3013863Y-15609150D02*
X3032910Y-15618674D01*
X3032910Y-15618674D02*
X3042434Y-15637722D01*
X3042434Y-15637722D02*
X3042434Y-15742484D01*
X3042434Y-15637722D02*
X3051958Y-15618674D01*
X3051958Y-15618674D02*
X3071005Y-15609150D01*
X3071005Y-15609150D02*
X3099577Y-15609150D01*
X3099577Y-15609150D02*
X3118624Y-15618674D01*
X3118624Y-15618674D02*
X3128148Y-15637722D01*
X3128148Y-15637722D02*
X3128148Y-15742484D01*
X3223386Y-15742484D02*
X3223386Y-15609150D01*
X3223386Y-15628198D02*
X3232910Y-15618674D01*
X3232910Y-15618674D02*
X3251958Y-15609150D01*
X3251958Y-15609150D02*
X3280529Y-15609150D01*
X3280529Y-15609150D02*
X3299577Y-15618674D01*
X3299577Y-15618674D02*
X3309101Y-15637722D01*
X3309101Y-15637722D02*
X3309101Y-15742484D01*
X3309101Y-15637722D02*
X3318624Y-15618674D01*
X3318624Y-15618674D02*
X3337672Y-15609150D01*
X3337672Y-15609150D02*
X3366243Y-15609150D01*
X3366243Y-15609150D02*
X3385291Y-15618674D01*
X3385291Y-15618674D02*
X3394815Y-15637722D01*
X3394815Y-15637722D02*
X3394815Y-15742484D01*
X3785291Y-15532960D02*
X3613863Y-15790103D01*
X4042434Y-15542484D02*
X4061482Y-15542484D01*
X4061482Y-15542484D02*
X4080529Y-15552008D01*
X4080529Y-15552008D02*
X4090053Y-15561531D01*
X4090053Y-15561531D02*
X4099577Y-15580579D01*
X4099577Y-15580579D02*
X4109101Y-15618674D01*
X4109101Y-15618674D02*
X4109101Y-15666293D01*
X4109101Y-15666293D02*
X4099577Y-15704388D01*
X4099577Y-15704388D02*
X4090053Y-15723436D01*
X4090053Y-15723436D02*
X4080529Y-15732960D01*
X4080529Y-15732960D02*
X4061482Y-15742484D01*
X4061482Y-15742484D02*
X4042434Y-15742484D01*
X4042434Y-15742484D02*
X4023386Y-15732960D01*
X4023386Y-15732960D02*
X4013863Y-15723436D01*
X4013863Y-15723436D02*
X4004339Y-15704388D01*
X4004339Y-15704388D02*
X3994815Y-15666293D01*
X3994815Y-15666293D02*
X3994815Y-15618674D01*
X3994815Y-15618674D02*
X4004339Y-15580579D01*
X4004339Y-15580579D02*
X4013863Y-15561531D01*
X4013863Y-15561531D02*
X4023386Y-15552008D01*
X4023386Y-15552008D02*
X4042434Y-15542484D01*
X4194815Y-15723436D02*
X4204339Y-15732960D01*
X4204339Y-15732960D02*
X4194815Y-15742484D01*
X4194815Y-15742484D02*
X4185291Y-15732960D01*
X4185291Y-15732960D02*
X4194815Y-15723436D01*
X4194815Y-15723436D02*
X4194815Y-15742484D01*
X4328148Y-15542484D02*
X4347196Y-15542484D01*
X4347196Y-15542484D02*
X4366244Y-15552008D01*
X4366244Y-15552008D02*
X4375768Y-15561531D01*
X4375768Y-15561531D02*
X4385291Y-15580579D01*
X4385291Y-15580579D02*
X4394815Y-15618674D01*
X4394815Y-15618674D02*
X4394815Y-15666293D01*
X4394815Y-15666293D02*
X4385291Y-15704388D01*
X4385291Y-15704388D02*
X4375768Y-15723436D01*
X4375768Y-15723436D02*
X4366244Y-15732960D01*
X4366244Y-15732960D02*
X4347196Y-15742484D01*
X4347196Y-15742484D02*
X4328148Y-15742484D01*
X4328148Y-15742484D02*
X4309101Y-15732960D01*
X4309101Y-15732960D02*
X4299577Y-15723436D01*
X4299577Y-15723436D02*
X4290053Y-15704388D01*
X4290053Y-15704388D02*
X4280529Y-15666293D01*
X4280529Y-15666293D02*
X4280529Y-15618674D01*
X4280529Y-15618674D02*
X4290053Y-15580579D01*
X4290053Y-15580579D02*
X4299577Y-15561531D01*
X4299577Y-15561531D02*
X4309101Y-15552008D01*
X4309101Y-15552008D02*
X4328148Y-15542484D01*
X4585291Y-15742484D02*
X4471006Y-15742484D01*
X4528148Y-15742484D02*
X4528148Y-15542484D01*
X4528148Y-15542484D02*
X4509101Y-15571055D01*
X4509101Y-15571055D02*
X4490053Y-15590103D01*
X4490053Y-15590103D02*
X4471006Y-15599627D01*
X4766244Y-15542484D02*
X4671006Y-15542484D01*
X4671006Y-15542484D02*
X4661482Y-15637722D01*
X4661482Y-15637722D02*
X4671006Y-15628198D01*
X4671006Y-15628198D02*
X4690053Y-15618674D01*
X4690053Y-15618674D02*
X4737672Y-15618674D01*
X4737672Y-15618674D02*
X4756720Y-15628198D01*
X4756720Y-15628198D02*
X4766244Y-15637722D01*
X4766244Y-15637722D02*
X4775768Y-15656769D01*
X4775768Y-15656769D02*
X4775768Y-15704388D01*
X4775768Y-15704388D02*
X4766244Y-15723436D01*
X4766244Y-15723436D02*
X4756720Y-15732960D01*
X4756720Y-15732960D02*
X4737672Y-15742484D01*
X4737672Y-15742484D02*
X4690053Y-15742484D01*
X4690053Y-15742484D02*
X4671006Y-15732960D01*
X4671006Y-15732960D02*
X4661482Y-15723436D01*
X4842434Y-15542484D02*
X4975768Y-15542484D01*
X4975768Y-15542484D02*
X4890053Y-15742484D01*
X5042434Y-15542484D02*
X5042434Y-15580579D01*
X5118625Y-15542484D02*
X5118625Y-15580579D01*
X5413863Y-15818674D02*
X5404339Y-15809150D01*
X5404339Y-15809150D02*
X5385291Y-15780579D01*
X5385291Y-15780579D02*
X5375768Y-15761531D01*
X5375768Y-15761531D02*
X5366244Y-15732960D01*
X5366244Y-15732960D02*
X5356720Y-15685341D01*
X5356720Y-15685341D02*
X5356720Y-15647246D01*
X5356720Y-15647246D02*
X5366244Y-15599627D01*
X5366244Y-15599627D02*
X5375768Y-15571055D01*
X5375768Y-15571055D02*
X5385291Y-15552008D01*
X5385291Y-15552008D02*
X5404339Y-15523436D01*
X5404339Y-15523436D02*
X5413863Y-15513912D01*
X5518625Y-15628198D02*
X5499577Y-15618674D01*
X5499577Y-15618674D02*
X5490053Y-15609150D01*
X5490053Y-15609150D02*
X5480530Y-15590103D01*
X5480530Y-15590103D02*
X5480530Y-15580579D01*
X5480530Y-15580579D02*
X5490053Y-15561531D01*
X5490053Y-15561531D02*
X5499577Y-15552008D01*
X5499577Y-15552008D02*
X5518625Y-15542484D01*
X5518625Y-15542484D02*
X5556720Y-15542484D01*
X5556720Y-15542484D02*
X5575768Y-15552008D01*
X5575768Y-15552008D02*
X5585291Y-15561531D01*
X5585291Y-15561531D02*
X5594815Y-15580579D01*
X5594815Y-15580579D02*
X5594815Y-15590103D01*
X5594815Y-15590103D02*
X5585291Y-15609150D01*
X5585291Y-15609150D02*
X5575768Y-15618674D01*
X5575768Y-15618674D02*
X5556720Y-15628198D01*
X5556720Y-15628198D02*
X5518625Y-15628198D01*
X5518625Y-15628198D02*
X5499577Y-15637722D01*
X5499577Y-15637722D02*
X5490053Y-15647246D01*
X5490053Y-15647246D02*
X5480530Y-15666293D01*
X5480530Y-15666293D02*
X5480530Y-15704388D01*
X5480530Y-15704388D02*
X5490053Y-15723436D01*
X5490053Y-15723436D02*
X5499577Y-15732960D01*
X5499577Y-15732960D02*
X5518625Y-15742484D01*
X5518625Y-15742484D02*
X5556720Y-15742484D01*
X5556720Y-15742484D02*
X5575768Y-15732960D01*
X5575768Y-15732960D02*
X5585291Y-15723436D01*
X5585291Y-15723436D02*
X5594815Y-15704388D01*
X5594815Y-15704388D02*
X5594815Y-15666293D01*
X5594815Y-15666293D02*
X5585291Y-15647246D01*
X5585291Y-15647246D02*
X5575768Y-15637722D01*
X5575768Y-15637722D02*
X5556720Y-15628198D01*
X5661482Y-15542484D02*
X5794815Y-15542484D01*
X5794815Y-15542484D02*
X5709101Y-15742484D01*
X6023387Y-15742484D02*
X6023387Y-15542484D01*
X6109101Y-15742484D02*
X6109101Y-15637722D01*
X6109101Y-15637722D02*
X6099577Y-15618674D01*
X6099577Y-15618674D02*
X6080530Y-15609150D01*
X6080530Y-15609150D02*
X6051958Y-15609150D01*
X6051958Y-15609150D02*
X6032910Y-15618674D01*
X6032910Y-15618674D02*
X6023387Y-15628198D01*
X6232910Y-15742484D02*
X6213863Y-15732960D01*
X6213863Y-15732960D02*
X6204339Y-15723436D01*
X6204339Y-15723436D02*
X6194815Y-15704388D01*
X6194815Y-15704388D02*
X6194815Y-15647246D01*
X6194815Y-15647246D02*
X6204339Y-15628198D01*
X6204339Y-15628198D02*
X6213863Y-15618674D01*
X6213863Y-15618674D02*
X6232910Y-15609150D01*
X6232910Y-15609150D02*
X6261482Y-15609150D01*
X6261482Y-15609150D02*
X6280530Y-15618674D01*
X6280530Y-15618674D02*
X6290053Y-15628198D01*
X6290053Y-15628198D02*
X6299577Y-15647246D01*
X6299577Y-15647246D02*
X6299577Y-15704388D01*
X6299577Y-15704388D02*
X6290053Y-15723436D01*
X6290053Y-15723436D02*
X6280530Y-15732960D01*
X6280530Y-15732960D02*
X6261482Y-15742484D01*
X6261482Y-15742484D02*
X6232910Y-15742484D01*
X6413863Y-15742484D02*
X6394815Y-15732960D01*
X6394815Y-15732960D02*
X6385291Y-15713912D01*
X6385291Y-15713912D02*
X6385291Y-15542484D01*
X6566244Y-15732960D02*
X6547196Y-15742484D01*
X6547196Y-15742484D02*
X6509101Y-15742484D01*
X6509101Y-15742484D02*
X6490053Y-15732960D01*
X6490053Y-15732960D02*
X6480530Y-15713912D01*
X6480530Y-15713912D02*
X6480530Y-15637722D01*
X6480530Y-15637722D02*
X6490053Y-15618674D01*
X6490053Y-15618674D02*
X6509101Y-15609150D01*
X6509101Y-15609150D02*
X6547196Y-15609150D01*
X6547196Y-15609150D02*
X6566244Y-15618674D01*
X6566244Y-15618674D02*
X6575768Y-15637722D01*
X6575768Y-15637722D02*
X6575768Y-15656769D01*
X6575768Y-15656769D02*
X6480530Y-15675817D01*
X6651958Y-15732960D02*
X6671006Y-15742484D01*
X6671006Y-15742484D02*
X6709101Y-15742484D01*
X6709101Y-15742484D02*
X6728149Y-15732960D01*
X6728149Y-15732960D02*
X6737672Y-15713912D01*
X6737672Y-15713912D02*
X6737672Y-15704388D01*
X6737672Y-15704388D02*
X6728149Y-15685341D01*
X6728149Y-15685341D02*
X6709101Y-15675817D01*
X6709101Y-15675817D02*
X6680530Y-15675817D01*
X6680530Y-15675817D02*
X6661482Y-15666293D01*
X6661482Y-15666293D02*
X6651958Y-15647246D01*
X6651958Y-15647246D02*
X6651958Y-15637722D01*
X6651958Y-15637722D02*
X6661482Y-15618674D01*
X6661482Y-15618674D02*
X6680530Y-15609150D01*
X6680530Y-15609150D02*
X6709101Y-15609150D01*
X6709101Y-15609150D02*
X6728149Y-15618674D01*
X6804339Y-15818674D02*
X6813863Y-15809150D01*
X6813863Y-15809150D02*
X6832911Y-15780579D01*
X6832911Y-15780579D02*
X6842434Y-15761531D01*
X6842434Y-15761531D02*
X6851958Y-15732960D01*
X6851958Y-15732960D02*
X6861482Y-15685341D01*
X6861482Y-15685341D02*
X6861482Y-15647246D01*
X6861482Y-15647246D02*
X6851958Y-15599627D01*
X6851958Y-15599627D02*
X6842434Y-15571055D01*
X6842434Y-15571055D02*
X6832911Y-15552008D01*
X6832911Y-15552008D02*
X6813863Y-15523436D01*
X6813863Y-15523436D02*
X6804339Y-15513912D01*
D12*
X1838800Y-15915000D02*
G75*
G03*
X1838800Y-15915000I-20000J0D01*
G01*
D11*
X2137672Y-15806484D02*
X2156720Y-15806484D01*
X2156720Y-15806484D02*
X2175767Y-15816008D01*
X2175767Y-15816008D02*
X2185291Y-15825531D01*
X2185291Y-15825531D02*
X2194815Y-15844579D01*
X2194815Y-15844579D02*
X2204339Y-15882674D01*
X2204339Y-15882674D02*
X2204339Y-15930293D01*
X2204339Y-15930293D02*
X2194815Y-15968388D01*
X2194815Y-15968388D02*
X2185291Y-15987436D01*
X2185291Y-15987436D02*
X2175767Y-15996960D01*
X2175767Y-15996960D02*
X2156720Y-16006484D01*
X2156720Y-16006484D02*
X2137672Y-16006484D01*
X2137672Y-16006484D02*
X2118624Y-15996960D01*
X2118624Y-15996960D02*
X2109101Y-15987436D01*
X2109101Y-15987436D02*
X2099577Y-15968388D01*
X2099577Y-15968388D02*
X2090053Y-15930293D01*
X2090053Y-15930293D02*
X2090053Y-15882674D01*
X2090053Y-15882674D02*
X2099577Y-15844579D01*
X2099577Y-15844579D02*
X2109101Y-15825531D01*
X2109101Y-15825531D02*
X2118624Y-15816008D01*
X2118624Y-15816008D02*
X2137672Y-15806484D01*
X2290053Y-15987436D02*
X2299577Y-15996960D01*
X2299577Y-15996960D02*
X2290053Y-16006484D01*
X2290053Y-16006484D02*
X2280529Y-15996960D01*
X2280529Y-15996960D02*
X2290053Y-15987436D01*
X2290053Y-15987436D02*
X2290053Y-16006484D01*
X2471005Y-15873150D02*
X2471005Y-16006484D01*
X2423386Y-15796960D02*
X2375767Y-15939817D01*
X2375767Y-15939817D02*
X2499577Y-15939817D01*
X2613863Y-15806484D02*
X2632910Y-15806484D01*
X2632910Y-15806484D02*
X2651958Y-15816008D01*
X2651958Y-15816008D02*
X2661482Y-15825531D01*
X2661482Y-15825531D02*
X2671005Y-15844579D01*
X2671005Y-15844579D02*
X2680529Y-15882674D01*
X2680529Y-15882674D02*
X2680529Y-15930293D01*
X2680529Y-15930293D02*
X2671005Y-15968388D01*
X2671005Y-15968388D02*
X2661482Y-15987436D01*
X2661482Y-15987436D02*
X2651958Y-15996960D01*
X2651958Y-15996960D02*
X2632910Y-16006484D01*
X2632910Y-16006484D02*
X2613863Y-16006484D01*
X2613863Y-16006484D02*
X2594815Y-15996960D01*
X2594815Y-15996960D02*
X2585291Y-15987436D01*
X2585291Y-15987436D02*
X2575767Y-15968388D01*
X2575767Y-15968388D02*
X2566244Y-15930293D01*
X2566244Y-15930293D02*
X2566244Y-15882674D01*
X2566244Y-15882674D02*
X2575767Y-15844579D01*
X2575767Y-15844579D02*
X2585291Y-15825531D01*
X2585291Y-15825531D02*
X2594815Y-15816008D01*
X2594815Y-15816008D02*
X2613863Y-15806484D01*
X2804339Y-15806484D02*
X2823386Y-15806484D01*
X2823386Y-15806484D02*
X2842434Y-15816008D01*
X2842434Y-15816008D02*
X2851958Y-15825531D01*
X2851958Y-15825531D02*
X2861482Y-15844579D01*
X2861482Y-15844579D02*
X2871005Y-15882674D01*
X2871005Y-15882674D02*
X2871005Y-15930293D01*
X2871005Y-15930293D02*
X2861482Y-15968388D01*
X2861482Y-15968388D02*
X2851958Y-15987436D01*
X2851958Y-15987436D02*
X2842434Y-15996960D01*
X2842434Y-15996960D02*
X2823386Y-16006484D01*
X2823386Y-16006484D02*
X2804339Y-16006484D01*
X2804339Y-16006484D02*
X2785291Y-15996960D01*
X2785291Y-15996960D02*
X2775767Y-15987436D01*
X2775767Y-15987436D02*
X2766244Y-15968388D01*
X2766244Y-15968388D02*
X2756720Y-15930293D01*
X2756720Y-15930293D02*
X2756720Y-15882674D01*
X2756720Y-15882674D02*
X2766244Y-15844579D01*
X2766244Y-15844579D02*
X2775767Y-15825531D01*
X2775767Y-15825531D02*
X2785291Y-15816008D01*
X2785291Y-15816008D02*
X2804339Y-15806484D01*
X2956720Y-16006484D02*
X2956720Y-15873150D01*
X2956720Y-15892198D02*
X2966243Y-15882674D01*
X2966243Y-15882674D02*
X2985291Y-15873150D01*
X2985291Y-15873150D02*
X3013863Y-15873150D01*
X3013863Y-15873150D02*
X3032910Y-15882674D01*
X3032910Y-15882674D02*
X3042434Y-15901722D01*
X3042434Y-15901722D02*
X3042434Y-16006484D01*
X3042434Y-15901722D02*
X3051958Y-15882674D01*
X3051958Y-15882674D02*
X3071005Y-15873150D01*
X3071005Y-15873150D02*
X3099577Y-15873150D01*
X3099577Y-15873150D02*
X3118624Y-15882674D01*
X3118624Y-15882674D02*
X3128148Y-15901722D01*
X3128148Y-15901722D02*
X3128148Y-16006484D01*
X3223386Y-16006484D02*
X3223386Y-15873150D01*
X3223386Y-15892198D02*
X3232910Y-15882674D01*
X3232910Y-15882674D02*
X3251958Y-15873150D01*
X3251958Y-15873150D02*
X3280529Y-15873150D01*
X3280529Y-15873150D02*
X3299577Y-15882674D01*
X3299577Y-15882674D02*
X3309101Y-15901722D01*
X3309101Y-15901722D02*
X3309101Y-16006484D01*
X3309101Y-15901722D02*
X3318624Y-15882674D01*
X3318624Y-15882674D02*
X3337672Y-15873150D01*
X3337672Y-15873150D02*
X3366243Y-15873150D01*
X3366243Y-15873150D02*
X3385291Y-15882674D01*
X3385291Y-15882674D02*
X3394815Y-15901722D01*
X3394815Y-15901722D02*
X3394815Y-16006484D01*
X3785291Y-15796960D02*
X3613863Y-16054103D01*
X4042434Y-15806484D02*
X4061482Y-15806484D01*
X4061482Y-15806484D02*
X4080529Y-15816008D01*
X4080529Y-15816008D02*
X4090053Y-15825531D01*
X4090053Y-15825531D02*
X4099577Y-15844579D01*
X4099577Y-15844579D02*
X4109101Y-15882674D01*
X4109101Y-15882674D02*
X4109101Y-15930293D01*
X4109101Y-15930293D02*
X4099577Y-15968388D01*
X4099577Y-15968388D02*
X4090053Y-15987436D01*
X4090053Y-15987436D02*
X4080529Y-15996960D01*
X4080529Y-15996960D02*
X4061482Y-16006484D01*
X4061482Y-16006484D02*
X4042434Y-16006484D01*
X4042434Y-16006484D02*
X4023386Y-15996960D01*
X4023386Y-15996960D02*
X4013863Y-15987436D01*
X4013863Y-15987436D02*
X4004339Y-15968388D01*
X4004339Y-15968388D02*
X3994815Y-15930293D01*
X3994815Y-15930293D02*
X3994815Y-15882674D01*
X3994815Y-15882674D02*
X4004339Y-15844579D01*
X4004339Y-15844579D02*
X4013863Y-15825531D01*
X4013863Y-15825531D02*
X4023386Y-15816008D01*
X4023386Y-15816008D02*
X4042434Y-15806484D01*
X4194815Y-15987436D02*
X4204339Y-15996960D01*
X4204339Y-15996960D02*
X4194815Y-16006484D01*
X4194815Y-16006484D02*
X4185291Y-15996960D01*
X4185291Y-15996960D02*
X4194815Y-15987436D01*
X4194815Y-15987436D02*
X4194815Y-16006484D01*
X4328148Y-15806484D02*
X4347196Y-15806484D01*
X4347196Y-15806484D02*
X4366244Y-15816008D01*
X4366244Y-15816008D02*
X4375768Y-15825531D01*
X4375768Y-15825531D02*
X4385291Y-15844579D01*
X4385291Y-15844579D02*
X4394815Y-15882674D01*
X4394815Y-15882674D02*
X4394815Y-15930293D01*
X4394815Y-15930293D02*
X4385291Y-15968388D01*
X4385291Y-15968388D02*
X4375768Y-15987436D01*
X4375768Y-15987436D02*
X4366244Y-15996960D01*
X4366244Y-15996960D02*
X4347196Y-16006484D01*
X4347196Y-16006484D02*
X4328148Y-16006484D01*
X4328148Y-16006484D02*
X4309101Y-15996960D01*
X4309101Y-15996960D02*
X4299577Y-15987436D01*
X4299577Y-15987436D02*
X4290053Y-15968388D01*
X4290053Y-15968388D02*
X4280529Y-15930293D01*
X4280529Y-15930293D02*
X4280529Y-15882674D01*
X4280529Y-15882674D02*
X4290053Y-15844579D01*
X4290053Y-15844579D02*
X4299577Y-15825531D01*
X4299577Y-15825531D02*
X4309101Y-15816008D01*
X4309101Y-15816008D02*
X4328148Y-15806484D01*
X4585291Y-16006484D02*
X4471006Y-16006484D01*
X4528148Y-16006484D02*
X4528148Y-15806484D01*
X4528148Y-15806484D02*
X4509101Y-15835055D01*
X4509101Y-15835055D02*
X4490053Y-15854103D01*
X4490053Y-15854103D02*
X4471006Y-15863627D01*
X4766244Y-15806484D02*
X4671006Y-15806484D01*
X4671006Y-15806484D02*
X4661482Y-15901722D01*
X4661482Y-15901722D02*
X4671006Y-15892198D01*
X4671006Y-15892198D02*
X4690053Y-15882674D01*
X4690053Y-15882674D02*
X4737672Y-15882674D01*
X4737672Y-15882674D02*
X4756720Y-15892198D01*
X4756720Y-15892198D02*
X4766244Y-15901722D01*
X4766244Y-15901722D02*
X4775768Y-15920769D01*
X4775768Y-15920769D02*
X4775768Y-15968388D01*
X4775768Y-15968388D02*
X4766244Y-15987436D01*
X4766244Y-15987436D02*
X4756720Y-15996960D01*
X4756720Y-15996960D02*
X4737672Y-16006484D01*
X4737672Y-16006484D02*
X4690053Y-16006484D01*
X4690053Y-16006484D02*
X4671006Y-15996960D01*
X4671006Y-15996960D02*
X4661482Y-15987436D01*
X4842434Y-15806484D02*
X4975768Y-15806484D01*
X4975768Y-15806484D02*
X4890053Y-16006484D01*
X5042434Y-15806484D02*
X5042434Y-15844579D01*
X5118625Y-15806484D02*
X5118625Y-15844579D01*
X5413863Y-16082674D02*
X5404339Y-16073150D01*
X5404339Y-16073150D02*
X5385291Y-16044579D01*
X5385291Y-16044579D02*
X5375768Y-16025531D01*
X5375768Y-16025531D02*
X5366244Y-15996960D01*
X5366244Y-15996960D02*
X5356720Y-15949341D01*
X5356720Y-15949341D02*
X5356720Y-15911246D01*
X5356720Y-15911246D02*
X5366244Y-15863627D01*
X5366244Y-15863627D02*
X5375768Y-15835055D01*
X5375768Y-15835055D02*
X5385291Y-15816008D01*
X5385291Y-15816008D02*
X5404339Y-15787436D01*
X5404339Y-15787436D02*
X5413863Y-15777912D01*
X5594815Y-16006484D02*
X5480530Y-16006484D01*
X5537672Y-16006484D02*
X5537672Y-15806484D01*
X5537672Y-15806484D02*
X5518625Y-15835055D01*
X5518625Y-15835055D02*
X5499577Y-15854103D01*
X5499577Y-15854103D02*
X5480530Y-15863627D01*
X5766244Y-15873150D02*
X5766244Y-16006484D01*
X5718625Y-15796960D02*
X5671006Y-15939817D01*
X5671006Y-15939817D02*
X5794815Y-15939817D01*
X6023387Y-16006484D02*
X6023387Y-15806484D01*
X6109101Y-16006484D02*
X6109101Y-15901722D01*
X6109101Y-15901722D02*
X6099577Y-15882674D01*
X6099577Y-15882674D02*
X6080530Y-15873150D01*
X6080530Y-15873150D02*
X6051958Y-15873150D01*
X6051958Y-15873150D02*
X6032910Y-15882674D01*
X6032910Y-15882674D02*
X6023387Y-15892198D01*
X6232910Y-16006484D02*
X6213863Y-15996960D01*
X6213863Y-15996960D02*
X6204339Y-15987436D01*
X6204339Y-15987436D02*
X6194815Y-15968388D01*
X6194815Y-15968388D02*
X6194815Y-15911246D01*
X6194815Y-15911246D02*
X6204339Y-15892198D01*
X6204339Y-15892198D02*
X6213863Y-15882674D01*
X6213863Y-15882674D02*
X6232910Y-15873150D01*
X6232910Y-15873150D02*
X6261482Y-15873150D01*
X6261482Y-15873150D02*
X6280530Y-15882674D01*
X6280530Y-15882674D02*
X6290053Y-15892198D01*
X6290053Y-15892198D02*
X6299577Y-15911246D01*
X6299577Y-15911246D02*
X6299577Y-15968388D01*
X6299577Y-15968388D02*
X6290053Y-15987436D01*
X6290053Y-15987436D02*
X6280530Y-15996960D01*
X6280530Y-15996960D02*
X6261482Y-16006484D01*
X6261482Y-16006484D02*
X6232910Y-16006484D01*
X6413863Y-16006484D02*
X6394815Y-15996960D01*
X6394815Y-15996960D02*
X6385291Y-15977912D01*
X6385291Y-15977912D02*
X6385291Y-15806484D01*
X6566244Y-15996960D02*
X6547196Y-16006484D01*
X6547196Y-16006484D02*
X6509101Y-16006484D01*
X6509101Y-16006484D02*
X6490053Y-15996960D01*
X6490053Y-15996960D02*
X6480530Y-15977912D01*
X6480530Y-15977912D02*
X6480530Y-15901722D01*
X6480530Y-15901722D02*
X6490053Y-15882674D01*
X6490053Y-15882674D02*
X6509101Y-15873150D01*
X6509101Y-15873150D02*
X6547196Y-15873150D01*
X6547196Y-15873150D02*
X6566244Y-15882674D01*
X6566244Y-15882674D02*
X6575768Y-15901722D01*
X6575768Y-15901722D02*
X6575768Y-15920769D01*
X6575768Y-15920769D02*
X6480530Y-15939817D01*
X6651958Y-15996960D02*
X6671006Y-16006484D01*
X6671006Y-16006484D02*
X6709101Y-16006484D01*
X6709101Y-16006484D02*
X6728149Y-15996960D01*
X6728149Y-15996960D02*
X6737672Y-15977912D01*
X6737672Y-15977912D02*
X6737672Y-15968388D01*
X6737672Y-15968388D02*
X6728149Y-15949341D01*
X6728149Y-15949341D02*
X6709101Y-15939817D01*
X6709101Y-15939817D02*
X6680530Y-15939817D01*
X6680530Y-15939817D02*
X6661482Y-15930293D01*
X6661482Y-15930293D02*
X6651958Y-15911246D01*
X6651958Y-15911246D02*
X6651958Y-15901722D01*
X6651958Y-15901722D02*
X6661482Y-15882674D01*
X6661482Y-15882674D02*
X6680530Y-15873150D01*
X6680530Y-15873150D02*
X6709101Y-15873150D01*
X6709101Y-15873150D02*
X6728149Y-15882674D01*
X6804339Y-16082674D02*
X6813863Y-16073150D01*
X6813863Y-16073150D02*
X6832911Y-16044579D01*
X6832911Y-16044579D02*
X6842434Y-16025531D01*
X6842434Y-16025531D02*
X6851958Y-15996960D01*
X6851958Y-15996960D02*
X6861482Y-15949341D01*
X6861482Y-15949341D02*
X6861482Y-15911246D01*
X6861482Y-15911246D02*
X6851958Y-15863627D01*
X6851958Y-15863627D02*
X6842434Y-15835055D01*
X6842434Y-15835055D02*
X6832911Y-15816008D01*
X6832911Y-15816008D02*
X6813863Y-15787436D01*
X6813863Y-15787436D02*
X6804339Y-15777912D01*
D13*
X1808800Y-16149000D02*
X1808800Y-16209000D01*
X1778800Y-16179000D02*
X1838800Y-16179000D01*
D11*
X2137672Y-16070484D02*
X2156720Y-16070484D01*
X2156720Y-16070484D02*
X2175767Y-16080008D01*
X2175767Y-16080008D02*
X2185291Y-16089531D01*
X2185291Y-16089531D02*
X2194815Y-16108579D01*
X2194815Y-16108579D02*
X2204339Y-16146674D01*
X2204339Y-16146674D02*
X2204339Y-16194293D01*
X2204339Y-16194293D02*
X2194815Y-16232388D01*
X2194815Y-16232388D02*
X2185291Y-16251436D01*
X2185291Y-16251436D02*
X2175767Y-16260960D01*
X2175767Y-16260960D02*
X2156720Y-16270484D01*
X2156720Y-16270484D02*
X2137672Y-16270484D01*
X2137672Y-16270484D02*
X2118624Y-16260960D01*
X2118624Y-16260960D02*
X2109101Y-16251436D01*
X2109101Y-16251436D02*
X2099577Y-16232388D01*
X2099577Y-16232388D02*
X2090053Y-16194293D01*
X2090053Y-16194293D02*
X2090053Y-16146674D01*
X2090053Y-16146674D02*
X2099577Y-16108579D01*
X2099577Y-16108579D02*
X2109101Y-16089531D01*
X2109101Y-16089531D02*
X2118624Y-16080008D01*
X2118624Y-16080008D02*
X2137672Y-16070484D01*
X2290053Y-16251436D02*
X2299577Y-16260960D01*
X2299577Y-16260960D02*
X2290053Y-16270484D01*
X2290053Y-16270484D02*
X2280529Y-16260960D01*
X2280529Y-16260960D02*
X2290053Y-16251436D01*
X2290053Y-16251436D02*
X2290053Y-16270484D01*
X2471005Y-16070484D02*
X2432910Y-16070484D01*
X2432910Y-16070484D02*
X2413863Y-16080008D01*
X2413863Y-16080008D02*
X2404339Y-16089531D01*
X2404339Y-16089531D02*
X2385291Y-16118103D01*
X2385291Y-16118103D02*
X2375767Y-16156198D01*
X2375767Y-16156198D02*
X2375767Y-16232388D01*
X2375767Y-16232388D02*
X2385291Y-16251436D01*
X2385291Y-16251436D02*
X2394815Y-16260960D01*
X2394815Y-16260960D02*
X2413863Y-16270484D01*
X2413863Y-16270484D02*
X2451958Y-16270484D01*
X2451958Y-16270484D02*
X2471005Y-16260960D01*
X2471005Y-16260960D02*
X2480529Y-16251436D01*
X2480529Y-16251436D02*
X2490053Y-16232388D01*
X2490053Y-16232388D02*
X2490053Y-16184769D01*
X2490053Y-16184769D02*
X2480529Y-16165722D01*
X2480529Y-16165722D02*
X2471005Y-16156198D01*
X2471005Y-16156198D02*
X2451958Y-16146674D01*
X2451958Y-16146674D02*
X2413863Y-16146674D01*
X2413863Y-16146674D02*
X2394815Y-16156198D01*
X2394815Y-16156198D02*
X2385291Y-16165722D01*
X2385291Y-16165722D02*
X2375767Y-16184769D01*
X2613863Y-16070484D02*
X2632910Y-16070484D01*
X2632910Y-16070484D02*
X2651958Y-16080008D01*
X2651958Y-16080008D02*
X2661482Y-16089531D01*
X2661482Y-16089531D02*
X2671005Y-16108579D01*
X2671005Y-16108579D02*
X2680529Y-16146674D01*
X2680529Y-16146674D02*
X2680529Y-16194293D01*
X2680529Y-16194293D02*
X2671005Y-16232388D01*
X2671005Y-16232388D02*
X2661482Y-16251436D01*
X2661482Y-16251436D02*
X2651958Y-16260960D01*
X2651958Y-16260960D02*
X2632910Y-16270484D01*
X2632910Y-16270484D02*
X2613863Y-16270484D01*
X2613863Y-16270484D02*
X2594815Y-16260960D01*
X2594815Y-16260960D02*
X2585291Y-16251436D01*
X2585291Y-16251436D02*
X2575767Y-16232388D01*
X2575767Y-16232388D02*
X2566244Y-16194293D01*
X2566244Y-16194293D02*
X2566244Y-16146674D01*
X2566244Y-16146674D02*
X2575767Y-16108579D01*
X2575767Y-16108579D02*
X2585291Y-16089531D01*
X2585291Y-16089531D02*
X2594815Y-16080008D01*
X2594815Y-16080008D02*
X2613863Y-16070484D01*
X2804339Y-16070484D02*
X2823386Y-16070484D01*
X2823386Y-16070484D02*
X2842434Y-16080008D01*
X2842434Y-16080008D02*
X2851958Y-16089531D01*
X2851958Y-16089531D02*
X2861482Y-16108579D01*
X2861482Y-16108579D02*
X2871005Y-16146674D01*
X2871005Y-16146674D02*
X2871005Y-16194293D01*
X2871005Y-16194293D02*
X2861482Y-16232388D01*
X2861482Y-16232388D02*
X2851958Y-16251436D01*
X2851958Y-16251436D02*
X2842434Y-16260960D01*
X2842434Y-16260960D02*
X2823386Y-16270484D01*
X2823386Y-16270484D02*
X2804339Y-16270484D01*
X2804339Y-16270484D02*
X2785291Y-16260960D01*
X2785291Y-16260960D02*
X2775767Y-16251436D01*
X2775767Y-16251436D02*
X2766244Y-16232388D01*
X2766244Y-16232388D02*
X2756720Y-16194293D01*
X2756720Y-16194293D02*
X2756720Y-16146674D01*
X2756720Y-16146674D02*
X2766244Y-16108579D01*
X2766244Y-16108579D02*
X2775767Y-16089531D01*
X2775767Y-16089531D02*
X2785291Y-16080008D01*
X2785291Y-16080008D02*
X2804339Y-16070484D01*
X2956720Y-16270484D02*
X2956720Y-16137150D01*
X2956720Y-16156198D02*
X2966243Y-16146674D01*
X2966243Y-16146674D02*
X2985291Y-16137150D01*
X2985291Y-16137150D02*
X3013863Y-16137150D01*
X3013863Y-16137150D02*
X3032910Y-16146674D01*
X3032910Y-16146674D02*
X3042434Y-16165722D01*
X3042434Y-16165722D02*
X3042434Y-16270484D01*
X3042434Y-16165722D02*
X3051958Y-16146674D01*
X3051958Y-16146674D02*
X3071005Y-16137150D01*
X3071005Y-16137150D02*
X3099577Y-16137150D01*
X3099577Y-16137150D02*
X3118624Y-16146674D01*
X3118624Y-16146674D02*
X3128148Y-16165722D01*
X3128148Y-16165722D02*
X3128148Y-16270484D01*
X3223386Y-16270484D02*
X3223386Y-16137150D01*
X3223386Y-16156198D02*
X3232910Y-16146674D01*
X3232910Y-16146674D02*
X3251958Y-16137150D01*
X3251958Y-16137150D02*
X3280529Y-16137150D01*
X3280529Y-16137150D02*
X3299577Y-16146674D01*
X3299577Y-16146674D02*
X3309101Y-16165722D01*
X3309101Y-16165722D02*
X3309101Y-16270484D01*
X3309101Y-16165722D02*
X3318624Y-16146674D01*
X3318624Y-16146674D02*
X3337672Y-16137150D01*
X3337672Y-16137150D02*
X3366243Y-16137150D01*
X3366243Y-16137150D02*
X3385291Y-16146674D01*
X3385291Y-16146674D02*
X3394815Y-16165722D01*
X3394815Y-16165722D02*
X3394815Y-16270484D01*
X3785291Y-16060960D02*
X3613863Y-16318103D01*
X4042434Y-16070484D02*
X4061482Y-16070484D01*
X4061482Y-16070484D02*
X4080529Y-16080008D01*
X4080529Y-16080008D02*
X4090053Y-16089531D01*
X4090053Y-16089531D02*
X4099577Y-16108579D01*
X4099577Y-16108579D02*
X4109101Y-16146674D01*
X4109101Y-16146674D02*
X4109101Y-16194293D01*
X4109101Y-16194293D02*
X4099577Y-16232388D01*
X4099577Y-16232388D02*
X4090053Y-16251436D01*
X4090053Y-16251436D02*
X4080529Y-16260960D01*
X4080529Y-16260960D02*
X4061482Y-16270484D01*
X4061482Y-16270484D02*
X4042434Y-16270484D01*
X4042434Y-16270484D02*
X4023386Y-16260960D01*
X4023386Y-16260960D02*
X4013863Y-16251436D01*
X4013863Y-16251436D02*
X4004339Y-16232388D01*
X4004339Y-16232388D02*
X3994815Y-16194293D01*
X3994815Y-16194293D02*
X3994815Y-16146674D01*
X3994815Y-16146674D02*
X4004339Y-16108579D01*
X4004339Y-16108579D02*
X4013863Y-16089531D01*
X4013863Y-16089531D02*
X4023386Y-16080008D01*
X4023386Y-16080008D02*
X4042434Y-16070484D01*
X4194815Y-16251436D02*
X4204339Y-16260960D01*
X4204339Y-16260960D02*
X4194815Y-16270484D01*
X4194815Y-16270484D02*
X4185291Y-16260960D01*
X4185291Y-16260960D02*
X4194815Y-16251436D01*
X4194815Y-16251436D02*
X4194815Y-16270484D01*
X4328148Y-16070484D02*
X4347196Y-16070484D01*
X4347196Y-16070484D02*
X4366244Y-16080008D01*
X4366244Y-16080008D02*
X4375768Y-16089531D01*
X4375768Y-16089531D02*
X4385291Y-16108579D01*
X4385291Y-16108579D02*
X4394815Y-16146674D01*
X4394815Y-16146674D02*
X4394815Y-16194293D01*
X4394815Y-16194293D02*
X4385291Y-16232388D01*
X4385291Y-16232388D02*
X4375768Y-16251436D01*
X4375768Y-16251436D02*
X4366244Y-16260960D01*
X4366244Y-16260960D02*
X4347196Y-16270484D01*
X4347196Y-16270484D02*
X4328148Y-16270484D01*
X4328148Y-16270484D02*
X4309101Y-16260960D01*
X4309101Y-16260960D02*
X4299577Y-16251436D01*
X4299577Y-16251436D02*
X4290053Y-16232388D01*
X4290053Y-16232388D02*
X4280529Y-16194293D01*
X4280529Y-16194293D02*
X4280529Y-16146674D01*
X4280529Y-16146674D02*
X4290053Y-16108579D01*
X4290053Y-16108579D02*
X4299577Y-16089531D01*
X4299577Y-16089531D02*
X4309101Y-16080008D01*
X4309101Y-16080008D02*
X4328148Y-16070484D01*
X4471006Y-16089531D02*
X4480529Y-16080008D01*
X4480529Y-16080008D02*
X4499577Y-16070484D01*
X4499577Y-16070484D02*
X4547196Y-16070484D01*
X4547196Y-16070484D02*
X4566244Y-16080008D01*
X4566244Y-16080008D02*
X4575768Y-16089531D01*
X4575768Y-16089531D02*
X4585291Y-16108579D01*
X4585291Y-16108579D02*
X4585291Y-16127627D01*
X4585291Y-16127627D02*
X4575768Y-16156198D01*
X4575768Y-16156198D02*
X4461482Y-16270484D01*
X4461482Y-16270484D02*
X4585291Y-16270484D01*
X4651958Y-16070484D02*
X4775768Y-16070484D01*
X4775768Y-16070484D02*
X4709101Y-16146674D01*
X4709101Y-16146674D02*
X4737672Y-16146674D01*
X4737672Y-16146674D02*
X4756720Y-16156198D01*
X4756720Y-16156198D02*
X4766244Y-16165722D01*
X4766244Y-16165722D02*
X4775768Y-16184769D01*
X4775768Y-16184769D02*
X4775768Y-16232388D01*
X4775768Y-16232388D02*
X4766244Y-16251436D01*
X4766244Y-16251436D02*
X4756720Y-16260960D01*
X4756720Y-16260960D02*
X4737672Y-16270484D01*
X4737672Y-16270484D02*
X4680529Y-16270484D01*
X4680529Y-16270484D02*
X4661482Y-16260960D01*
X4661482Y-16260960D02*
X4651958Y-16251436D01*
X4947196Y-16070484D02*
X4909101Y-16070484D01*
X4909101Y-16070484D02*
X4890053Y-16080008D01*
X4890053Y-16080008D02*
X4880529Y-16089531D01*
X4880529Y-16089531D02*
X4861482Y-16118103D01*
X4861482Y-16118103D02*
X4851958Y-16156198D01*
X4851958Y-16156198D02*
X4851958Y-16232388D01*
X4851958Y-16232388D02*
X4861482Y-16251436D01*
X4861482Y-16251436D02*
X4871006Y-16260960D01*
X4871006Y-16260960D02*
X4890053Y-16270484D01*
X4890053Y-16270484D02*
X4928149Y-16270484D01*
X4928149Y-16270484D02*
X4947196Y-16260960D01*
X4947196Y-16260960D02*
X4956720Y-16251436D01*
X4956720Y-16251436D02*
X4966244Y-16232388D01*
X4966244Y-16232388D02*
X4966244Y-16184769D01*
X4966244Y-16184769D02*
X4956720Y-16165722D01*
X4956720Y-16165722D02*
X4947196Y-16156198D01*
X4947196Y-16156198D02*
X4928149Y-16146674D01*
X4928149Y-16146674D02*
X4890053Y-16146674D01*
X4890053Y-16146674D02*
X4871006Y-16156198D01*
X4871006Y-16156198D02*
X4861482Y-16165722D01*
X4861482Y-16165722D02*
X4851958Y-16184769D01*
X5042434Y-16070484D02*
X5042434Y-16108579D01*
X5118625Y-16070484D02*
X5118625Y-16108579D01*
X5413863Y-16346674D02*
X5404339Y-16337150D01*
X5404339Y-16337150D02*
X5385291Y-16308579D01*
X5385291Y-16308579D02*
X5375768Y-16289531D01*
X5375768Y-16289531D02*
X5366244Y-16260960D01*
X5366244Y-16260960D02*
X5356720Y-16213341D01*
X5356720Y-16213341D02*
X5356720Y-16175246D01*
X5356720Y-16175246D02*
X5366244Y-16127627D01*
X5366244Y-16127627D02*
X5375768Y-16099055D01*
X5375768Y-16099055D02*
X5385291Y-16080008D01*
X5385291Y-16080008D02*
X5404339Y-16051436D01*
X5404339Y-16051436D02*
X5413863Y-16041912D01*
X5528149Y-16070484D02*
X5547196Y-16070484D01*
X5547196Y-16070484D02*
X5566244Y-16080008D01*
X5566244Y-16080008D02*
X5575768Y-16089531D01*
X5575768Y-16089531D02*
X5585291Y-16108579D01*
X5585291Y-16108579D02*
X5594815Y-16146674D01*
X5594815Y-16146674D02*
X5594815Y-16194293D01*
X5594815Y-16194293D02*
X5585291Y-16232388D01*
X5585291Y-16232388D02*
X5575768Y-16251436D01*
X5575768Y-16251436D02*
X5566244Y-16260960D01*
X5566244Y-16260960D02*
X5547196Y-16270484D01*
X5547196Y-16270484D02*
X5528149Y-16270484D01*
X5528149Y-16270484D02*
X5509101Y-16260960D01*
X5509101Y-16260960D02*
X5499577Y-16251436D01*
X5499577Y-16251436D02*
X5490053Y-16232388D01*
X5490053Y-16232388D02*
X5480530Y-16194293D01*
X5480530Y-16194293D02*
X5480530Y-16146674D01*
X5480530Y-16146674D02*
X5490053Y-16108579D01*
X5490053Y-16108579D02*
X5499577Y-16089531D01*
X5499577Y-16089531D02*
X5509101Y-16080008D01*
X5509101Y-16080008D02*
X5528149Y-16070484D01*
X5832910Y-16270484D02*
X5832910Y-16070484D01*
X5918625Y-16270484D02*
X5918625Y-16165722D01*
X5918625Y-16165722D02*
X5909101Y-16146674D01*
X5909101Y-16146674D02*
X5890053Y-16137150D01*
X5890053Y-16137150D02*
X5861482Y-16137150D01*
X5861482Y-16137150D02*
X5842434Y-16146674D01*
X5842434Y-16146674D02*
X5832910Y-16156198D01*
X6042434Y-16270484D02*
X6023387Y-16260960D01*
X6023387Y-16260960D02*
X6013863Y-16251436D01*
X6013863Y-16251436D02*
X6004339Y-16232388D01*
X6004339Y-16232388D02*
X6004339Y-16175246D01*
X6004339Y-16175246D02*
X6013863Y-16156198D01*
X6013863Y-16156198D02*
X6023387Y-16146674D01*
X6023387Y-16146674D02*
X6042434Y-16137150D01*
X6042434Y-16137150D02*
X6071006Y-16137150D01*
X6071006Y-16137150D02*
X6090053Y-16146674D01*
X6090053Y-16146674D02*
X6099577Y-16156198D01*
X6099577Y-16156198D02*
X6109101Y-16175246D01*
X6109101Y-16175246D02*
X6109101Y-16232388D01*
X6109101Y-16232388D02*
X6099577Y-16251436D01*
X6099577Y-16251436D02*
X6090053Y-16260960D01*
X6090053Y-16260960D02*
X6071006Y-16270484D01*
X6071006Y-16270484D02*
X6042434Y-16270484D01*
X6223387Y-16270484D02*
X6204339Y-16260960D01*
X6204339Y-16260960D02*
X6194815Y-16241912D01*
X6194815Y-16241912D02*
X6194815Y-16070484D01*
X6375768Y-16260960D02*
X6356720Y-16270484D01*
X6356720Y-16270484D02*
X6318625Y-16270484D01*
X6318625Y-16270484D02*
X6299577Y-16260960D01*
X6299577Y-16260960D02*
X6290053Y-16241912D01*
X6290053Y-16241912D02*
X6290053Y-16165722D01*
X6290053Y-16165722D02*
X6299577Y-16146674D01*
X6299577Y-16146674D02*
X6318625Y-16137150D01*
X6318625Y-16137150D02*
X6356720Y-16137150D01*
X6356720Y-16137150D02*
X6375768Y-16146674D01*
X6375768Y-16146674D02*
X6385291Y-16165722D01*
X6385291Y-16165722D02*
X6385291Y-16184769D01*
X6385291Y-16184769D02*
X6290053Y-16203817D01*
X6461482Y-16260960D02*
X6480530Y-16270484D01*
X6480530Y-16270484D02*
X6518625Y-16270484D01*
X6518625Y-16270484D02*
X6537672Y-16260960D01*
X6537672Y-16260960D02*
X6547196Y-16241912D01*
X6547196Y-16241912D02*
X6547196Y-16232388D01*
X6547196Y-16232388D02*
X6537672Y-16213341D01*
X6537672Y-16213341D02*
X6518625Y-16203817D01*
X6518625Y-16203817D02*
X6490053Y-16203817D01*
X6490053Y-16203817D02*
X6471006Y-16194293D01*
X6471006Y-16194293D02*
X6461482Y-16175246D01*
X6461482Y-16175246D02*
X6461482Y-16165722D01*
X6461482Y-16165722D02*
X6471006Y-16146674D01*
X6471006Y-16146674D02*
X6490053Y-16137150D01*
X6490053Y-16137150D02*
X6518625Y-16137150D01*
X6518625Y-16137150D02*
X6537672Y-16146674D01*
X6785292Y-16194293D02*
X6937673Y-16194293D01*
X6861482Y-16270484D02*
X6861482Y-16118103D01*
X7271006Y-16137150D02*
X7271006Y-16270484D01*
X7223387Y-16060960D02*
X7175768Y-16203817D01*
X7175768Y-16203817D02*
X7299577Y-16203817D01*
X7518625Y-16260960D02*
X7537673Y-16270484D01*
X7537673Y-16270484D02*
X7575768Y-16270484D01*
X7575768Y-16270484D02*
X7594815Y-16260960D01*
X7594815Y-16260960D02*
X7604339Y-16241912D01*
X7604339Y-16241912D02*
X7604339Y-16232388D01*
X7604339Y-16232388D02*
X7594815Y-16213341D01*
X7594815Y-16213341D02*
X7575768Y-16203817D01*
X7575768Y-16203817D02*
X7547196Y-16203817D01*
X7547196Y-16203817D02*
X7528149Y-16194293D01*
X7528149Y-16194293D02*
X7518625Y-16175246D01*
X7518625Y-16175246D02*
X7518625Y-16165722D01*
X7518625Y-16165722D02*
X7528149Y-16146674D01*
X7528149Y-16146674D02*
X7547196Y-16137150D01*
X7547196Y-16137150D02*
X7575768Y-16137150D01*
X7575768Y-16137150D02*
X7594815Y-16146674D01*
X7718625Y-16270484D02*
X7699577Y-16260960D01*
X7699577Y-16260960D02*
X7690054Y-16241912D01*
X7690054Y-16241912D02*
X7690054Y-16070484D01*
X7823387Y-16270484D02*
X7804339Y-16260960D01*
X7804339Y-16260960D02*
X7794815Y-16251436D01*
X7794815Y-16251436D02*
X7785292Y-16232388D01*
X7785292Y-16232388D02*
X7785292Y-16175246D01*
X7785292Y-16175246D02*
X7794815Y-16156198D01*
X7794815Y-16156198D02*
X7804339Y-16146674D01*
X7804339Y-16146674D02*
X7823387Y-16137150D01*
X7823387Y-16137150D02*
X7851958Y-16137150D01*
X7851958Y-16137150D02*
X7871006Y-16146674D01*
X7871006Y-16146674D02*
X7880530Y-16156198D01*
X7880530Y-16156198D02*
X7890054Y-16175246D01*
X7890054Y-16175246D02*
X7890054Y-16232388D01*
X7890054Y-16232388D02*
X7880530Y-16251436D01*
X7880530Y-16251436D02*
X7871006Y-16260960D01*
X7871006Y-16260960D02*
X7851958Y-16270484D01*
X7851958Y-16270484D02*
X7823387Y-16270484D01*
X7947196Y-16137150D02*
X8023387Y-16137150D01*
X7975768Y-16070484D02*
X7975768Y-16241912D01*
X7975768Y-16241912D02*
X7985292Y-16260960D01*
X7985292Y-16260960D02*
X8004339Y-16270484D01*
X8004339Y-16270484D02*
X8023387Y-16270484D01*
X8080530Y-16260960D02*
X8099577Y-16270484D01*
X8099577Y-16270484D02*
X8137673Y-16270484D01*
X8137673Y-16270484D02*
X8156720Y-16260960D01*
X8156720Y-16260960D02*
X8166244Y-16241912D01*
X8166244Y-16241912D02*
X8166244Y-16232388D01*
X8166244Y-16232388D02*
X8156720Y-16213341D01*
X8156720Y-16213341D02*
X8137673Y-16203817D01*
X8137673Y-16203817D02*
X8109101Y-16203817D01*
X8109101Y-16203817D02*
X8090054Y-16194293D01*
X8090054Y-16194293D02*
X8080530Y-16175246D01*
X8080530Y-16175246D02*
X8080530Y-16165722D01*
X8080530Y-16165722D02*
X8090054Y-16146674D01*
X8090054Y-16146674D02*
X8109101Y-16137150D01*
X8109101Y-16137150D02*
X8137673Y-16137150D01*
X8137673Y-16137150D02*
X8156720Y-16146674D01*
X8232911Y-16346674D02*
X8242435Y-16337150D01*
X8242435Y-16337150D02*
X8261482Y-16308579D01*
X8261482Y-16308579D02*
X8271006Y-16289531D01*
X8271006Y-16289531D02*
X8280530Y-16260960D01*
X8280530Y-16260960D02*
X8290054Y-16213341D01*
X8290054Y-16213341D02*
X8290054Y-16175246D01*
X8290054Y-16175246D02*
X8280530Y-16127627D01*
X8280530Y-16127627D02*
X8271006Y-16099055D01*
X8271006Y-16099055D02*
X8261482Y-16080008D01*
X8261482Y-16080008D02*
X8242435Y-16051436D01*
X8242435Y-16051436D02*
X8232911Y-16041912D01*
D14*
X1827641Y-16469941D02*
X1827641Y-16416059D01*
X1773759Y-16416059D01*
X1773759Y-16469941D01*
X1827641Y-16469941D01*
D11*
X2137672Y-16334484D02*
X2156720Y-16334484D01*
X2156720Y-16334484D02*
X2175767Y-16344008D01*
X2175767Y-16344008D02*
X2185291Y-16353531D01*
X2185291Y-16353531D02*
X2194815Y-16372579D01*
X2194815Y-16372579D02*
X2204339Y-16410674D01*
X2204339Y-16410674D02*
X2204339Y-16458293D01*
X2204339Y-16458293D02*
X2194815Y-16496388D01*
X2194815Y-16496388D02*
X2185291Y-16515436D01*
X2185291Y-16515436D02*
X2175767Y-16524960D01*
X2175767Y-16524960D02*
X2156720Y-16534484D01*
X2156720Y-16534484D02*
X2137672Y-16534484D01*
X2137672Y-16534484D02*
X2118624Y-16524960D01*
X2118624Y-16524960D02*
X2109101Y-16515436D01*
X2109101Y-16515436D02*
X2099577Y-16496388D01*
X2099577Y-16496388D02*
X2090053Y-16458293D01*
X2090053Y-16458293D02*
X2090053Y-16410674D01*
X2090053Y-16410674D02*
X2099577Y-16372579D01*
X2099577Y-16372579D02*
X2109101Y-16353531D01*
X2109101Y-16353531D02*
X2118624Y-16344008D01*
X2118624Y-16344008D02*
X2137672Y-16334484D01*
X2290053Y-16515436D02*
X2299577Y-16524960D01*
X2299577Y-16524960D02*
X2290053Y-16534484D01*
X2290053Y-16534484D02*
X2280529Y-16524960D01*
X2280529Y-16524960D02*
X2290053Y-16515436D01*
X2290053Y-16515436D02*
X2290053Y-16534484D01*
X2366244Y-16334484D02*
X2499577Y-16334484D01*
X2499577Y-16334484D02*
X2413863Y-16534484D01*
X2661482Y-16334484D02*
X2623386Y-16334484D01*
X2623386Y-16334484D02*
X2604339Y-16344008D01*
X2604339Y-16344008D02*
X2594815Y-16353531D01*
X2594815Y-16353531D02*
X2575767Y-16382103D01*
X2575767Y-16382103D02*
X2566244Y-16420198D01*
X2566244Y-16420198D02*
X2566244Y-16496388D01*
X2566244Y-16496388D02*
X2575767Y-16515436D01*
X2575767Y-16515436D02*
X2585291Y-16524960D01*
X2585291Y-16524960D02*
X2604339Y-16534484D01*
X2604339Y-16534484D02*
X2642434Y-16534484D01*
X2642434Y-16534484D02*
X2661482Y-16524960D01*
X2661482Y-16524960D02*
X2671005Y-16515436D01*
X2671005Y-16515436D02*
X2680529Y-16496388D01*
X2680529Y-16496388D02*
X2680529Y-16448769D01*
X2680529Y-16448769D02*
X2671005Y-16429722D01*
X2671005Y-16429722D02*
X2661482Y-16420198D01*
X2661482Y-16420198D02*
X2642434Y-16410674D01*
X2642434Y-16410674D02*
X2604339Y-16410674D01*
X2604339Y-16410674D02*
X2585291Y-16420198D01*
X2585291Y-16420198D02*
X2575767Y-16429722D01*
X2575767Y-16429722D02*
X2566244Y-16448769D01*
X2756720Y-16353531D02*
X2766244Y-16344008D01*
X2766244Y-16344008D02*
X2785291Y-16334484D01*
X2785291Y-16334484D02*
X2832910Y-16334484D01*
X2832910Y-16334484D02*
X2851958Y-16344008D01*
X2851958Y-16344008D02*
X2861482Y-16353531D01*
X2861482Y-16353531D02*
X2871005Y-16372579D01*
X2871005Y-16372579D02*
X2871005Y-16391627D01*
X2871005Y-16391627D02*
X2861482Y-16420198D01*
X2861482Y-16420198D02*
X2747196Y-16534484D01*
X2747196Y-16534484D02*
X2871005Y-16534484D01*
X2956720Y-16534484D02*
X2956720Y-16401150D01*
X2956720Y-16420198D02*
X2966243Y-16410674D01*
X2966243Y-16410674D02*
X2985291Y-16401150D01*
X2985291Y-16401150D02*
X3013863Y-16401150D01*
X3013863Y-16401150D02*
X3032910Y-16410674D01*
X3032910Y-16410674D02*
X3042434Y-16429722D01*
X3042434Y-16429722D02*
X3042434Y-16534484D01*
X3042434Y-16429722D02*
X3051958Y-16410674D01*
X3051958Y-16410674D02*
X3071005Y-16401150D01*
X3071005Y-16401150D02*
X3099577Y-16401150D01*
X3099577Y-16401150D02*
X3118624Y-16410674D01*
X3118624Y-16410674D02*
X3128148Y-16429722D01*
X3128148Y-16429722D02*
X3128148Y-16534484D01*
X3223386Y-16534484D02*
X3223386Y-16401150D01*
X3223386Y-16420198D02*
X3232910Y-16410674D01*
X3232910Y-16410674D02*
X3251958Y-16401150D01*
X3251958Y-16401150D02*
X3280529Y-16401150D01*
X3280529Y-16401150D02*
X3299577Y-16410674D01*
X3299577Y-16410674D02*
X3309101Y-16429722D01*
X3309101Y-16429722D02*
X3309101Y-16534484D01*
X3309101Y-16429722D02*
X3318624Y-16410674D01*
X3318624Y-16410674D02*
X3337672Y-16401150D01*
X3337672Y-16401150D02*
X3366243Y-16401150D01*
X3366243Y-16401150D02*
X3385291Y-16410674D01*
X3385291Y-16410674D02*
X3394815Y-16429722D01*
X3394815Y-16429722D02*
X3394815Y-16534484D01*
X3785291Y-16324960D02*
X3613863Y-16582103D01*
X4042434Y-16334484D02*
X4061482Y-16334484D01*
X4061482Y-16334484D02*
X4080529Y-16344008D01*
X4080529Y-16344008D02*
X4090053Y-16353531D01*
X4090053Y-16353531D02*
X4099577Y-16372579D01*
X4099577Y-16372579D02*
X4109101Y-16410674D01*
X4109101Y-16410674D02*
X4109101Y-16458293D01*
X4109101Y-16458293D02*
X4099577Y-16496388D01*
X4099577Y-16496388D02*
X4090053Y-16515436D01*
X4090053Y-16515436D02*
X4080529Y-16524960D01*
X4080529Y-16524960D02*
X4061482Y-16534484D01*
X4061482Y-16534484D02*
X4042434Y-16534484D01*
X4042434Y-16534484D02*
X4023386Y-16524960D01*
X4023386Y-16524960D02*
X4013863Y-16515436D01*
X4013863Y-16515436D02*
X4004339Y-16496388D01*
X4004339Y-16496388D02*
X3994815Y-16458293D01*
X3994815Y-16458293D02*
X3994815Y-16410674D01*
X3994815Y-16410674D02*
X4004339Y-16372579D01*
X4004339Y-16372579D02*
X4013863Y-16353531D01*
X4013863Y-16353531D02*
X4023386Y-16344008D01*
X4023386Y-16344008D02*
X4042434Y-16334484D01*
X4194815Y-16515436D02*
X4204339Y-16524960D01*
X4204339Y-16524960D02*
X4194815Y-16534484D01*
X4194815Y-16534484D02*
X4185291Y-16524960D01*
X4185291Y-16524960D02*
X4194815Y-16515436D01*
X4194815Y-16515436D02*
X4194815Y-16534484D01*
X4328148Y-16334484D02*
X4347196Y-16334484D01*
X4347196Y-16334484D02*
X4366244Y-16344008D01*
X4366244Y-16344008D02*
X4375768Y-16353531D01*
X4375768Y-16353531D02*
X4385291Y-16372579D01*
X4385291Y-16372579D02*
X4394815Y-16410674D01*
X4394815Y-16410674D02*
X4394815Y-16458293D01*
X4394815Y-16458293D02*
X4385291Y-16496388D01*
X4385291Y-16496388D02*
X4375768Y-16515436D01*
X4375768Y-16515436D02*
X4366244Y-16524960D01*
X4366244Y-16524960D02*
X4347196Y-16534484D01*
X4347196Y-16534484D02*
X4328148Y-16534484D01*
X4328148Y-16534484D02*
X4309101Y-16524960D01*
X4309101Y-16524960D02*
X4299577Y-16515436D01*
X4299577Y-16515436D02*
X4290053Y-16496388D01*
X4290053Y-16496388D02*
X4280529Y-16458293D01*
X4280529Y-16458293D02*
X4280529Y-16410674D01*
X4280529Y-16410674D02*
X4290053Y-16372579D01*
X4290053Y-16372579D02*
X4299577Y-16353531D01*
X4299577Y-16353531D02*
X4309101Y-16344008D01*
X4309101Y-16344008D02*
X4328148Y-16334484D01*
X4461482Y-16334484D02*
X4585291Y-16334484D01*
X4585291Y-16334484D02*
X4518625Y-16410674D01*
X4518625Y-16410674D02*
X4547196Y-16410674D01*
X4547196Y-16410674D02*
X4566244Y-16420198D01*
X4566244Y-16420198D02*
X4575768Y-16429722D01*
X4575768Y-16429722D02*
X4585291Y-16448769D01*
X4585291Y-16448769D02*
X4585291Y-16496388D01*
X4585291Y-16496388D02*
X4575768Y-16515436D01*
X4575768Y-16515436D02*
X4566244Y-16524960D01*
X4566244Y-16524960D02*
X4547196Y-16534484D01*
X4547196Y-16534484D02*
X4490053Y-16534484D01*
X4490053Y-16534484D02*
X4471006Y-16524960D01*
X4471006Y-16524960D02*
X4461482Y-16515436D01*
X4709101Y-16334484D02*
X4728149Y-16334484D01*
X4728149Y-16334484D02*
X4747196Y-16344008D01*
X4747196Y-16344008D02*
X4756720Y-16353531D01*
X4756720Y-16353531D02*
X4766244Y-16372579D01*
X4766244Y-16372579D02*
X4775768Y-16410674D01*
X4775768Y-16410674D02*
X4775768Y-16458293D01*
X4775768Y-16458293D02*
X4766244Y-16496388D01*
X4766244Y-16496388D02*
X4756720Y-16515436D01*
X4756720Y-16515436D02*
X4747196Y-16524960D01*
X4747196Y-16524960D02*
X4728149Y-16534484D01*
X4728149Y-16534484D02*
X4709101Y-16534484D01*
X4709101Y-16534484D02*
X4690053Y-16524960D01*
X4690053Y-16524960D02*
X4680529Y-16515436D01*
X4680529Y-16515436D02*
X4671006Y-16496388D01*
X4671006Y-16496388D02*
X4661482Y-16458293D01*
X4661482Y-16458293D02*
X4661482Y-16410674D01*
X4661482Y-16410674D02*
X4671006Y-16372579D01*
X4671006Y-16372579D02*
X4680529Y-16353531D01*
X4680529Y-16353531D02*
X4690053Y-16344008D01*
X4690053Y-16344008D02*
X4709101Y-16334484D01*
X4899577Y-16334484D02*
X4918625Y-16334484D01*
X4918625Y-16334484D02*
X4937672Y-16344008D01*
X4937672Y-16344008D02*
X4947196Y-16353531D01*
X4947196Y-16353531D02*
X4956720Y-16372579D01*
X4956720Y-16372579D02*
X4966244Y-16410674D01*
X4966244Y-16410674D02*
X4966244Y-16458293D01*
X4966244Y-16458293D02*
X4956720Y-16496388D01*
X4956720Y-16496388D02*
X4947196Y-16515436D01*
X4947196Y-16515436D02*
X4937672Y-16524960D01*
X4937672Y-16524960D02*
X4918625Y-16534484D01*
X4918625Y-16534484D02*
X4899577Y-16534484D01*
X4899577Y-16534484D02*
X4880529Y-16524960D01*
X4880529Y-16524960D02*
X4871006Y-16515436D01*
X4871006Y-16515436D02*
X4861482Y-16496388D01*
X4861482Y-16496388D02*
X4851958Y-16458293D01*
X4851958Y-16458293D02*
X4851958Y-16410674D01*
X4851958Y-16410674D02*
X4861482Y-16372579D01*
X4861482Y-16372579D02*
X4871006Y-16353531D01*
X4871006Y-16353531D02*
X4880529Y-16344008D01*
X4880529Y-16344008D02*
X4899577Y-16334484D01*
X5042434Y-16334484D02*
X5042434Y-16372579D01*
X5118625Y-16334484D02*
X5118625Y-16372579D01*
X5413863Y-16610674D02*
X5404339Y-16601150D01*
X5404339Y-16601150D02*
X5385291Y-16572579D01*
X5385291Y-16572579D02*
X5375768Y-16553531D01*
X5375768Y-16553531D02*
X5366244Y-16524960D01*
X5366244Y-16524960D02*
X5356720Y-16477341D01*
X5356720Y-16477341D02*
X5356720Y-16439246D01*
X5356720Y-16439246D02*
X5366244Y-16391627D01*
X5366244Y-16391627D02*
X5375768Y-16363055D01*
X5375768Y-16363055D02*
X5385291Y-16344008D01*
X5385291Y-16344008D02*
X5404339Y-16315436D01*
X5404339Y-16315436D02*
X5413863Y-16305912D01*
X5575768Y-16334484D02*
X5537672Y-16334484D01*
X5537672Y-16334484D02*
X5518625Y-16344008D01*
X5518625Y-16344008D02*
X5509101Y-16353531D01*
X5509101Y-16353531D02*
X5490053Y-16382103D01*
X5490053Y-16382103D02*
X5480530Y-16420198D01*
X5480530Y-16420198D02*
X5480530Y-16496388D01*
X5480530Y-16496388D02*
X5490053Y-16515436D01*
X5490053Y-16515436D02*
X5499577Y-16524960D01*
X5499577Y-16524960D02*
X5518625Y-16534484D01*
X5518625Y-16534484D02*
X5556720Y-16534484D01*
X5556720Y-16534484D02*
X5575768Y-16524960D01*
X5575768Y-16524960D02*
X5585291Y-16515436D01*
X5585291Y-16515436D02*
X5594815Y-16496388D01*
X5594815Y-16496388D02*
X5594815Y-16448769D01*
X5594815Y-16448769D02*
X5585291Y-16429722D01*
X5585291Y-16429722D02*
X5575768Y-16420198D01*
X5575768Y-16420198D02*
X5556720Y-16410674D01*
X5556720Y-16410674D02*
X5518625Y-16410674D01*
X5518625Y-16410674D02*
X5499577Y-16420198D01*
X5499577Y-16420198D02*
X5490053Y-16429722D01*
X5490053Y-16429722D02*
X5480530Y-16448769D01*
X5832910Y-16534484D02*
X5832910Y-16334484D01*
X5918625Y-16534484D02*
X5918625Y-16429722D01*
X5918625Y-16429722D02*
X5909101Y-16410674D01*
X5909101Y-16410674D02*
X5890053Y-16401150D01*
X5890053Y-16401150D02*
X5861482Y-16401150D01*
X5861482Y-16401150D02*
X5842434Y-16410674D01*
X5842434Y-16410674D02*
X5832910Y-16420198D01*
X6042434Y-16534484D02*
X6023387Y-16524960D01*
X6023387Y-16524960D02*
X6013863Y-16515436D01*
X6013863Y-16515436D02*
X6004339Y-16496388D01*
X6004339Y-16496388D02*
X6004339Y-16439246D01*
X6004339Y-16439246D02*
X6013863Y-16420198D01*
X6013863Y-16420198D02*
X6023387Y-16410674D01*
X6023387Y-16410674D02*
X6042434Y-16401150D01*
X6042434Y-16401150D02*
X6071006Y-16401150D01*
X6071006Y-16401150D02*
X6090053Y-16410674D01*
X6090053Y-16410674D02*
X6099577Y-16420198D01*
X6099577Y-16420198D02*
X6109101Y-16439246D01*
X6109101Y-16439246D02*
X6109101Y-16496388D01*
X6109101Y-16496388D02*
X6099577Y-16515436D01*
X6099577Y-16515436D02*
X6090053Y-16524960D01*
X6090053Y-16524960D02*
X6071006Y-16534484D01*
X6071006Y-16534484D02*
X6042434Y-16534484D01*
X6223387Y-16534484D02*
X6204339Y-16524960D01*
X6204339Y-16524960D02*
X6194815Y-16505912D01*
X6194815Y-16505912D02*
X6194815Y-16334484D01*
X6375768Y-16524960D02*
X6356720Y-16534484D01*
X6356720Y-16534484D02*
X6318625Y-16534484D01*
X6318625Y-16534484D02*
X6299577Y-16524960D01*
X6299577Y-16524960D02*
X6290053Y-16505912D01*
X6290053Y-16505912D02*
X6290053Y-16429722D01*
X6290053Y-16429722D02*
X6299577Y-16410674D01*
X6299577Y-16410674D02*
X6318625Y-16401150D01*
X6318625Y-16401150D02*
X6356720Y-16401150D01*
X6356720Y-16401150D02*
X6375768Y-16410674D01*
X6375768Y-16410674D02*
X6385291Y-16429722D01*
X6385291Y-16429722D02*
X6385291Y-16448769D01*
X6385291Y-16448769D02*
X6290053Y-16467817D01*
X6461482Y-16524960D02*
X6480530Y-16534484D01*
X6480530Y-16534484D02*
X6518625Y-16534484D01*
X6518625Y-16534484D02*
X6537672Y-16524960D01*
X6537672Y-16524960D02*
X6547196Y-16505912D01*
X6547196Y-16505912D02*
X6547196Y-16496388D01*
X6547196Y-16496388D02*
X6537672Y-16477341D01*
X6537672Y-16477341D02*
X6518625Y-16467817D01*
X6518625Y-16467817D02*
X6490053Y-16467817D01*
X6490053Y-16467817D02*
X6471006Y-16458293D01*
X6471006Y-16458293D02*
X6461482Y-16439246D01*
X6461482Y-16439246D02*
X6461482Y-16429722D01*
X6461482Y-16429722D02*
X6471006Y-16410674D01*
X6471006Y-16410674D02*
X6490053Y-16401150D01*
X6490053Y-16401150D02*
X6518625Y-16401150D01*
X6518625Y-16401150D02*
X6537672Y-16410674D01*
X6613863Y-16610674D02*
X6623387Y-16601150D01*
X6623387Y-16601150D02*
X6642434Y-16572579D01*
X6642434Y-16572579D02*
X6651958Y-16553531D01*
X6651958Y-16553531D02*
X6661482Y-16524960D01*
X6661482Y-16524960D02*
X6671006Y-16477341D01*
X6671006Y-16477341D02*
X6671006Y-16439246D01*
X6671006Y-16439246D02*
X6661482Y-16391627D01*
X6661482Y-16391627D02*
X6651958Y-16363055D01*
X6651958Y-16363055D02*
X6642434Y-16344008D01*
X6642434Y-16344008D02*
X6623387Y-16315436D01*
X6623387Y-16315436D02*
X6613863Y-16305912D01*
D15*
X1798800Y-16747000D02*
X1838800Y-16707000D01*
X1798800Y-16667000D01*
X1758800Y-16707000D01*
X1798800Y-16747000D01*
D11*
X2137672Y-16598484D02*
X2156720Y-16598484D01*
X2156720Y-16598484D02*
X2175767Y-16608008D01*
X2175767Y-16608008D02*
X2185291Y-16617531D01*
X2185291Y-16617531D02*
X2194815Y-16636579D01*
X2194815Y-16636579D02*
X2204339Y-16674674D01*
X2204339Y-16674674D02*
X2204339Y-16722293D01*
X2204339Y-16722293D02*
X2194815Y-16760388D01*
X2194815Y-16760388D02*
X2185291Y-16779436D01*
X2185291Y-16779436D02*
X2175767Y-16788960D01*
X2175767Y-16788960D02*
X2156720Y-16798484D01*
X2156720Y-16798484D02*
X2137672Y-16798484D01*
X2137672Y-16798484D02*
X2118624Y-16788960D01*
X2118624Y-16788960D02*
X2109101Y-16779436D01*
X2109101Y-16779436D02*
X2099577Y-16760388D01*
X2099577Y-16760388D02*
X2090053Y-16722293D01*
X2090053Y-16722293D02*
X2090053Y-16674674D01*
X2090053Y-16674674D02*
X2099577Y-16636579D01*
X2099577Y-16636579D02*
X2109101Y-16617531D01*
X2109101Y-16617531D02*
X2118624Y-16608008D01*
X2118624Y-16608008D02*
X2137672Y-16598484D01*
X2290053Y-16779436D02*
X2299577Y-16788960D01*
X2299577Y-16788960D02*
X2290053Y-16798484D01*
X2290053Y-16798484D02*
X2280529Y-16788960D01*
X2280529Y-16788960D02*
X2290053Y-16779436D01*
X2290053Y-16779436D02*
X2290053Y-16798484D01*
X2413863Y-16684198D02*
X2394815Y-16674674D01*
X2394815Y-16674674D02*
X2385291Y-16665150D01*
X2385291Y-16665150D02*
X2375767Y-16646103D01*
X2375767Y-16646103D02*
X2375767Y-16636579D01*
X2375767Y-16636579D02*
X2385291Y-16617531D01*
X2385291Y-16617531D02*
X2394815Y-16608008D01*
X2394815Y-16608008D02*
X2413863Y-16598484D01*
X2413863Y-16598484D02*
X2451958Y-16598484D01*
X2451958Y-16598484D02*
X2471005Y-16608008D01*
X2471005Y-16608008D02*
X2480529Y-16617531D01*
X2480529Y-16617531D02*
X2490053Y-16636579D01*
X2490053Y-16636579D02*
X2490053Y-16646103D01*
X2490053Y-16646103D02*
X2480529Y-16665150D01*
X2480529Y-16665150D02*
X2471005Y-16674674D01*
X2471005Y-16674674D02*
X2451958Y-16684198D01*
X2451958Y-16684198D02*
X2413863Y-16684198D01*
X2413863Y-16684198D02*
X2394815Y-16693722D01*
X2394815Y-16693722D02*
X2385291Y-16703246D01*
X2385291Y-16703246D02*
X2375767Y-16722293D01*
X2375767Y-16722293D02*
X2375767Y-16760388D01*
X2375767Y-16760388D02*
X2385291Y-16779436D01*
X2385291Y-16779436D02*
X2394815Y-16788960D01*
X2394815Y-16788960D02*
X2413863Y-16798484D01*
X2413863Y-16798484D02*
X2451958Y-16798484D01*
X2451958Y-16798484D02*
X2471005Y-16788960D01*
X2471005Y-16788960D02*
X2480529Y-16779436D01*
X2480529Y-16779436D02*
X2490053Y-16760388D01*
X2490053Y-16760388D02*
X2490053Y-16722293D01*
X2490053Y-16722293D02*
X2480529Y-16703246D01*
X2480529Y-16703246D02*
X2471005Y-16693722D01*
X2471005Y-16693722D02*
X2451958Y-16684198D01*
X2613863Y-16598484D02*
X2632910Y-16598484D01*
X2632910Y-16598484D02*
X2651958Y-16608008D01*
X2651958Y-16608008D02*
X2661482Y-16617531D01*
X2661482Y-16617531D02*
X2671005Y-16636579D01*
X2671005Y-16636579D02*
X2680529Y-16674674D01*
X2680529Y-16674674D02*
X2680529Y-16722293D01*
X2680529Y-16722293D02*
X2671005Y-16760388D01*
X2671005Y-16760388D02*
X2661482Y-16779436D01*
X2661482Y-16779436D02*
X2651958Y-16788960D01*
X2651958Y-16788960D02*
X2632910Y-16798484D01*
X2632910Y-16798484D02*
X2613863Y-16798484D01*
X2613863Y-16798484D02*
X2594815Y-16788960D01*
X2594815Y-16788960D02*
X2585291Y-16779436D01*
X2585291Y-16779436D02*
X2575767Y-16760388D01*
X2575767Y-16760388D02*
X2566244Y-16722293D01*
X2566244Y-16722293D02*
X2566244Y-16674674D01*
X2566244Y-16674674D02*
X2575767Y-16636579D01*
X2575767Y-16636579D02*
X2585291Y-16617531D01*
X2585291Y-16617531D02*
X2594815Y-16608008D01*
X2594815Y-16608008D02*
X2613863Y-16598484D01*
X2804339Y-16598484D02*
X2823386Y-16598484D01*
X2823386Y-16598484D02*
X2842434Y-16608008D01*
X2842434Y-16608008D02*
X2851958Y-16617531D01*
X2851958Y-16617531D02*
X2861482Y-16636579D01*
X2861482Y-16636579D02*
X2871005Y-16674674D01*
X2871005Y-16674674D02*
X2871005Y-16722293D01*
X2871005Y-16722293D02*
X2861482Y-16760388D01*
X2861482Y-16760388D02*
X2851958Y-16779436D01*
X2851958Y-16779436D02*
X2842434Y-16788960D01*
X2842434Y-16788960D02*
X2823386Y-16798484D01*
X2823386Y-16798484D02*
X2804339Y-16798484D01*
X2804339Y-16798484D02*
X2785291Y-16788960D01*
X2785291Y-16788960D02*
X2775767Y-16779436D01*
X2775767Y-16779436D02*
X2766244Y-16760388D01*
X2766244Y-16760388D02*
X2756720Y-16722293D01*
X2756720Y-16722293D02*
X2756720Y-16674674D01*
X2756720Y-16674674D02*
X2766244Y-16636579D01*
X2766244Y-16636579D02*
X2775767Y-16617531D01*
X2775767Y-16617531D02*
X2785291Y-16608008D01*
X2785291Y-16608008D02*
X2804339Y-16598484D01*
X2956720Y-16798484D02*
X2956720Y-16665150D01*
X2956720Y-16684198D02*
X2966243Y-16674674D01*
X2966243Y-16674674D02*
X2985291Y-16665150D01*
X2985291Y-16665150D02*
X3013863Y-16665150D01*
X3013863Y-16665150D02*
X3032910Y-16674674D01*
X3032910Y-16674674D02*
X3042434Y-16693722D01*
X3042434Y-16693722D02*
X3042434Y-16798484D01*
X3042434Y-16693722D02*
X3051958Y-16674674D01*
X3051958Y-16674674D02*
X3071005Y-16665150D01*
X3071005Y-16665150D02*
X3099577Y-16665150D01*
X3099577Y-16665150D02*
X3118624Y-16674674D01*
X3118624Y-16674674D02*
X3128148Y-16693722D01*
X3128148Y-16693722D02*
X3128148Y-16798484D01*
X3223386Y-16798484D02*
X3223386Y-16665150D01*
X3223386Y-16684198D02*
X3232910Y-16674674D01*
X3232910Y-16674674D02*
X3251958Y-16665150D01*
X3251958Y-16665150D02*
X3280529Y-16665150D01*
X3280529Y-16665150D02*
X3299577Y-16674674D01*
X3299577Y-16674674D02*
X3309101Y-16693722D01*
X3309101Y-16693722D02*
X3309101Y-16798484D01*
X3309101Y-16693722D02*
X3318624Y-16674674D01*
X3318624Y-16674674D02*
X3337672Y-16665150D01*
X3337672Y-16665150D02*
X3366243Y-16665150D01*
X3366243Y-16665150D02*
X3385291Y-16674674D01*
X3385291Y-16674674D02*
X3394815Y-16693722D01*
X3394815Y-16693722D02*
X3394815Y-16798484D01*
X3785291Y-16588960D02*
X3613863Y-16846103D01*
X4042434Y-16598484D02*
X4061482Y-16598484D01*
X4061482Y-16598484D02*
X4080529Y-16608008D01*
X4080529Y-16608008D02*
X4090053Y-16617531D01*
X4090053Y-16617531D02*
X4099577Y-16636579D01*
X4099577Y-16636579D02*
X4109101Y-16674674D01*
X4109101Y-16674674D02*
X4109101Y-16722293D01*
X4109101Y-16722293D02*
X4099577Y-16760388D01*
X4099577Y-16760388D02*
X4090053Y-16779436D01*
X4090053Y-16779436D02*
X4080529Y-16788960D01*
X4080529Y-16788960D02*
X4061482Y-16798484D01*
X4061482Y-16798484D02*
X4042434Y-16798484D01*
X4042434Y-16798484D02*
X4023386Y-16788960D01*
X4023386Y-16788960D02*
X4013863Y-16779436D01*
X4013863Y-16779436D02*
X4004339Y-16760388D01*
X4004339Y-16760388D02*
X3994815Y-16722293D01*
X3994815Y-16722293D02*
X3994815Y-16674674D01*
X3994815Y-16674674D02*
X4004339Y-16636579D01*
X4004339Y-16636579D02*
X4013863Y-16617531D01*
X4013863Y-16617531D02*
X4023386Y-16608008D01*
X4023386Y-16608008D02*
X4042434Y-16598484D01*
X4194815Y-16779436D02*
X4204339Y-16788960D01*
X4204339Y-16788960D02*
X4194815Y-16798484D01*
X4194815Y-16798484D02*
X4185291Y-16788960D01*
X4185291Y-16788960D02*
X4194815Y-16779436D01*
X4194815Y-16779436D02*
X4194815Y-16798484D01*
X4328148Y-16598484D02*
X4347196Y-16598484D01*
X4347196Y-16598484D02*
X4366244Y-16608008D01*
X4366244Y-16608008D02*
X4375768Y-16617531D01*
X4375768Y-16617531D02*
X4385291Y-16636579D01*
X4385291Y-16636579D02*
X4394815Y-16674674D01*
X4394815Y-16674674D02*
X4394815Y-16722293D01*
X4394815Y-16722293D02*
X4385291Y-16760388D01*
X4385291Y-16760388D02*
X4375768Y-16779436D01*
X4375768Y-16779436D02*
X4366244Y-16788960D01*
X4366244Y-16788960D02*
X4347196Y-16798484D01*
X4347196Y-16798484D02*
X4328148Y-16798484D01*
X4328148Y-16798484D02*
X4309101Y-16788960D01*
X4309101Y-16788960D02*
X4299577Y-16779436D01*
X4299577Y-16779436D02*
X4290053Y-16760388D01*
X4290053Y-16760388D02*
X4280529Y-16722293D01*
X4280529Y-16722293D02*
X4280529Y-16674674D01*
X4280529Y-16674674D02*
X4290053Y-16636579D01*
X4290053Y-16636579D02*
X4299577Y-16617531D01*
X4299577Y-16617531D02*
X4309101Y-16608008D01*
X4309101Y-16608008D02*
X4328148Y-16598484D01*
X4461482Y-16598484D02*
X4585291Y-16598484D01*
X4585291Y-16598484D02*
X4518625Y-16674674D01*
X4518625Y-16674674D02*
X4547196Y-16674674D01*
X4547196Y-16674674D02*
X4566244Y-16684198D01*
X4566244Y-16684198D02*
X4575768Y-16693722D01*
X4575768Y-16693722D02*
X4585291Y-16712769D01*
X4585291Y-16712769D02*
X4585291Y-16760388D01*
X4585291Y-16760388D02*
X4575768Y-16779436D01*
X4575768Y-16779436D02*
X4566244Y-16788960D01*
X4566244Y-16788960D02*
X4547196Y-16798484D01*
X4547196Y-16798484D02*
X4490053Y-16798484D01*
X4490053Y-16798484D02*
X4471006Y-16788960D01*
X4471006Y-16788960D02*
X4461482Y-16779436D01*
X4775768Y-16798484D02*
X4661482Y-16798484D01*
X4718625Y-16798484D02*
X4718625Y-16598484D01*
X4718625Y-16598484D02*
X4699577Y-16627055D01*
X4699577Y-16627055D02*
X4680529Y-16646103D01*
X4680529Y-16646103D02*
X4661482Y-16655627D01*
X4956720Y-16598484D02*
X4861482Y-16598484D01*
X4861482Y-16598484D02*
X4851958Y-16693722D01*
X4851958Y-16693722D02*
X4861482Y-16684198D01*
X4861482Y-16684198D02*
X4880529Y-16674674D01*
X4880529Y-16674674D02*
X4928149Y-16674674D01*
X4928149Y-16674674D02*
X4947196Y-16684198D01*
X4947196Y-16684198D02*
X4956720Y-16693722D01*
X4956720Y-16693722D02*
X4966244Y-16712769D01*
X4966244Y-16712769D02*
X4966244Y-16760388D01*
X4966244Y-16760388D02*
X4956720Y-16779436D01*
X4956720Y-16779436D02*
X4947196Y-16788960D01*
X4947196Y-16788960D02*
X4928149Y-16798484D01*
X4928149Y-16798484D02*
X4880529Y-16798484D01*
X4880529Y-16798484D02*
X4861482Y-16788960D01*
X4861482Y-16788960D02*
X4851958Y-16779436D01*
X5042434Y-16598484D02*
X5042434Y-16636579D01*
X5118625Y-16598484D02*
X5118625Y-16636579D01*
X5413863Y-16874674D02*
X5404339Y-16865150D01*
X5404339Y-16865150D02*
X5385291Y-16836579D01*
X5385291Y-16836579D02*
X5375768Y-16817531D01*
X5375768Y-16817531D02*
X5366244Y-16788960D01*
X5366244Y-16788960D02*
X5356720Y-16741341D01*
X5356720Y-16741341D02*
X5356720Y-16703246D01*
X5356720Y-16703246D02*
X5366244Y-16655627D01*
X5366244Y-16655627D02*
X5375768Y-16627055D01*
X5375768Y-16627055D02*
X5385291Y-16608008D01*
X5385291Y-16608008D02*
X5404339Y-16579436D01*
X5404339Y-16579436D02*
X5413863Y-16569912D01*
X5480530Y-16617531D02*
X5490053Y-16608008D01*
X5490053Y-16608008D02*
X5509101Y-16598484D01*
X5509101Y-16598484D02*
X5556720Y-16598484D01*
X5556720Y-16598484D02*
X5575768Y-16608008D01*
X5575768Y-16608008D02*
X5585291Y-16617531D01*
X5585291Y-16617531D02*
X5594815Y-16636579D01*
X5594815Y-16636579D02*
X5594815Y-16655627D01*
X5594815Y-16655627D02*
X5585291Y-16684198D01*
X5585291Y-16684198D02*
X5471006Y-16798484D01*
X5471006Y-16798484D02*
X5594815Y-16798484D01*
X5718625Y-16598484D02*
X5737672Y-16598484D01*
X5737672Y-16598484D02*
X5756720Y-16608008D01*
X5756720Y-16608008D02*
X5766244Y-16617531D01*
X5766244Y-16617531D02*
X5775768Y-16636579D01*
X5775768Y-16636579D02*
X5785291Y-16674674D01*
X5785291Y-16674674D02*
X5785291Y-16722293D01*
X5785291Y-16722293D02*
X5775768Y-16760388D01*
X5775768Y-16760388D02*
X5766244Y-16779436D01*
X5766244Y-16779436D02*
X5756720Y-16788960D01*
X5756720Y-16788960D02*
X5737672Y-16798484D01*
X5737672Y-16798484D02*
X5718625Y-16798484D01*
X5718625Y-16798484D02*
X5699577Y-16788960D01*
X5699577Y-16788960D02*
X5690053Y-16779436D01*
X5690053Y-16779436D02*
X5680529Y-16760388D01*
X5680529Y-16760388D02*
X5671006Y-16722293D01*
X5671006Y-16722293D02*
X5671006Y-16674674D01*
X5671006Y-16674674D02*
X5680529Y-16636579D01*
X5680529Y-16636579D02*
X5690053Y-16617531D01*
X5690053Y-16617531D02*
X5699577Y-16608008D01*
X5699577Y-16608008D02*
X5718625Y-16598484D01*
X5956720Y-16598484D02*
X5918625Y-16598484D01*
X5918625Y-16598484D02*
X5899577Y-16608008D01*
X5899577Y-16608008D02*
X5890053Y-16617531D01*
X5890053Y-16617531D02*
X5871006Y-16646103D01*
X5871006Y-16646103D02*
X5861482Y-16684198D01*
X5861482Y-16684198D02*
X5861482Y-16760388D01*
X5861482Y-16760388D02*
X5871006Y-16779436D01*
X5871006Y-16779436D02*
X5880529Y-16788960D01*
X5880529Y-16788960D02*
X5899577Y-16798484D01*
X5899577Y-16798484D02*
X5937672Y-16798484D01*
X5937672Y-16798484D02*
X5956720Y-16788960D01*
X5956720Y-16788960D02*
X5966244Y-16779436D01*
X5966244Y-16779436D02*
X5975768Y-16760388D01*
X5975768Y-16760388D02*
X5975768Y-16712769D01*
X5975768Y-16712769D02*
X5966244Y-16693722D01*
X5966244Y-16693722D02*
X5956720Y-16684198D01*
X5956720Y-16684198D02*
X5937672Y-16674674D01*
X5937672Y-16674674D02*
X5899577Y-16674674D01*
X5899577Y-16674674D02*
X5880529Y-16684198D01*
X5880529Y-16684198D02*
X5871006Y-16693722D01*
X5871006Y-16693722D02*
X5861482Y-16712769D01*
X6213863Y-16798484D02*
X6213863Y-16598484D01*
X6299577Y-16798484D02*
X6299577Y-16693722D01*
X6299577Y-16693722D02*
X6290053Y-16674674D01*
X6290053Y-16674674D02*
X6271006Y-16665150D01*
X6271006Y-16665150D02*
X6242434Y-16665150D01*
X6242434Y-16665150D02*
X6223387Y-16674674D01*
X6223387Y-16674674D02*
X6213863Y-16684198D01*
X6423387Y-16798484D02*
X6404339Y-16788960D01*
X6404339Y-16788960D02*
X6394815Y-16779436D01*
X6394815Y-16779436D02*
X6385291Y-16760388D01*
X6385291Y-16760388D02*
X6385291Y-16703246D01*
X6385291Y-16703246D02*
X6394815Y-16684198D01*
X6394815Y-16684198D02*
X6404339Y-16674674D01*
X6404339Y-16674674D02*
X6423387Y-16665150D01*
X6423387Y-16665150D02*
X6451958Y-16665150D01*
X6451958Y-16665150D02*
X6471006Y-16674674D01*
X6471006Y-16674674D02*
X6480530Y-16684198D01*
X6480530Y-16684198D02*
X6490053Y-16703246D01*
X6490053Y-16703246D02*
X6490053Y-16760388D01*
X6490053Y-16760388D02*
X6480530Y-16779436D01*
X6480530Y-16779436D02*
X6471006Y-16788960D01*
X6471006Y-16788960D02*
X6451958Y-16798484D01*
X6451958Y-16798484D02*
X6423387Y-16798484D01*
X6604339Y-16798484D02*
X6585291Y-16788960D01*
X6585291Y-16788960D02*
X6575768Y-16769912D01*
X6575768Y-16769912D02*
X6575768Y-16598484D01*
X6756720Y-16788960D02*
X6737672Y-16798484D01*
X6737672Y-16798484D02*
X6699577Y-16798484D01*
X6699577Y-16798484D02*
X6680530Y-16788960D01*
X6680530Y-16788960D02*
X6671006Y-16769912D01*
X6671006Y-16769912D02*
X6671006Y-16693722D01*
X6671006Y-16693722D02*
X6680530Y-16674674D01*
X6680530Y-16674674D02*
X6699577Y-16665150D01*
X6699577Y-16665150D02*
X6737672Y-16665150D01*
X6737672Y-16665150D02*
X6756720Y-16674674D01*
X6756720Y-16674674D02*
X6766244Y-16693722D01*
X6766244Y-16693722D02*
X6766244Y-16712769D01*
X6766244Y-16712769D02*
X6671006Y-16731817D01*
X6842434Y-16788960D02*
X6861482Y-16798484D01*
X6861482Y-16798484D02*
X6899577Y-16798484D01*
X6899577Y-16798484D02*
X6918625Y-16788960D01*
X6918625Y-16788960D02*
X6928149Y-16769912D01*
X6928149Y-16769912D02*
X6928149Y-16760388D01*
X6928149Y-16760388D02*
X6918625Y-16741341D01*
X6918625Y-16741341D02*
X6899577Y-16731817D01*
X6899577Y-16731817D02*
X6871006Y-16731817D01*
X6871006Y-16731817D02*
X6851958Y-16722293D01*
X6851958Y-16722293D02*
X6842434Y-16703246D01*
X6842434Y-16703246D02*
X6842434Y-16693722D01*
X6842434Y-16693722D02*
X6851958Y-16674674D01*
X6851958Y-16674674D02*
X6871006Y-16665150D01*
X6871006Y-16665150D02*
X6899577Y-16665150D01*
X6899577Y-16665150D02*
X6918625Y-16674674D01*
X6994815Y-16874674D02*
X7004339Y-16865150D01*
X7004339Y-16865150D02*
X7023387Y-16836579D01*
X7023387Y-16836579D02*
X7032911Y-16817531D01*
X7032911Y-16817531D02*
X7042434Y-16788960D01*
X7042434Y-16788960D02*
X7051958Y-16741341D01*
X7051958Y-16741341D02*
X7051958Y-16703246D01*
X7051958Y-16703246D02*
X7042434Y-16655627D01*
X7042434Y-16655627D02*
X7032911Y-16627055D01*
X7032911Y-16627055D02*
X7023387Y-16608008D01*
X7023387Y-16608008D02*
X7004339Y-16579436D01*
X7004339Y-16579436D02*
X6994815Y-16569912D01*
D16*
X1729580Y-16916390D02*
X1838800Y-17025610D01*
X1838800Y-16916390D02*
X1729580Y-17025610D01*
X1838800Y-16971000D02*
G75*
G03*
X1838800Y-16971000I-54610J0D01*
G01*
D11*
X2204339Y-17062484D02*
X2090053Y-17062484D01*
X2147196Y-17062484D02*
X2147196Y-16862484D01*
X2147196Y-16862484D02*
X2128148Y-16891055D01*
X2128148Y-16891055D02*
X2109101Y-16910103D01*
X2109101Y-16910103D02*
X2090053Y-16919627D01*
X2290053Y-17043436D02*
X2299577Y-17052960D01*
X2299577Y-17052960D02*
X2290053Y-17062484D01*
X2290053Y-17062484D02*
X2280529Y-17052960D01*
X2280529Y-17052960D02*
X2290053Y-17043436D01*
X2290053Y-17043436D02*
X2290053Y-17062484D01*
X2423386Y-16862484D02*
X2442434Y-16862484D01*
X2442434Y-16862484D02*
X2461482Y-16872008D01*
X2461482Y-16872008D02*
X2471005Y-16881531D01*
X2471005Y-16881531D02*
X2480529Y-16900579D01*
X2480529Y-16900579D02*
X2490053Y-16938674D01*
X2490053Y-16938674D02*
X2490053Y-16986293D01*
X2490053Y-16986293D02*
X2480529Y-17024389D01*
X2480529Y-17024389D02*
X2471005Y-17043436D01*
X2471005Y-17043436D02*
X2461482Y-17052960D01*
X2461482Y-17052960D02*
X2442434Y-17062484D01*
X2442434Y-17062484D02*
X2423386Y-17062484D01*
X2423386Y-17062484D02*
X2404339Y-17052960D01*
X2404339Y-17052960D02*
X2394815Y-17043436D01*
X2394815Y-17043436D02*
X2385291Y-17024389D01*
X2385291Y-17024389D02*
X2375767Y-16986293D01*
X2375767Y-16986293D02*
X2375767Y-16938674D01*
X2375767Y-16938674D02*
X2385291Y-16900579D01*
X2385291Y-16900579D02*
X2394815Y-16881531D01*
X2394815Y-16881531D02*
X2404339Y-16872008D01*
X2404339Y-16872008D02*
X2423386Y-16862484D01*
X2585291Y-17062484D02*
X2623386Y-17062484D01*
X2623386Y-17062484D02*
X2642434Y-17052960D01*
X2642434Y-17052960D02*
X2651958Y-17043436D01*
X2651958Y-17043436D02*
X2671005Y-17014865D01*
X2671005Y-17014865D02*
X2680529Y-16976770D01*
X2680529Y-16976770D02*
X2680529Y-16900579D01*
X2680529Y-16900579D02*
X2671005Y-16881531D01*
X2671005Y-16881531D02*
X2661482Y-16872008D01*
X2661482Y-16872008D02*
X2642434Y-16862484D01*
X2642434Y-16862484D02*
X2604339Y-16862484D01*
X2604339Y-16862484D02*
X2585291Y-16872008D01*
X2585291Y-16872008D02*
X2575767Y-16881531D01*
X2575767Y-16881531D02*
X2566244Y-16900579D01*
X2566244Y-16900579D02*
X2566244Y-16948198D01*
X2566244Y-16948198D02*
X2575767Y-16967246D01*
X2575767Y-16967246D02*
X2585291Y-16976770D01*
X2585291Y-16976770D02*
X2604339Y-16986293D01*
X2604339Y-16986293D02*
X2642434Y-16986293D01*
X2642434Y-16986293D02*
X2661482Y-16976770D01*
X2661482Y-16976770D02*
X2671005Y-16967246D01*
X2671005Y-16967246D02*
X2680529Y-16948198D01*
X2756720Y-16881531D02*
X2766244Y-16872008D01*
X2766244Y-16872008D02*
X2785291Y-16862484D01*
X2785291Y-16862484D02*
X2832910Y-16862484D01*
X2832910Y-16862484D02*
X2851958Y-16872008D01*
X2851958Y-16872008D02*
X2861482Y-16881531D01*
X2861482Y-16881531D02*
X2871005Y-16900579D01*
X2871005Y-16900579D02*
X2871005Y-16919627D01*
X2871005Y-16919627D02*
X2861482Y-16948198D01*
X2861482Y-16948198D02*
X2747196Y-17062484D01*
X2747196Y-17062484D02*
X2871005Y-17062484D01*
X2956720Y-17062484D02*
X2956720Y-16929150D01*
X2956720Y-16948198D02*
X2966243Y-16938674D01*
X2966243Y-16938674D02*
X2985291Y-16929150D01*
X2985291Y-16929150D02*
X3013863Y-16929150D01*
X3013863Y-16929150D02*
X3032910Y-16938674D01*
X3032910Y-16938674D02*
X3042434Y-16957722D01*
X3042434Y-16957722D02*
X3042434Y-17062484D01*
X3042434Y-16957722D02*
X3051958Y-16938674D01*
X3051958Y-16938674D02*
X3071005Y-16929150D01*
X3071005Y-16929150D02*
X3099577Y-16929150D01*
X3099577Y-16929150D02*
X3118624Y-16938674D01*
X3118624Y-16938674D02*
X3128148Y-16957722D01*
X3128148Y-16957722D02*
X3128148Y-17062484D01*
X3223386Y-17062484D02*
X3223386Y-16929150D01*
X3223386Y-16948198D02*
X3232910Y-16938674D01*
X3232910Y-16938674D02*
X3251958Y-16929150D01*
X3251958Y-16929150D02*
X3280529Y-16929150D01*
X3280529Y-16929150D02*
X3299577Y-16938674D01*
X3299577Y-16938674D02*
X3309101Y-16957722D01*
X3309101Y-16957722D02*
X3309101Y-17062484D01*
X3309101Y-16957722D02*
X3318624Y-16938674D01*
X3318624Y-16938674D02*
X3337672Y-16929150D01*
X3337672Y-16929150D02*
X3366243Y-16929150D01*
X3366243Y-16929150D02*
X3385291Y-16938674D01*
X3385291Y-16938674D02*
X3394815Y-16957722D01*
X3394815Y-16957722D02*
X3394815Y-17062484D01*
X3785291Y-16852960D02*
X3613863Y-17110103D01*
X4042434Y-16862484D02*
X4061482Y-16862484D01*
X4061482Y-16862484D02*
X4080529Y-16872008D01*
X4080529Y-16872008D02*
X4090053Y-16881531D01*
X4090053Y-16881531D02*
X4099577Y-16900579D01*
X4099577Y-16900579D02*
X4109101Y-16938674D01*
X4109101Y-16938674D02*
X4109101Y-16986293D01*
X4109101Y-16986293D02*
X4099577Y-17024389D01*
X4099577Y-17024389D02*
X4090053Y-17043436D01*
X4090053Y-17043436D02*
X4080529Y-17052960D01*
X4080529Y-17052960D02*
X4061482Y-17062484D01*
X4061482Y-17062484D02*
X4042434Y-17062484D01*
X4042434Y-17062484D02*
X4023386Y-17052960D01*
X4023386Y-17052960D02*
X4013863Y-17043436D01*
X4013863Y-17043436D02*
X4004339Y-17024389D01*
X4004339Y-17024389D02*
X3994815Y-16986293D01*
X3994815Y-16986293D02*
X3994815Y-16938674D01*
X3994815Y-16938674D02*
X4004339Y-16900579D01*
X4004339Y-16900579D02*
X4013863Y-16881531D01*
X4013863Y-16881531D02*
X4023386Y-16872008D01*
X4023386Y-16872008D02*
X4042434Y-16862484D01*
X4194815Y-17043436D02*
X4204339Y-17052960D01*
X4204339Y-17052960D02*
X4194815Y-17062484D01*
X4194815Y-17062484D02*
X4185291Y-17052960D01*
X4185291Y-17052960D02*
X4194815Y-17043436D01*
X4194815Y-17043436D02*
X4194815Y-17062484D01*
X4328148Y-16862484D02*
X4347196Y-16862484D01*
X4347196Y-16862484D02*
X4366244Y-16872008D01*
X4366244Y-16872008D02*
X4375768Y-16881531D01*
X4375768Y-16881531D02*
X4385291Y-16900579D01*
X4385291Y-16900579D02*
X4394815Y-16938674D01*
X4394815Y-16938674D02*
X4394815Y-16986293D01*
X4394815Y-16986293D02*
X4385291Y-17024389D01*
X4385291Y-17024389D02*
X4375768Y-17043436D01*
X4375768Y-17043436D02*
X4366244Y-17052960D01*
X4366244Y-17052960D02*
X4347196Y-17062484D01*
X4347196Y-17062484D02*
X4328148Y-17062484D01*
X4328148Y-17062484D02*
X4309101Y-17052960D01*
X4309101Y-17052960D02*
X4299577Y-17043436D01*
X4299577Y-17043436D02*
X4290053Y-17024389D01*
X4290053Y-17024389D02*
X4280529Y-16986293D01*
X4280529Y-16986293D02*
X4280529Y-16938674D01*
X4280529Y-16938674D02*
X4290053Y-16900579D01*
X4290053Y-16900579D02*
X4299577Y-16881531D01*
X4299577Y-16881531D02*
X4309101Y-16872008D01*
X4309101Y-16872008D02*
X4328148Y-16862484D01*
X4566244Y-16929150D02*
X4566244Y-17062484D01*
X4518625Y-16852960D02*
X4471006Y-16995817D01*
X4471006Y-16995817D02*
X4594815Y-16995817D01*
X4651958Y-16862484D02*
X4775768Y-16862484D01*
X4775768Y-16862484D02*
X4709101Y-16938674D01*
X4709101Y-16938674D02*
X4737672Y-16938674D01*
X4737672Y-16938674D02*
X4756720Y-16948198D01*
X4756720Y-16948198D02*
X4766244Y-16957722D01*
X4766244Y-16957722D02*
X4775768Y-16976770D01*
X4775768Y-16976770D02*
X4775768Y-17024389D01*
X4775768Y-17024389D02*
X4766244Y-17043436D01*
X4766244Y-17043436D02*
X4756720Y-17052960D01*
X4756720Y-17052960D02*
X4737672Y-17062484D01*
X4737672Y-17062484D02*
X4680529Y-17062484D01*
X4680529Y-17062484D02*
X4661482Y-17052960D01*
X4661482Y-17052960D02*
X4651958Y-17043436D01*
X4899577Y-16862484D02*
X4918625Y-16862484D01*
X4918625Y-16862484D02*
X4937672Y-16872008D01*
X4937672Y-16872008D02*
X4947196Y-16881531D01*
X4947196Y-16881531D02*
X4956720Y-16900579D01*
X4956720Y-16900579D02*
X4966244Y-16938674D01*
X4966244Y-16938674D02*
X4966244Y-16986293D01*
X4966244Y-16986293D02*
X4956720Y-17024389D01*
X4956720Y-17024389D02*
X4947196Y-17043436D01*
X4947196Y-17043436D02*
X4937672Y-17052960D01*
X4937672Y-17052960D02*
X4918625Y-17062484D01*
X4918625Y-17062484D02*
X4899577Y-17062484D01*
X4899577Y-17062484D02*
X4880529Y-17052960D01*
X4880529Y-17052960D02*
X4871006Y-17043436D01*
X4871006Y-17043436D02*
X4861482Y-17024389D01*
X4861482Y-17024389D02*
X4851958Y-16986293D01*
X4851958Y-16986293D02*
X4851958Y-16938674D01*
X4851958Y-16938674D02*
X4861482Y-16900579D01*
X4861482Y-16900579D02*
X4871006Y-16881531D01*
X4871006Y-16881531D02*
X4880529Y-16872008D01*
X4880529Y-16872008D02*
X4899577Y-16862484D01*
X5042434Y-16862484D02*
X5042434Y-16900579D01*
X5118625Y-16862484D02*
X5118625Y-16900579D01*
X5413863Y-17138674D02*
X5404339Y-17129150D01*
X5404339Y-17129150D02*
X5385291Y-17100579D01*
X5385291Y-17100579D02*
X5375768Y-17081531D01*
X5375768Y-17081531D02*
X5366244Y-17052960D01*
X5366244Y-17052960D02*
X5356720Y-17005341D01*
X5356720Y-17005341D02*
X5356720Y-16967246D01*
X5356720Y-16967246D02*
X5366244Y-16919627D01*
X5366244Y-16919627D02*
X5375768Y-16891055D01*
X5375768Y-16891055D02*
X5385291Y-16872008D01*
X5385291Y-16872008D02*
X5404339Y-16843436D01*
X5404339Y-16843436D02*
X5413863Y-16833912D01*
X5575768Y-16929150D02*
X5575768Y-17062484D01*
X5528149Y-16852960D02*
X5480530Y-16995817D01*
X5480530Y-16995817D02*
X5604339Y-16995817D01*
X5832910Y-17062484D02*
X5832910Y-16862484D01*
X5918625Y-17062484D02*
X5918625Y-16957722D01*
X5918625Y-16957722D02*
X5909101Y-16938674D01*
X5909101Y-16938674D02*
X5890053Y-16929150D01*
X5890053Y-16929150D02*
X5861482Y-16929150D01*
X5861482Y-16929150D02*
X5842434Y-16938674D01*
X5842434Y-16938674D02*
X5832910Y-16948198D01*
X6042434Y-17062484D02*
X6023387Y-17052960D01*
X6023387Y-17052960D02*
X6013863Y-17043436D01*
X6013863Y-17043436D02*
X6004339Y-17024389D01*
X6004339Y-17024389D02*
X6004339Y-16967246D01*
X6004339Y-16967246D02*
X6013863Y-16948198D01*
X6013863Y-16948198D02*
X6023387Y-16938674D01*
X6023387Y-16938674D02*
X6042434Y-16929150D01*
X6042434Y-16929150D02*
X6071006Y-16929150D01*
X6071006Y-16929150D02*
X6090053Y-16938674D01*
X6090053Y-16938674D02*
X6099577Y-16948198D01*
X6099577Y-16948198D02*
X6109101Y-16967246D01*
X6109101Y-16967246D02*
X6109101Y-17024389D01*
X6109101Y-17024389D02*
X6099577Y-17043436D01*
X6099577Y-17043436D02*
X6090053Y-17052960D01*
X6090053Y-17052960D02*
X6071006Y-17062484D01*
X6071006Y-17062484D02*
X6042434Y-17062484D01*
X6223387Y-17062484D02*
X6204339Y-17052960D01*
X6204339Y-17052960D02*
X6194815Y-17033912D01*
X6194815Y-17033912D02*
X6194815Y-16862484D01*
X6375768Y-17052960D02*
X6356720Y-17062484D01*
X6356720Y-17062484D02*
X6318625Y-17062484D01*
X6318625Y-17062484D02*
X6299577Y-17052960D01*
X6299577Y-17052960D02*
X6290053Y-17033912D01*
X6290053Y-17033912D02*
X6290053Y-16957722D01*
X6290053Y-16957722D02*
X6299577Y-16938674D01*
X6299577Y-16938674D02*
X6318625Y-16929150D01*
X6318625Y-16929150D02*
X6356720Y-16929150D01*
X6356720Y-16929150D02*
X6375768Y-16938674D01*
X6375768Y-16938674D02*
X6385291Y-16957722D01*
X6385291Y-16957722D02*
X6385291Y-16976770D01*
X6385291Y-16976770D02*
X6290053Y-16995817D01*
X6461482Y-17052960D02*
X6480530Y-17062484D01*
X6480530Y-17062484D02*
X6518625Y-17062484D01*
X6518625Y-17062484D02*
X6537672Y-17052960D01*
X6537672Y-17052960D02*
X6547196Y-17033912D01*
X6547196Y-17033912D02*
X6547196Y-17024389D01*
X6547196Y-17024389D02*
X6537672Y-17005341D01*
X6537672Y-17005341D02*
X6518625Y-16995817D01*
X6518625Y-16995817D02*
X6490053Y-16995817D01*
X6490053Y-16995817D02*
X6471006Y-16986293D01*
X6471006Y-16986293D02*
X6461482Y-16967246D01*
X6461482Y-16967246D02*
X6461482Y-16957722D01*
X6461482Y-16957722D02*
X6471006Y-16938674D01*
X6471006Y-16938674D02*
X6490053Y-16929150D01*
X6490053Y-16929150D02*
X6518625Y-16929150D01*
X6518625Y-16929150D02*
X6537672Y-16938674D01*
X6613863Y-17138674D02*
X6623387Y-17129150D01*
X6623387Y-17129150D02*
X6642434Y-17100579D01*
X6642434Y-17100579D02*
X6651958Y-17081531D01*
X6651958Y-17081531D02*
X6661482Y-17052960D01*
X6661482Y-17052960D02*
X6671006Y-17005341D01*
X6671006Y-17005341D02*
X6671006Y-16967246D01*
X6671006Y-16967246D02*
X6661482Y-16919627D01*
X6661482Y-16919627D02*
X6651958Y-16891055D01*
X6651958Y-16891055D02*
X6642434Y-16872008D01*
X6642434Y-16872008D02*
X6623387Y-16843436D01*
X6623387Y-16843436D02*
X6613863Y-16833912D01*
D17*
X1728800Y-17180000D02*
X1838800Y-17290000D01*
X1838800Y-17180000D02*
X1728800Y-17290000D01*
X1783800Y-17180000D02*
X1783800Y-17290000D01*
X1728800Y-17235000D02*
X1838800Y-17235000D01*
D11*
X2204339Y-17326484D02*
X2090053Y-17326484D01*
X2147196Y-17326484D02*
X2147196Y-17126484D01*
X2147196Y-17126484D02*
X2128148Y-17155055D01*
X2128148Y-17155055D02*
X2109101Y-17174103D01*
X2109101Y-17174103D02*
X2090053Y-17183627D01*
X2290053Y-17307436D02*
X2299577Y-17316960D01*
X2299577Y-17316960D02*
X2290053Y-17326484D01*
X2290053Y-17326484D02*
X2280529Y-17316960D01*
X2280529Y-17316960D02*
X2290053Y-17307436D01*
X2290053Y-17307436D02*
X2290053Y-17326484D01*
X2490053Y-17326484D02*
X2375767Y-17326484D01*
X2432910Y-17326484D02*
X2432910Y-17126484D01*
X2432910Y-17126484D02*
X2413863Y-17155055D01*
X2413863Y-17155055D02*
X2394815Y-17174103D01*
X2394815Y-17174103D02*
X2375767Y-17183627D01*
X2613863Y-17126484D02*
X2632910Y-17126484D01*
X2632910Y-17126484D02*
X2651958Y-17136008D01*
X2651958Y-17136008D02*
X2661482Y-17145531D01*
X2661482Y-17145531D02*
X2671005Y-17164579D01*
X2671005Y-17164579D02*
X2680529Y-17202674D01*
X2680529Y-17202674D02*
X2680529Y-17250293D01*
X2680529Y-17250293D02*
X2671005Y-17288389D01*
X2671005Y-17288389D02*
X2661482Y-17307436D01*
X2661482Y-17307436D02*
X2651958Y-17316960D01*
X2651958Y-17316960D02*
X2632910Y-17326484D01*
X2632910Y-17326484D02*
X2613863Y-17326484D01*
X2613863Y-17326484D02*
X2594815Y-17316960D01*
X2594815Y-17316960D02*
X2585291Y-17307436D01*
X2585291Y-17307436D02*
X2575767Y-17288389D01*
X2575767Y-17288389D02*
X2566244Y-17250293D01*
X2566244Y-17250293D02*
X2566244Y-17202674D01*
X2566244Y-17202674D02*
X2575767Y-17164579D01*
X2575767Y-17164579D02*
X2585291Y-17145531D01*
X2585291Y-17145531D02*
X2594815Y-17136008D01*
X2594815Y-17136008D02*
X2613863Y-17126484D01*
X2804339Y-17126484D02*
X2823386Y-17126484D01*
X2823386Y-17126484D02*
X2842434Y-17136008D01*
X2842434Y-17136008D02*
X2851958Y-17145531D01*
X2851958Y-17145531D02*
X2861482Y-17164579D01*
X2861482Y-17164579D02*
X2871005Y-17202674D01*
X2871005Y-17202674D02*
X2871005Y-17250293D01*
X2871005Y-17250293D02*
X2861482Y-17288389D01*
X2861482Y-17288389D02*
X2851958Y-17307436D01*
X2851958Y-17307436D02*
X2842434Y-17316960D01*
X2842434Y-17316960D02*
X2823386Y-17326484D01*
X2823386Y-17326484D02*
X2804339Y-17326484D01*
X2804339Y-17326484D02*
X2785291Y-17316960D01*
X2785291Y-17316960D02*
X2775767Y-17307436D01*
X2775767Y-17307436D02*
X2766244Y-17288389D01*
X2766244Y-17288389D02*
X2756720Y-17250293D01*
X2756720Y-17250293D02*
X2756720Y-17202674D01*
X2756720Y-17202674D02*
X2766244Y-17164579D01*
X2766244Y-17164579D02*
X2775767Y-17145531D01*
X2775767Y-17145531D02*
X2785291Y-17136008D01*
X2785291Y-17136008D02*
X2804339Y-17126484D01*
X2956720Y-17326484D02*
X2956720Y-17193150D01*
X2956720Y-17212198D02*
X2966243Y-17202674D01*
X2966243Y-17202674D02*
X2985291Y-17193150D01*
X2985291Y-17193150D02*
X3013863Y-17193150D01*
X3013863Y-17193150D02*
X3032910Y-17202674D01*
X3032910Y-17202674D02*
X3042434Y-17221722D01*
X3042434Y-17221722D02*
X3042434Y-17326484D01*
X3042434Y-17221722D02*
X3051958Y-17202674D01*
X3051958Y-17202674D02*
X3071005Y-17193150D01*
X3071005Y-17193150D02*
X3099577Y-17193150D01*
X3099577Y-17193150D02*
X3118624Y-17202674D01*
X3118624Y-17202674D02*
X3128148Y-17221722D01*
X3128148Y-17221722D02*
X3128148Y-17326484D01*
X3223386Y-17326484D02*
X3223386Y-17193150D01*
X3223386Y-17212198D02*
X3232910Y-17202674D01*
X3232910Y-17202674D02*
X3251958Y-17193150D01*
X3251958Y-17193150D02*
X3280529Y-17193150D01*
X3280529Y-17193150D02*
X3299577Y-17202674D01*
X3299577Y-17202674D02*
X3309101Y-17221722D01*
X3309101Y-17221722D02*
X3309101Y-17326484D01*
X3309101Y-17221722D02*
X3318624Y-17202674D01*
X3318624Y-17202674D02*
X3337672Y-17193150D01*
X3337672Y-17193150D02*
X3366243Y-17193150D01*
X3366243Y-17193150D02*
X3385291Y-17202674D01*
X3385291Y-17202674D02*
X3394815Y-17221722D01*
X3394815Y-17221722D02*
X3394815Y-17326484D01*
X3785291Y-17116960D02*
X3613863Y-17374103D01*
X4042434Y-17126484D02*
X4061482Y-17126484D01*
X4061482Y-17126484D02*
X4080529Y-17136008D01*
X4080529Y-17136008D02*
X4090053Y-17145531D01*
X4090053Y-17145531D02*
X4099577Y-17164579D01*
X4099577Y-17164579D02*
X4109101Y-17202674D01*
X4109101Y-17202674D02*
X4109101Y-17250293D01*
X4109101Y-17250293D02*
X4099577Y-17288389D01*
X4099577Y-17288389D02*
X4090053Y-17307436D01*
X4090053Y-17307436D02*
X4080529Y-17316960D01*
X4080529Y-17316960D02*
X4061482Y-17326484D01*
X4061482Y-17326484D02*
X4042434Y-17326484D01*
X4042434Y-17326484D02*
X4023386Y-17316960D01*
X4023386Y-17316960D02*
X4013863Y-17307436D01*
X4013863Y-17307436D02*
X4004339Y-17288389D01*
X4004339Y-17288389D02*
X3994815Y-17250293D01*
X3994815Y-17250293D02*
X3994815Y-17202674D01*
X3994815Y-17202674D02*
X4004339Y-17164579D01*
X4004339Y-17164579D02*
X4013863Y-17145531D01*
X4013863Y-17145531D02*
X4023386Y-17136008D01*
X4023386Y-17136008D02*
X4042434Y-17126484D01*
X4194815Y-17307436D02*
X4204339Y-17316960D01*
X4204339Y-17316960D02*
X4194815Y-17326484D01*
X4194815Y-17326484D02*
X4185291Y-17316960D01*
X4185291Y-17316960D02*
X4194815Y-17307436D01*
X4194815Y-17307436D02*
X4194815Y-17326484D01*
X4328148Y-17126484D02*
X4347196Y-17126484D01*
X4347196Y-17126484D02*
X4366244Y-17136008D01*
X4366244Y-17136008D02*
X4375768Y-17145531D01*
X4375768Y-17145531D02*
X4385291Y-17164579D01*
X4385291Y-17164579D02*
X4394815Y-17202674D01*
X4394815Y-17202674D02*
X4394815Y-17250293D01*
X4394815Y-17250293D02*
X4385291Y-17288389D01*
X4385291Y-17288389D02*
X4375768Y-17307436D01*
X4375768Y-17307436D02*
X4366244Y-17316960D01*
X4366244Y-17316960D02*
X4347196Y-17326484D01*
X4347196Y-17326484D02*
X4328148Y-17326484D01*
X4328148Y-17326484D02*
X4309101Y-17316960D01*
X4309101Y-17316960D02*
X4299577Y-17307436D01*
X4299577Y-17307436D02*
X4290053Y-17288389D01*
X4290053Y-17288389D02*
X4280529Y-17250293D01*
X4280529Y-17250293D02*
X4280529Y-17202674D01*
X4280529Y-17202674D02*
X4290053Y-17164579D01*
X4290053Y-17164579D02*
X4299577Y-17145531D01*
X4299577Y-17145531D02*
X4309101Y-17136008D01*
X4309101Y-17136008D02*
X4328148Y-17126484D01*
X4566244Y-17193150D02*
X4566244Y-17326484D01*
X4518625Y-17116960D02*
X4471006Y-17259817D01*
X4471006Y-17259817D02*
X4594815Y-17259817D01*
X4651958Y-17126484D02*
X4775768Y-17126484D01*
X4775768Y-17126484D02*
X4709101Y-17202674D01*
X4709101Y-17202674D02*
X4737672Y-17202674D01*
X4737672Y-17202674D02*
X4756720Y-17212198D01*
X4756720Y-17212198D02*
X4766244Y-17221722D01*
X4766244Y-17221722D02*
X4775768Y-17240770D01*
X4775768Y-17240770D02*
X4775768Y-17288389D01*
X4775768Y-17288389D02*
X4766244Y-17307436D01*
X4766244Y-17307436D02*
X4756720Y-17316960D01*
X4756720Y-17316960D02*
X4737672Y-17326484D01*
X4737672Y-17326484D02*
X4680529Y-17326484D01*
X4680529Y-17326484D02*
X4661482Y-17316960D01*
X4661482Y-17316960D02*
X4651958Y-17307436D01*
X4842434Y-17126484D02*
X4966244Y-17126484D01*
X4966244Y-17126484D02*
X4899577Y-17202674D01*
X4899577Y-17202674D02*
X4928149Y-17202674D01*
X4928149Y-17202674D02*
X4947196Y-17212198D01*
X4947196Y-17212198D02*
X4956720Y-17221722D01*
X4956720Y-17221722D02*
X4966244Y-17240770D01*
X4966244Y-17240770D02*
X4966244Y-17288389D01*
X4966244Y-17288389D02*
X4956720Y-17307436D01*
X4956720Y-17307436D02*
X4947196Y-17316960D01*
X4947196Y-17316960D02*
X4928149Y-17326484D01*
X4928149Y-17326484D02*
X4871006Y-17326484D01*
X4871006Y-17326484D02*
X4851958Y-17316960D01*
X4851958Y-17316960D02*
X4842434Y-17307436D01*
X5042434Y-17126484D02*
X5042434Y-17164579D01*
X5118625Y-17126484D02*
X5118625Y-17164579D01*
X5413863Y-17402674D02*
X5404339Y-17393150D01*
X5404339Y-17393150D02*
X5385291Y-17364579D01*
X5385291Y-17364579D02*
X5375768Y-17345531D01*
X5375768Y-17345531D02*
X5366244Y-17316960D01*
X5366244Y-17316960D02*
X5356720Y-17269341D01*
X5356720Y-17269341D02*
X5356720Y-17231246D01*
X5356720Y-17231246D02*
X5366244Y-17183627D01*
X5366244Y-17183627D02*
X5375768Y-17155055D01*
X5375768Y-17155055D02*
X5385291Y-17136008D01*
X5385291Y-17136008D02*
X5404339Y-17107436D01*
X5404339Y-17107436D02*
X5413863Y-17097912D01*
X5518625Y-17212198D02*
X5499577Y-17202674D01*
X5499577Y-17202674D02*
X5490053Y-17193150D01*
X5490053Y-17193150D02*
X5480530Y-17174103D01*
X5480530Y-17174103D02*
X5480530Y-17164579D01*
X5480530Y-17164579D02*
X5490053Y-17145531D01*
X5490053Y-17145531D02*
X5499577Y-17136008D01*
X5499577Y-17136008D02*
X5518625Y-17126484D01*
X5518625Y-17126484D02*
X5556720Y-17126484D01*
X5556720Y-17126484D02*
X5575768Y-17136008D01*
X5575768Y-17136008D02*
X5585291Y-17145531D01*
X5585291Y-17145531D02*
X5594815Y-17164579D01*
X5594815Y-17164579D02*
X5594815Y-17174103D01*
X5594815Y-17174103D02*
X5585291Y-17193150D01*
X5585291Y-17193150D02*
X5575768Y-17202674D01*
X5575768Y-17202674D02*
X5556720Y-17212198D01*
X5556720Y-17212198D02*
X5518625Y-17212198D01*
X5518625Y-17212198D02*
X5499577Y-17221722D01*
X5499577Y-17221722D02*
X5490053Y-17231246D01*
X5490053Y-17231246D02*
X5480530Y-17250293D01*
X5480530Y-17250293D02*
X5480530Y-17288389D01*
X5480530Y-17288389D02*
X5490053Y-17307436D01*
X5490053Y-17307436D02*
X5499577Y-17316960D01*
X5499577Y-17316960D02*
X5518625Y-17326484D01*
X5518625Y-17326484D02*
X5556720Y-17326484D01*
X5556720Y-17326484D02*
X5575768Y-17316960D01*
X5575768Y-17316960D02*
X5585291Y-17307436D01*
X5585291Y-17307436D02*
X5594815Y-17288389D01*
X5594815Y-17288389D02*
X5594815Y-17250293D01*
X5594815Y-17250293D02*
X5585291Y-17231246D01*
X5585291Y-17231246D02*
X5575768Y-17221722D01*
X5575768Y-17221722D02*
X5556720Y-17212198D01*
X5832910Y-17326484D02*
X5832910Y-17126484D01*
X5918625Y-17326484D02*
X5918625Y-17221722D01*
X5918625Y-17221722D02*
X5909101Y-17202674D01*
X5909101Y-17202674D02*
X5890053Y-17193150D01*
X5890053Y-17193150D02*
X5861482Y-17193150D01*
X5861482Y-17193150D02*
X5842434Y-17202674D01*
X5842434Y-17202674D02*
X5832910Y-17212198D01*
X6042434Y-17326484D02*
X6023387Y-17316960D01*
X6023387Y-17316960D02*
X6013863Y-17307436D01*
X6013863Y-17307436D02*
X6004339Y-17288389D01*
X6004339Y-17288389D02*
X6004339Y-17231246D01*
X6004339Y-17231246D02*
X6013863Y-17212198D01*
X6013863Y-17212198D02*
X6023387Y-17202674D01*
X6023387Y-17202674D02*
X6042434Y-17193150D01*
X6042434Y-17193150D02*
X6071006Y-17193150D01*
X6071006Y-17193150D02*
X6090053Y-17202674D01*
X6090053Y-17202674D02*
X6099577Y-17212198D01*
X6099577Y-17212198D02*
X6109101Y-17231246D01*
X6109101Y-17231246D02*
X6109101Y-17288389D01*
X6109101Y-17288389D02*
X6099577Y-17307436D01*
X6099577Y-17307436D02*
X6090053Y-17316960D01*
X6090053Y-17316960D02*
X6071006Y-17326484D01*
X6071006Y-17326484D02*
X6042434Y-17326484D01*
X6223387Y-17326484D02*
X6204339Y-17316960D01*
X6204339Y-17316960D02*
X6194815Y-17297912D01*
X6194815Y-17297912D02*
X6194815Y-17126484D01*
X6375768Y-17316960D02*
X6356720Y-17326484D01*
X6356720Y-17326484D02*
X6318625Y-17326484D01*
X6318625Y-17326484D02*
X6299577Y-17316960D01*
X6299577Y-17316960D02*
X6290053Y-17297912D01*
X6290053Y-17297912D02*
X6290053Y-17221722D01*
X6290053Y-17221722D02*
X6299577Y-17202674D01*
X6299577Y-17202674D02*
X6318625Y-17193150D01*
X6318625Y-17193150D02*
X6356720Y-17193150D01*
X6356720Y-17193150D02*
X6375768Y-17202674D01*
X6375768Y-17202674D02*
X6385291Y-17221722D01*
X6385291Y-17221722D02*
X6385291Y-17240770D01*
X6385291Y-17240770D02*
X6290053Y-17259817D01*
X6461482Y-17316960D02*
X6480530Y-17326484D01*
X6480530Y-17326484D02*
X6518625Y-17326484D01*
X6518625Y-17326484D02*
X6537672Y-17316960D01*
X6537672Y-17316960D02*
X6547196Y-17297912D01*
X6547196Y-17297912D02*
X6547196Y-17288389D01*
X6547196Y-17288389D02*
X6537672Y-17269341D01*
X6537672Y-17269341D02*
X6518625Y-17259817D01*
X6518625Y-17259817D02*
X6490053Y-17259817D01*
X6490053Y-17259817D02*
X6471006Y-17250293D01*
X6471006Y-17250293D02*
X6461482Y-17231246D01*
X6461482Y-17231246D02*
X6461482Y-17221722D01*
X6461482Y-17221722D02*
X6471006Y-17202674D01*
X6471006Y-17202674D02*
X6490053Y-17193150D01*
X6490053Y-17193150D02*
X6518625Y-17193150D01*
X6518625Y-17193150D02*
X6537672Y-17202674D01*
X6613863Y-17402674D02*
X6623387Y-17393150D01*
X6623387Y-17393150D02*
X6642434Y-17364579D01*
X6642434Y-17364579D02*
X6651958Y-17345531D01*
X6651958Y-17345531D02*
X6661482Y-17316960D01*
X6661482Y-17316960D02*
X6671006Y-17269341D01*
X6671006Y-17269341D02*
X6671006Y-17231246D01*
X6671006Y-17231246D02*
X6661482Y-17183627D01*
X6661482Y-17183627D02*
X6651958Y-17155055D01*
X6651958Y-17155055D02*
X6642434Y-17136008D01*
X6642434Y-17136008D02*
X6623387Y-17107436D01*
X6623387Y-17107436D02*
X6613863Y-17097912D01*
D18*
X1688800Y-17424000D02*
X1838800Y-17574000D01*
X1838800Y-17424000D02*
X1688800Y-17574000D01*
X1816833Y-17552034D02*
X1816833Y-17445967D01*
X1710766Y-17445967D01*
X1710766Y-17552034D01*
X1816833Y-17552034D01*
D11*
X2204339Y-17590484D02*
X2090053Y-17590484D01*
X2147196Y-17590484D02*
X2147196Y-17390484D01*
X2147196Y-17390484D02*
X2128148Y-17419055D01*
X2128148Y-17419055D02*
X2109101Y-17438103D01*
X2109101Y-17438103D02*
X2090053Y-17447627D01*
X2290053Y-17571436D02*
X2299577Y-17580960D01*
X2299577Y-17580960D02*
X2290053Y-17590484D01*
X2290053Y-17590484D02*
X2280529Y-17580960D01*
X2280529Y-17580960D02*
X2290053Y-17571436D01*
X2290053Y-17571436D02*
X2290053Y-17590484D01*
X2480529Y-17390484D02*
X2385291Y-17390484D01*
X2385291Y-17390484D02*
X2375767Y-17485722D01*
X2375767Y-17485722D02*
X2385291Y-17476198D01*
X2385291Y-17476198D02*
X2404339Y-17466674D01*
X2404339Y-17466674D02*
X2451958Y-17466674D01*
X2451958Y-17466674D02*
X2471005Y-17476198D01*
X2471005Y-17476198D02*
X2480529Y-17485722D01*
X2480529Y-17485722D02*
X2490053Y-17504770D01*
X2490053Y-17504770D02*
X2490053Y-17552389D01*
X2490053Y-17552389D02*
X2480529Y-17571436D01*
X2480529Y-17571436D02*
X2471005Y-17580960D01*
X2471005Y-17580960D02*
X2451958Y-17590484D01*
X2451958Y-17590484D02*
X2404339Y-17590484D01*
X2404339Y-17590484D02*
X2385291Y-17580960D01*
X2385291Y-17580960D02*
X2375767Y-17571436D01*
X2613863Y-17390484D02*
X2632910Y-17390484D01*
X2632910Y-17390484D02*
X2651958Y-17400008D01*
X2651958Y-17400008D02*
X2661482Y-17409531D01*
X2661482Y-17409531D02*
X2671005Y-17428579D01*
X2671005Y-17428579D02*
X2680529Y-17466674D01*
X2680529Y-17466674D02*
X2680529Y-17514293D01*
X2680529Y-17514293D02*
X2671005Y-17552389D01*
X2671005Y-17552389D02*
X2661482Y-17571436D01*
X2661482Y-17571436D02*
X2651958Y-17580960D01*
X2651958Y-17580960D02*
X2632910Y-17590484D01*
X2632910Y-17590484D02*
X2613863Y-17590484D01*
X2613863Y-17590484D02*
X2594815Y-17580960D01*
X2594815Y-17580960D02*
X2585291Y-17571436D01*
X2585291Y-17571436D02*
X2575767Y-17552389D01*
X2575767Y-17552389D02*
X2566244Y-17514293D01*
X2566244Y-17514293D02*
X2566244Y-17466674D01*
X2566244Y-17466674D02*
X2575767Y-17428579D01*
X2575767Y-17428579D02*
X2585291Y-17409531D01*
X2585291Y-17409531D02*
X2594815Y-17400008D01*
X2594815Y-17400008D02*
X2613863Y-17390484D01*
X2804339Y-17390484D02*
X2823386Y-17390484D01*
X2823386Y-17390484D02*
X2842434Y-17400008D01*
X2842434Y-17400008D02*
X2851958Y-17409531D01*
X2851958Y-17409531D02*
X2861482Y-17428579D01*
X2861482Y-17428579D02*
X2871005Y-17466674D01*
X2871005Y-17466674D02*
X2871005Y-17514293D01*
X2871005Y-17514293D02*
X2861482Y-17552389D01*
X2861482Y-17552389D02*
X2851958Y-17571436D01*
X2851958Y-17571436D02*
X2842434Y-17580960D01*
X2842434Y-17580960D02*
X2823386Y-17590484D01*
X2823386Y-17590484D02*
X2804339Y-17590484D01*
X2804339Y-17590484D02*
X2785291Y-17580960D01*
X2785291Y-17580960D02*
X2775767Y-17571436D01*
X2775767Y-17571436D02*
X2766244Y-17552389D01*
X2766244Y-17552389D02*
X2756720Y-17514293D01*
X2756720Y-17514293D02*
X2756720Y-17466674D01*
X2756720Y-17466674D02*
X2766244Y-17428579D01*
X2766244Y-17428579D02*
X2775767Y-17409531D01*
X2775767Y-17409531D02*
X2785291Y-17400008D01*
X2785291Y-17400008D02*
X2804339Y-17390484D01*
X2956720Y-17590484D02*
X2956720Y-17457150D01*
X2956720Y-17476198D02*
X2966243Y-17466674D01*
X2966243Y-17466674D02*
X2985291Y-17457150D01*
X2985291Y-17457150D02*
X3013863Y-17457150D01*
X3013863Y-17457150D02*
X3032910Y-17466674D01*
X3032910Y-17466674D02*
X3042434Y-17485722D01*
X3042434Y-17485722D02*
X3042434Y-17590484D01*
X3042434Y-17485722D02*
X3051958Y-17466674D01*
X3051958Y-17466674D02*
X3071005Y-17457150D01*
X3071005Y-17457150D02*
X3099577Y-17457150D01*
X3099577Y-17457150D02*
X3118624Y-17466674D01*
X3118624Y-17466674D02*
X3128148Y-17485722D01*
X3128148Y-17485722D02*
X3128148Y-17590484D01*
X3223386Y-17590484D02*
X3223386Y-17457150D01*
X3223386Y-17476198D02*
X3232910Y-17466674D01*
X3232910Y-17466674D02*
X3251958Y-17457150D01*
X3251958Y-17457150D02*
X3280529Y-17457150D01*
X3280529Y-17457150D02*
X3299577Y-17466674D01*
X3299577Y-17466674D02*
X3309101Y-17485722D01*
X3309101Y-17485722D02*
X3309101Y-17590484D01*
X3309101Y-17485722D02*
X3318624Y-17466674D01*
X3318624Y-17466674D02*
X3337672Y-17457150D01*
X3337672Y-17457150D02*
X3366243Y-17457150D01*
X3366243Y-17457150D02*
X3385291Y-17466674D01*
X3385291Y-17466674D02*
X3394815Y-17485722D01*
X3394815Y-17485722D02*
X3394815Y-17590484D01*
X3785291Y-17380960D02*
X3613863Y-17638103D01*
X4042434Y-17390484D02*
X4061482Y-17390484D01*
X4061482Y-17390484D02*
X4080529Y-17400008D01*
X4080529Y-17400008D02*
X4090053Y-17409531D01*
X4090053Y-17409531D02*
X4099577Y-17428579D01*
X4099577Y-17428579D02*
X4109101Y-17466674D01*
X4109101Y-17466674D02*
X4109101Y-17514293D01*
X4109101Y-17514293D02*
X4099577Y-17552389D01*
X4099577Y-17552389D02*
X4090053Y-17571436D01*
X4090053Y-17571436D02*
X4080529Y-17580960D01*
X4080529Y-17580960D02*
X4061482Y-17590484D01*
X4061482Y-17590484D02*
X4042434Y-17590484D01*
X4042434Y-17590484D02*
X4023386Y-17580960D01*
X4023386Y-17580960D02*
X4013863Y-17571436D01*
X4013863Y-17571436D02*
X4004339Y-17552389D01*
X4004339Y-17552389D02*
X3994815Y-17514293D01*
X3994815Y-17514293D02*
X3994815Y-17466674D01*
X3994815Y-17466674D02*
X4004339Y-17428579D01*
X4004339Y-17428579D02*
X4013863Y-17409531D01*
X4013863Y-17409531D02*
X4023386Y-17400008D01*
X4023386Y-17400008D02*
X4042434Y-17390484D01*
X4194815Y-17571436D02*
X4204339Y-17580960D01*
X4204339Y-17580960D02*
X4194815Y-17590484D01*
X4194815Y-17590484D02*
X4185291Y-17580960D01*
X4185291Y-17580960D02*
X4194815Y-17571436D01*
X4194815Y-17571436D02*
X4194815Y-17590484D01*
X4328148Y-17390484D02*
X4347196Y-17390484D01*
X4347196Y-17390484D02*
X4366244Y-17400008D01*
X4366244Y-17400008D02*
X4375768Y-17409531D01*
X4375768Y-17409531D02*
X4385291Y-17428579D01*
X4385291Y-17428579D02*
X4394815Y-17466674D01*
X4394815Y-17466674D02*
X4394815Y-17514293D01*
X4394815Y-17514293D02*
X4385291Y-17552389D01*
X4385291Y-17552389D02*
X4375768Y-17571436D01*
X4375768Y-17571436D02*
X4366244Y-17580960D01*
X4366244Y-17580960D02*
X4347196Y-17590484D01*
X4347196Y-17590484D02*
X4328148Y-17590484D01*
X4328148Y-17590484D02*
X4309101Y-17580960D01*
X4309101Y-17580960D02*
X4299577Y-17571436D01*
X4299577Y-17571436D02*
X4290053Y-17552389D01*
X4290053Y-17552389D02*
X4280529Y-17514293D01*
X4280529Y-17514293D02*
X4280529Y-17466674D01*
X4280529Y-17466674D02*
X4290053Y-17428579D01*
X4290053Y-17428579D02*
X4299577Y-17409531D01*
X4299577Y-17409531D02*
X4309101Y-17400008D01*
X4309101Y-17400008D02*
X4328148Y-17390484D01*
X4575768Y-17390484D02*
X4480529Y-17390484D01*
X4480529Y-17390484D02*
X4471006Y-17485722D01*
X4471006Y-17485722D02*
X4480529Y-17476198D01*
X4480529Y-17476198D02*
X4499577Y-17466674D01*
X4499577Y-17466674D02*
X4547196Y-17466674D01*
X4547196Y-17466674D02*
X4566244Y-17476198D01*
X4566244Y-17476198D02*
X4575768Y-17485722D01*
X4575768Y-17485722D02*
X4585291Y-17504770D01*
X4585291Y-17504770D02*
X4585291Y-17552389D01*
X4585291Y-17552389D02*
X4575768Y-17571436D01*
X4575768Y-17571436D02*
X4566244Y-17580960D01*
X4566244Y-17580960D02*
X4547196Y-17590484D01*
X4547196Y-17590484D02*
X4499577Y-17590484D01*
X4499577Y-17590484D02*
X4480529Y-17580960D01*
X4480529Y-17580960D02*
X4471006Y-17571436D01*
X4680529Y-17590484D02*
X4718625Y-17590484D01*
X4718625Y-17590484D02*
X4737672Y-17580960D01*
X4737672Y-17580960D02*
X4747196Y-17571436D01*
X4747196Y-17571436D02*
X4766244Y-17542865D01*
X4766244Y-17542865D02*
X4775768Y-17504770D01*
X4775768Y-17504770D02*
X4775768Y-17428579D01*
X4775768Y-17428579D02*
X4766244Y-17409531D01*
X4766244Y-17409531D02*
X4756720Y-17400008D01*
X4756720Y-17400008D02*
X4737672Y-17390484D01*
X4737672Y-17390484D02*
X4699577Y-17390484D01*
X4699577Y-17390484D02*
X4680529Y-17400008D01*
X4680529Y-17400008D02*
X4671006Y-17409531D01*
X4671006Y-17409531D02*
X4661482Y-17428579D01*
X4661482Y-17428579D02*
X4661482Y-17476198D01*
X4661482Y-17476198D02*
X4671006Y-17495246D01*
X4671006Y-17495246D02*
X4680529Y-17504770D01*
X4680529Y-17504770D02*
X4699577Y-17514293D01*
X4699577Y-17514293D02*
X4737672Y-17514293D01*
X4737672Y-17514293D02*
X4756720Y-17504770D01*
X4756720Y-17504770D02*
X4766244Y-17495246D01*
X4766244Y-17495246D02*
X4775768Y-17476198D01*
X4966244Y-17590484D02*
X4851958Y-17590484D01*
X4909101Y-17590484D02*
X4909101Y-17390484D01*
X4909101Y-17390484D02*
X4890053Y-17419055D01*
X4890053Y-17419055D02*
X4871006Y-17438103D01*
X4871006Y-17438103D02*
X4851958Y-17447627D01*
X5042434Y-17390484D02*
X5042434Y-17428579D01*
X5118625Y-17390484D02*
X5118625Y-17428579D01*
X5413863Y-17666674D02*
X5404339Y-17657150D01*
X5404339Y-17657150D02*
X5385291Y-17628579D01*
X5385291Y-17628579D02*
X5375768Y-17609531D01*
X5375768Y-17609531D02*
X5366244Y-17580960D01*
X5366244Y-17580960D02*
X5356720Y-17533341D01*
X5356720Y-17533341D02*
X5356720Y-17495246D01*
X5356720Y-17495246D02*
X5366244Y-17447627D01*
X5366244Y-17447627D02*
X5375768Y-17419055D01*
X5375768Y-17419055D02*
X5385291Y-17400008D01*
X5385291Y-17400008D02*
X5404339Y-17371436D01*
X5404339Y-17371436D02*
X5413863Y-17361912D01*
X5594815Y-17590484D02*
X5480530Y-17590484D01*
X5537672Y-17590484D02*
X5537672Y-17390484D01*
X5537672Y-17390484D02*
X5518625Y-17419055D01*
X5518625Y-17419055D02*
X5499577Y-17438103D01*
X5499577Y-17438103D02*
X5480530Y-17447627D01*
X5775768Y-17390484D02*
X5680529Y-17390484D01*
X5680529Y-17390484D02*
X5671006Y-17485722D01*
X5671006Y-17485722D02*
X5680529Y-17476198D01*
X5680529Y-17476198D02*
X5699577Y-17466674D01*
X5699577Y-17466674D02*
X5747196Y-17466674D01*
X5747196Y-17466674D02*
X5766244Y-17476198D01*
X5766244Y-17476198D02*
X5775768Y-17485722D01*
X5775768Y-17485722D02*
X5785291Y-17504770D01*
X5785291Y-17504770D02*
X5785291Y-17552389D01*
X5785291Y-17552389D02*
X5775768Y-17571436D01*
X5775768Y-17571436D02*
X5766244Y-17580960D01*
X5766244Y-17580960D02*
X5747196Y-17590484D01*
X5747196Y-17590484D02*
X5699577Y-17590484D01*
X5699577Y-17590484D02*
X5680529Y-17580960D01*
X5680529Y-17580960D02*
X5671006Y-17571436D01*
X5956720Y-17457150D02*
X5956720Y-17590484D01*
X5909101Y-17380960D02*
X5861482Y-17523817D01*
X5861482Y-17523817D02*
X5985291Y-17523817D01*
X6213863Y-17590484D02*
X6213863Y-17390484D01*
X6299577Y-17590484D02*
X6299577Y-17485722D01*
X6299577Y-17485722D02*
X6290053Y-17466674D01*
X6290053Y-17466674D02*
X6271006Y-17457150D01*
X6271006Y-17457150D02*
X6242434Y-17457150D01*
X6242434Y-17457150D02*
X6223387Y-17466674D01*
X6223387Y-17466674D02*
X6213863Y-17476198D01*
X6423387Y-17590484D02*
X6404339Y-17580960D01*
X6404339Y-17580960D02*
X6394815Y-17571436D01*
X6394815Y-17571436D02*
X6385291Y-17552389D01*
X6385291Y-17552389D02*
X6385291Y-17495246D01*
X6385291Y-17495246D02*
X6394815Y-17476198D01*
X6394815Y-17476198D02*
X6404339Y-17466674D01*
X6404339Y-17466674D02*
X6423387Y-17457150D01*
X6423387Y-17457150D02*
X6451958Y-17457150D01*
X6451958Y-17457150D02*
X6471006Y-17466674D01*
X6471006Y-17466674D02*
X6480530Y-17476198D01*
X6480530Y-17476198D02*
X6490053Y-17495246D01*
X6490053Y-17495246D02*
X6490053Y-17552389D01*
X6490053Y-17552389D02*
X6480530Y-17571436D01*
X6480530Y-17571436D02*
X6471006Y-17580960D01*
X6471006Y-17580960D02*
X6451958Y-17590484D01*
X6451958Y-17590484D02*
X6423387Y-17590484D01*
X6604339Y-17590484D02*
X6585291Y-17580960D01*
X6585291Y-17580960D02*
X6575768Y-17561912D01*
X6575768Y-17561912D02*
X6575768Y-17390484D01*
X6756720Y-17580960D02*
X6737672Y-17590484D01*
X6737672Y-17590484D02*
X6699577Y-17590484D01*
X6699577Y-17590484D02*
X6680530Y-17580960D01*
X6680530Y-17580960D02*
X6671006Y-17561912D01*
X6671006Y-17561912D02*
X6671006Y-17485722D01*
X6671006Y-17485722D02*
X6680530Y-17466674D01*
X6680530Y-17466674D02*
X6699577Y-17457150D01*
X6699577Y-17457150D02*
X6737672Y-17457150D01*
X6737672Y-17457150D02*
X6756720Y-17466674D01*
X6756720Y-17466674D02*
X6766244Y-17485722D01*
X6766244Y-17485722D02*
X6766244Y-17504770D01*
X6766244Y-17504770D02*
X6671006Y-17523817D01*
X6842434Y-17580960D02*
X6861482Y-17590484D01*
X6861482Y-17590484D02*
X6899577Y-17590484D01*
X6899577Y-17590484D02*
X6918625Y-17580960D01*
X6918625Y-17580960D02*
X6928149Y-17561912D01*
X6928149Y-17561912D02*
X6928149Y-17552389D01*
X6928149Y-17552389D02*
X6918625Y-17533341D01*
X6918625Y-17533341D02*
X6899577Y-17523817D01*
X6899577Y-17523817D02*
X6871006Y-17523817D01*
X6871006Y-17523817D02*
X6851958Y-17514293D01*
X6851958Y-17514293D02*
X6842434Y-17495246D01*
X6842434Y-17495246D02*
X6842434Y-17485722D01*
X6842434Y-17485722D02*
X6851958Y-17466674D01*
X6851958Y-17466674D02*
X6871006Y-17457150D01*
X6871006Y-17457150D02*
X6899577Y-17457150D01*
X6899577Y-17457150D02*
X6918625Y-17466674D01*
X6994815Y-17666674D02*
X7004339Y-17657150D01*
X7004339Y-17657150D02*
X7023387Y-17628579D01*
X7023387Y-17628579D02*
X7032911Y-17609531D01*
X7032911Y-17609531D02*
X7042434Y-17580960D01*
X7042434Y-17580960D02*
X7051958Y-17533341D01*
X7051958Y-17533341D02*
X7051958Y-17495246D01*
X7051958Y-17495246D02*
X7042434Y-17447627D01*
X7042434Y-17447627D02*
X7032911Y-17419055D01*
X7032911Y-17419055D02*
X7023387Y-17400008D01*
X7023387Y-17400008D02*
X7004339Y-17371436D01*
X7004339Y-17371436D02*
X6994815Y-17361912D01*
M02*
