%TF.GenerationSoftware,KiCad,Pcbnew,7.0.6*%
%TF.CreationDate,2024-02-02T12:38:06-05:00*%
%TF.ProjectId,causeway_THT,63617573-6577-4617-995f-5448542e6b69,rev?*%
%TF.SameCoordinates,Original*%
%TF.FileFunction,Soldermask,Bot*%
%TF.FilePolarity,Negative*%
%FSLAX46Y46*%
G04 Gerber Fmt 4.6, Leading zero omitted, Abs format (unit mm)*
G04 Created by KiCad (PCBNEW 7.0.6) date 2024-02-02 12:38:06*
%MOMM*%
%LPD*%
G01*
G04 APERTURE LIST*
G04 Aperture macros list*
%AMRoundRect*
0 Rectangle with rounded corners*
0 $1 Rounding radius*
0 $2 $3 $4 $5 $6 $7 $8 $9 X,Y pos of 4 corners*
0 Add a 4 corners polygon primitive as box body*
4,1,4,$2,$3,$4,$5,$6,$7,$8,$9,$2,$3,0*
0 Add four circle primitives for the rounded corners*
1,1,$1+$1,$2,$3*
1,1,$1+$1,$4,$5*
1,1,$1+$1,$6,$7*
1,1,$1+$1,$8,$9*
0 Add four rect primitives between the rounded corners*
20,1,$1+$1,$2,$3,$4,$5,0*
20,1,$1+$1,$4,$5,$6,$7,0*
20,1,$1+$1,$6,$7,$8,$9,0*
20,1,$1+$1,$8,$9,$2,$3,0*%
G04 Aperture macros list end*
%ADD10C,1.700000*%
%ADD11C,4.000000*%
%ADD12C,2.200000*%
%ADD13R,1.600000X1.600000*%
%ADD14O,1.600000X1.600000*%
%ADD15C,1.750000*%
%ADD16C,2.500000*%
%ADD17C,1.600000*%
%ADD18C,3.048000*%
%ADD19C,3.987800*%
%ADD20C,2.700000*%
%ADD21C,3.200000*%
%ADD22C,1.500000*%
%ADD23C,1.752600*%
%ADD24C,3.050000*%
%ADD25C,1.524000*%
%ADD26C,2.000000*%
%ADD27RoundRect,0.438150X-0.438150X-0.438150X0.438150X-0.438150X0.438150X0.438150X-0.438150X0.438150X0*%
%ADD28RoundRect,0.252000X0.150000X0.150000X-0.150000X0.150000X-0.150000X-0.150000X0.150000X-0.150000X0*%
%ADD29C,0.804000*%
%ADD30O,1.104000X2.104000*%
G04 APERTURE END LIST*
D10*
%TO.C,SW16*%
X52070000Y-81280000D03*
D11*
X57150000Y-81280000D03*
D10*
X62230000Y-81280000D03*
D12*
X59690000Y-76200000D03*
X53340000Y-78740000D03*
%TD*%
D13*
%TO.C,D61*%
X112418000Y-31600000D03*
D14*
X112418000Y-39220000D03*
%TD*%
D13*
%TO.C,D22*%
X193698000Y-39220000D03*
D14*
X193698000Y-46840000D03*
%TD*%
D10*
%TO.C,SW8*%
X166370000Y-62230000D03*
D11*
X171450000Y-62230000D03*
D10*
X176530000Y-62230000D03*
D12*
X173990000Y-57150000D03*
X167640000Y-59690000D03*
%TD*%
D13*
%TO.C,D11*%
X226718000Y-41760000D03*
D14*
X226718000Y-49380000D03*
%TD*%
D13*
%TO.C,D46*%
X89558000Y-34140000D03*
D14*
X89558000Y-41760000D03*
%TD*%
D10*
%TO.C,SW36*%
X166370000Y-100330000D03*
D11*
X171450000Y-100330000D03*
D10*
X176530000Y-100330000D03*
D12*
X173990000Y-95250000D03*
X167640000Y-97790000D03*
%TD*%
D15*
%TO.C,SW14*%
X285432000Y-62230000D03*
D11*
X290512000Y-62230000D03*
D15*
X295592000Y-62230000D03*
D16*
X286702000Y-59690000D03*
X293052000Y-57150000D03*
%TD*%
D10*
%TO.C,SW71*%
X109248000Y-138440000D03*
D11*
X114328000Y-138440000D03*
D10*
X119408000Y-138440000D03*
D12*
X116868000Y-133360000D03*
X110518000Y-135900000D03*
%TD*%
D17*
%TO.C,R5*%
X38758000Y-41760000D03*
D14*
X31138000Y-41760000D03*
%TD*%
D13*
%TO.C,D3*%
X84478000Y-41760000D03*
D14*
X84478000Y-49380000D03*
%TD*%
D10*
%TO.C,SW51*%
X185420000Y-119380000D03*
D11*
X190500000Y-119380000D03*
D10*
X195580000Y-119380000D03*
D12*
X193040000Y-114300000D03*
X186690000Y-116840000D03*
%TD*%
D10*
%TO.C,SW2*%
X52070000Y-62230000D03*
D11*
X57150000Y-62230000D03*
D10*
X62230000Y-62230000D03*
D12*
X59690000Y-57150000D03*
X53340000Y-59690000D03*
%TD*%
D15*
%TO.C,SW28*%
X285432000Y-81280000D03*
D11*
X290512000Y-81280000D03*
D15*
X295592000Y-81280000D03*
D16*
X286702000Y-78740000D03*
X293052000Y-76200000D03*
%TD*%
D17*
%TO.C,R1*%
X38758000Y-44300000D03*
D14*
X31138000Y-44300000D03*
%TD*%
D10*
%TO.C,SW64*%
X252730000Y-138430000D03*
D11*
X247650000Y-138430000D03*
D10*
X242570000Y-138430000D03*
D12*
X245110000Y-143510000D03*
X251460000Y-140970000D03*
%TD*%
D17*
%TO.C,C1*%
X154638000Y-52060000D03*
X154638000Y-49560000D03*
%TD*%
%TO.C,R3*%
X38758000Y-39220000D03*
D14*
X31138000Y-39220000D03*
%TD*%
D18*
%TO.C,ST2u_1*%
X130937000Y-131445000D03*
D19*
X130937000Y-146655000D03*
D18*
X154813000Y-131445000D03*
D19*
X154813000Y-146655000D03*
%TD*%
D13*
%TO.C,D18*%
X94638000Y-39220000D03*
D14*
X94638000Y-46840000D03*
%TD*%
D13*
%TO.C,D25*%
X229258000Y-39220000D03*
D14*
X229258000Y-46840000D03*
%TD*%
D13*
%TO.C,U1*%
X137750000Y-46800000D03*
D14*
X140290000Y-46800000D03*
X142830000Y-46800000D03*
X145370000Y-46800000D03*
X147910000Y-46800000D03*
X150450000Y-46800000D03*
X152990000Y-46800000D03*
X155530000Y-46800000D03*
X158070000Y-46800000D03*
X160610000Y-46800000D03*
X163150000Y-46800000D03*
X165690000Y-46800000D03*
X168230000Y-46800000D03*
X170770000Y-46800000D03*
X173310000Y-46800000D03*
X175850000Y-46800000D03*
X178390000Y-46800000D03*
X180930000Y-46800000D03*
X183470000Y-46800000D03*
X186010000Y-46800000D03*
X186010000Y-31560000D03*
X183470000Y-31560000D03*
X180930000Y-31560000D03*
X178390000Y-31560000D03*
X175850000Y-31560000D03*
X173310000Y-31560000D03*
X170770000Y-31560000D03*
X168230000Y-31560000D03*
X165690000Y-31560000D03*
X163150000Y-31560000D03*
X160610000Y-31560000D03*
X158070000Y-31560000D03*
X155530000Y-31560000D03*
X152990000Y-31560000D03*
X150450000Y-31560000D03*
X147910000Y-31560000D03*
X145370000Y-31560000D03*
X142830000Y-31560000D03*
X140290000Y-31560000D03*
X137750000Y-31560000D03*
%TD*%
D13*
%TO.C,D44*%
X64158000Y-34140000D03*
D14*
X64158000Y-41760000D03*
%TD*%
D13*
%TO.C,D4*%
X97178000Y-41760000D03*
D14*
X97178000Y-49380000D03*
%TD*%
D10*
%TO.C,SW46*%
X90170000Y-119380000D03*
D11*
X95250000Y-119380000D03*
D10*
X100330000Y-119380000D03*
D12*
X97790000Y-114300000D03*
X91440000Y-116840000D03*
%TD*%
D10*
%TO.C,SW25*%
X223520000Y-81280000D03*
D11*
X228600000Y-81280000D03*
D10*
X233680000Y-81280000D03*
D12*
X231140000Y-76200000D03*
X224790000Y-78740000D03*
%TD*%
D13*
%TO.C,D41*%
X257198000Y-36680000D03*
D14*
X257198000Y-44300000D03*
%TD*%
D13*
%TO.C,D2*%
X71778000Y-41760000D03*
D14*
X71778000Y-49380000D03*
%TD*%
D10*
%TO.C,SW52*%
X204470000Y-119380000D03*
D11*
X209550000Y-119380000D03*
D10*
X214630000Y-119380000D03*
D12*
X212090000Y-114300000D03*
X205740000Y-116840000D03*
%TD*%
D13*
%TO.C,D32*%
X92098000Y-36680000D03*
D14*
X92098000Y-44300000D03*
%TD*%
D13*
%TO.C,D68*%
X31138000Y-31600000D03*
D14*
X38758000Y-31600000D03*
%TD*%
D13*
%TO.C,D20*%
X120038000Y-39220000D03*
D14*
X120038000Y-46840000D03*
%TD*%
D20*
%TO.C,REF\u002A\u002A*%
X302918000Y-49380000D03*
%TD*%
D10*
%TO.C,SW11*%
X223520000Y-62230000D03*
D11*
X228600000Y-62230000D03*
D10*
X233680000Y-62230000D03*
D12*
X231140000Y-57150000D03*
X224790000Y-59690000D03*
%TD*%
D18*
%TO.C,ST1*%
X104775000Y-131475000D03*
D19*
X104775000Y-146685000D03*
D18*
X219075000Y-131475000D03*
D19*
X219075000Y-146685000D03*
%TD*%
D13*
%TO.C,D57*%
X48918000Y-31600000D03*
D14*
X48918000Y-39220000D03*
%TD*%
D13*
%TO.C,D45*%
X76858000Y-34140000D03*
D14*
X76858000Y-41760000D03*
%TD*%
D13*
%TO.C,D50*%
X198778000Y-34140000D03*
D14*
X198778000Y-41760000D03*
%TD*%
D13*
%TO.C,D70*%
X224178000Y-31600000D03*
D14*
X224178000Y-39220000D03*
%TD*%
D10*
%TO.C,SW35*%
X147320000Y-100330000D03*
D11*
X152400000Y-100330000D03*
D10*
X157480000Y-100330000D03*
D12*
X154940000Y-95250000D03*
X148590000Y-97790000D03*
%TD*%
D10*
%TO.C,SW60*%
X90170000Y-138430000D03*
D11*
X95250000Y-138430000D03*
D10*
X100330000Y-138430000D03*
D12*
X97790000Y-133350000D03*
X91440000Y-135890000D03*
%TD*%
D10*
%TO.C,SW12*%
X242570000Y-62230000D03*
D11*
X247650000Y-62230000D03*
D10*
X252730000Y-62230000D03*
D12*
X250190000Y-57150000D03*
X243840000Y-59690000D03*
%TD*%
D13*
%TO.C,D6*%
X122578000Y-41760000D03*
D14*
X122578000Y-49380000D03*
%TD*%
D13*
%TO.C,D27*%
X254658000Y-39220000D03*
D14*
X254658000Y-46840000D03*
%TD*%
D10*
%TO.C,SW19*%
X109220000Y-81280000D03*
D11*
X114300000Y-81280000D03*
D10*
X119380000Y-81280000D03*
D12*
X116840000Y-76200000D03*
X110490000Y-78740000D03*
%TD*%
D13*
%TO.C,D63*%
X236878000Y-31600000D03*
D14*
X236878000Y-39220000D03*
%TD*%
D17*
%TO.C,R2*%
X38758000Y-46840000D03*
D14*
X31138000Y-46840000D03*
%TD*%
D10*
%TO.C,SW27*%
X261620000Y-81280000D03*
D11*
X266700000Y-81280000D03*
D10*
X271780000Y-81280000D03*
D12*
X269240000Y-76200000D03*
X262890000Y-78740000D03*
%TD*%
D13*
%TO.C,D15*%
X56538000Y-39220000D03*
D14*
X56538000Y-46840000D03*
%TD*%
D13*
%TO.C,D26*%
X241958000Y-39220000D03*
D14*
X241958000Y-46840000D03*
%TD*%
D17*
%TO.C,C3*%
X43838000Y-34140000D03*
D13*
X43838000Y-31640000D03*
%TD*%
D15*
%TO.C,SW61*%
X147955000Y-138430000D03*
D11*
X142875000Y-138430000D03*
D15*
X137795000Y-138430000D03*
D16*
X146685000Y-140970000D03*
X140335000Y-143510000D03*
%TD*%
D13*
%TO.C,D14*%
X264818000Y-41760000D03*
D14*
X264818000Y-49380000D03*
%TD*%
D13*
%TO.C,D5*%
X109878000Y-41760000D03*
D14*
X109878000Y-49380000D03*
%TD*%
D15*
%TO.C,SW15*%
X28258000Y-81280000D03*
D11*
X33338000Y-81280000D03*
D15*
X38418000Y-81280000D03*
D16*
X29528000Y-78740000D03*
X35878000Y-76200000D03*
%TD*%
D10*
%TO.C,SW3*%
X71120000Y-62230000D03*
D11*
X76200000Y-62230000D03*
D10*
X81280000Y-62230000D03*
D12*
X78740000Y-57150000D03*
X72390000Y-59690000D03*
%TD*%
D10*
%TO.C,SW72*%
X204470000Y-138460000D03*
D11*
X209550000Y-138460000D03*
D10*
X214630000Y-138460000D03*
D12*
X212090000Y-133380000D03*
X205740000Y-135920000D03*
%TD*%
D10*
%TO.C,SW39*%
X223520000Y-100330000D03*
D11*
X228600000Y-100330000D03*
D10*
X233680000Y-100330000D03*
D12*
X231140000Y-95250000D03*
X224790000Y-97790000D03*
%TD*%
D13*
%TO.C,D33*%
X104798000Y-36680000D03*
D14*
X104798000Y-44300000D03*
%TD*%
D10*
%TO.C,SW48*%
X128270000Y-119380000D03*
D11*
X133350000Y-119380000D03*
D10*
X138430000Y-119380000D03*
D12*
X135890000Y-114300000D03*
X129540000Y-116840000D03*
%TD*%
D10*
%TO.C,SW18*%
X90170000Y-81280000D03*
D11*
X95250000Y-81280000D03*
D10*
X100330000Y-81280000D03*
D12*
X97790000Y-76200000D03*
X91440000Y-78740000D03*
%TD*%
D10*
%TO.C,SW54*%
X242570000Y-119380000D03*
D11*
X247650000Y-119380000D03*
D10*
X252730000Y-119380000D03*
D12*
X250190000Y-114300000D03*
X243840000Y-116840000D03*
%TD*%
D21*
%TO.C,REF\u002A\u002A*%
X301238000Y-56260000D03*
%TD*%
D10*
%TO.C,Space1*%
X156845000Y-138460000D03*
D11*
X161925000Y-138460000D03*
D10*
X167005000Y-138460000D03*
D12*
X164465000Y-133380000D03*
X158115000Y-135920000D03*
%TD*%
D13*
%TO.C,D55*%
X259738000Y-34140000D03*
D14*
X259738000Y-41760000D03*
%TD*%
D13*
%TO.C,D24*%
X216558000Y-39220000D03*
D14*
X216558000Y-46840000D03*
%TD*%
D10*
%TO.C,SW63*%
X223520000Y-138430000D03*
D11*
X228600000Y-138430000D03*
D10*
X233680000Y-138430000D03*
D12*
X231140000Y-133350000D03*
X224790000Y-135890000D03*
%TD*%
D10*
%TO.C,SW53*%
X223520000Y-119380000D03*
D11*
X228600000Y-119380000D03*
D10*
X233680000Y-119380000D03*
D12*
X231140000Y-114300000D03*
X224790000Y-116840000D03*
%TD*%
D22*
%TO.C,Y1*%
X159438000Y-50660000D03*
X164318000Y-50660000D03*
%TD*%
D10*
%TO.C,SW32*%
X90170000Y-100330000D03*
D11*
X95250000Y-100330000D03*
D10*
X100330000Y-100330000D03*
D12*
X97790000Y-95250000D03*
X91440000Y-97790000D03*
%TD*%
D20*
%TO.C,REF\u002A\u002A*%
X20978000Y-49380000D03*
%TD*%
D13*
%TO.C,D30*%
X66698000Y-36680000D03*
D14*
X66698000Y-44300000D03*
%TD*%
D10*
%TO.C,SW47*%
X109220000Y-119380000D03*
D11*
X114300000Y-119380000D03*
D10*
X119380000Y-119380000D03*
D12*
X116840000Y-114300000D03*
X110490000Y-116840000D03*
%TD*%
D10*
%TO.C,SW59*%
X86042500Y-138430000D03*
D11*
X80962500Y-138430000D03*
D10*
X75882500Y-138430000D03*
D12*
X78422500Y-143510000D03*
X84772500Y-140970000D03*
%TD*%
D10*
%TO.C,SW33*%
X109220000Y-100330000D03*
D11*
X114300000Y-100330000D03*
D10*
X119380000Y-100330000D03*
D12*
X116840000Y-95250000D03*
X110490000Y-97790000D03*
%TD*%
D15*
%TO.C,SW57*%
X28258000Y-138430000D03*
D11*
X33338000Y-138430000D03*
D15*
X38418000Y-138430000D03*
D16*
X29528000Y-135890000D03*
X35878000Y-133350000D03*
%TD*%
D13*
%TO.C,D43*%
X51458000Y-34140000D03*
D14*
X51458000Y-41760000D03*
%TD*%
D10*
%TO.C,SW26*%
X242570000Y-81280000D03*
D11*
X247650000Y-81280000D03*
D10*
X252730000Y-81280000D03*
D12*
X250190000Y-76200000D03*
X243840000Y-78740000D03*
%TD*%
D13*
%TO.C,D29*%
X53998000Y-36680000D03*
D14*
X53998000Y-44300000D03*
%TD*%
D17*
%TO.C,R6*%
X31138000Y-49380000D03*
D14*
X38758000Y-49380000D03*
%TD*%
D10*
%TO.C,SW55*%
X261620000Y-119380000D03*
D11*
X266700000Y-119380000D03*
D10*
X271780000Y-119380000D03*
D12*
X269240000Y-114300000D03*
X262890000Y-116840000D03*
%TD*%
D10*
%TO.C,SW49*%
X157458000Y-119370000D03*
D11*
X152378000Y-119370000D03*
D10*
X147298000Y-119370000D03*
D12*
X149838000Y-124450000D03*
X156188000Y-121910000D03*
%TD*%
D23*
%TO.C,J6*%
X20600000Y-36280000D03*
%TD*%
D10*
%TO.C,SW13*%
X261620000Y-62230000D03*
D11*
X266700000Y-62230000D03*
D10*
X271780000Y-62230000D03*
D12*
X269240000Y-57150000D03*
X262890000Y-59690000D03*
%TD*%
D10*
%TO.C,SW21*%
X147320000Y-81280000D03*
D11*
X152400000Y-81280000D03*
D10*
X157480000Y-81280000D03*
D12*
X154940000Y-76200000D03*
X148590000Y-78740000D03*
%TD*%
D13*
%TO.C,D65*%
X262278000Y-31600000D03*
D14*
X262278000Y-39220000D03*
%TD*%
D13*
%TO.C,D53*%
X234338000Y-34140000D03*
D14*
X234338000Y-41760000D03*
%TD*%
D17*
%TO.C,F1*%
X46378000Y-49380000D03*
X41378000Y-49380000D03*
%TD*%
D21*
%TO.C,REFe*%
X22538000Y-56160000D03*
%TD*%
D10*
%TO.C,SW41*%
X261620000Y-100330000D03*
D11*
X266700000Y-100330000D03*
D10*
X271780000Y-100330000D03*
D12*
X269240000Y-95250000D03*
X262890000Y-97790000D03*
%TD*%
D13*
%TO.C,D16*%
X69238000Y-39220000D03*
D14*
X69238000Y-46840000D03*
%TD*%
D24*
%TO.C,SW62*%
X169098000Y-131450000D03*
D11*
X169098000Y-146690000D03*
D10*
X175918000Y-138450000D03*
D11*
X180998000Y-138450000D03*
D10*
X186078000Y-138450000D03*
D24*
X192898000Y-131450000D03*
D11*
X192898000Y-146690000D03*
D12*
X183538000Y-133370000D03*
X177188000Y-135910000D03*
%TD*%
D25*
%TO.C,ICSP1*%
X282498000Y-34380000D03*
X285038000Y-34380000D03*
X282498000Y-36920000D03*
X285038000Y-36920000D03*
X282498000Y-39460000D03*
X285038000Y-39460000D03*
%TD*%
D10*
%TO.C,SW31*%
X71120000Y-100330000D03*
D11*
X76200000Y-100330000D03*
D10*
X81280000Y-100330000D03*
D12*
X78740000Y-95250000D03*
X72390000Y-97790000D03*
%TD*%
D10*
%TO.C,SW24*%
X204470000Y-81280000D03*
D11*
X209550000Y-81280000D03*
D10*
X214630000Y-81280000D03*
D12*
X212090000Y-76200000D03*
X205740000Y-78740000D03*
%TD*%
D13*
%TO.C,D56*%
X272438000Y-34140000D03*
D14*
X272438000Y-41760000D03*
%TD*%
D13*
%TO.C,D51*%
X208938000Y-34140000D03*
D14*
X208938000Y-41760000D03*
%TD*%
D13*
%TO.C,D38*%
X219098000Y-36680000D03*
D14*
X219098000Y-44300000D03*
%TD*%
D13*
%TO.C,D34*%
X117498000Y-36680000D03*
D14*
X117498000Y-44300000D03*
%TD*%
D13*
%TO.C,D36*%
X196238000Y-36680000D03*
D14*
X196238000Y-44300000D03*
%TD*%
D26*
%TO.C,BOOT1*%
X292758000Y-34140000D03*
X299258000Y-34140000D03*
X292758000Y-38640000D03*
X299258000Y-38640000D03*
%TD*%
D13*
%TO.C,D21*%
X130198000Y-39220000D03*
D14*
X130198000Y-46840000D03*
%TD*%
D13*
%TO.C,D17*%
X81938000Y-39220000D03*
D14*
X81938000Y-46840000D03*
%TD*%
D27*
%TO.C,J6*%
X20600000Y-43900000D03*
%TD*%
D13*
%TO.C,D47*%
X102258000Y-34140000D03*
D14*
X102258000Y-41760000D03*
%TD*%
D10*
%TO.C,SW22*%
X166370000Y-81280000D03*
D11*
X171450000Y-81280000D03*
D10*
X176530000Y-81280000D03*
D12*
X173990000Y-76200000D03*
X167640000Y-78740000D03*
%TD*%
D10*
%TO.C,SW23*%
X185420000Y-81280000D03*
D11*
X190500000Y-81280000D03*
D10*
X195580000Y-81280000D03*
D12*
X193040000Y-76200000D03*
X186690000Y-78740000D03*
%TD*%
D10*
%TO.C,SW45*%
X71120000Y-119380000D03*
D11*
X76200000Y-119380000D03*
D10*
X81280000Y-119380000D03*
D12*
X78740000Y-114300000D03*
X72390000Y-116840000D03*
%TD*%
D15*
%TO.C,SW43*%
X28258000Y-119380000D03*
D11*
X33338000Y-119380000D03*
D15*
X38418000Y-119380000D03*
D16*
X29528000Y-116840000D03*
X35878000Y-114300000D03*
%TD*%
D13*
%TO.C,D60*%
X87018000Y-31600000D03*
D14*
X87018000Y-39220000D03*
%TD*%
D15*
%TO.C,SW66*%
X285432000Y-138430000D03*
D11*
X290512000Y-138430000D03*
D15*
X295592000Y-138430000D03*
D16*
X286702000Y-135890000D03*
X293052000Y-133350000D03*
%TD*%
D15*
%TO.C,SW42*%
X285432000Y-100330000D03*
D11*
X290512000Y-100330000D03*
D15*
X295592000Y-100330000D03*
D16*
X286702000Y-97790000D03*
X293052000Y-95250000D03*
%TD*%
D10*
%TO.C,SW62*%
X190817500Y-138430000D03*
D11*
X185737500Y-138430000D03*
D10*
X180657500Y-138430000D03*
D12*
X183197500Y-143510000D03*
X189547500Y-140970000D03*
%TD*%
D10*
%TO.C,SW30*%
X52070000Y-100330000D03*
D11*
X57150000Y-100330000D03*
D10*
X62230000Y-100330000D03*
D12*
X59690000Y-95250000D03*
X53340000Y-97790000D03*
%TD*%
D10*
%TO.C,SW38*%
X204470000Y-100330000D03*
D11*
X209550000Y-100330000D03*
D10*
X214630000Y-100330000D03*
D12*
X212090000Y-95250000D03*
X205740000Y-97790000D03*
%TD*%
D13*
%TO.C,D35*%
X127658000Y-36680000D03*
D14*
X127658000Y-44300000D03*
%TD*%
D13*
%TO.C,D52*%
X221638000Y-34140000D03*
D14*
X221638000Y-41760000D03*
%TD*%
D20*
%TO.C,REF\u002A\u002A*%
X20978000Y-31600000D03*
%TD*%
D10*
%TO.C,SW64*%
X237807500Y-138430000D03*
D11*
X242887500Y-138430000D03*
D10*
X247967500Y-138430000D03*
D12*
X245427500Y-133350000D03*
X239077500Y-135890000D03*
%TD*%
D17*
%TO.C,C2*%
X169188000Y-49560000D03*
X169188000Y-52060000D03*
%TD*%
%TO.C,C4*%
X133540000Y-30300000D03*
X133540000Y-32800000D03*
%TD*%
D10*
%TO.C,SW9*%
X185420000Y-62230000D03*
D11*
X190500000Y-62230000D03*
D10*
X195580000Y-62230000D03*
D12*
X193040000Y-57150000D03*
X186690000Y-59690000D03*
%TD*%
D13*
%TO.C,D13*%
X252118000Y-41760000D03*
D14*
X252118000Y-49380000D03*
%TD*%
D15*
%TO.C,SW29*%
X28258000Y-100330000D03*
D11*
X33338000Y-100330000D03*
D15*
X38418000Y-100330000D03*
D16*
X29528000Y-97790000D03*
X35878000Y-95250000D03*
%TD*%
D15*
%TO.C,SW68*%
X176530000Y-86030000D03*
D11*
X171450000Y-86030000D03*
D15*
X166370000Y-86030000D03*
D16*
X175260000Y-88570000D03*
X168910000Y-91110000D03*
%TD*%
D13*
%TO.C,D54*%
X247038000Y-34140000D03*
D14*
X247038000Y-41760000D03*
%TD*%
D13*
%TO.C,D39*%
X231798000Y-36680000D03*
D14*
X231798000Y-44300000D03*
%TD*%
D15*
%TO.C,SW69*%
X147270000Y-114530000D03*
D11*
X152350000Y-114530000D03*
D15*
X157430000Y-114530000D03*
D16*
X148540000Y-111990000D03*
X154890000Y-109450000D03*
%TD*%
D13*
%TO.C,D19*%
X107338000Y-39220000D03*
D14*
X107338000Y-46840000D03*
%TD*%
D13*
%TO.C,D59*%
X74318000Y-31600000D03*
D14*
X74318000Y-39220000D03*
%TD*%
D10*
%TO.C,SW37*%
X185420000Y-100330000D03*
D11*
X190500000Y-100330000D03*
D10*
X195580000Y-100330000D03*
D12*
X193040000Y-95250000D03*
X186690000Y-97790000D03*
%TD*%
D21*
%TO.C,REF\u002A\u002A*%
X161938000Y-90860000D03*
%TD*%
D13*
%TO.C,D69*%
X99718000Y-31600000D03*
D14*
X99718000Y-39220000D03*
%TD*%
D10*
%TO.C,SW20*%
X128270000Y-81280000D03*
D11*
X133350000Y-81280000D03*
D10*
X138430000Y-81280000D03*
D12*
X135890000Y-76200000D03*
X129540000Y-78740000D03*
%TD*%
D13*
%TO.C,D67*%
X31138000Y-34140000D03*
D14*
X38758000Y-34140000D03*
%TD*%
D21*
%TO.C,REF\u002A\u002A*%
X21938000Y-146560000D03*
%TD*%
D13*
%TO.C,D7*%
X132738000Y-41760000D03*
D14*
X132738000Y-49380000D03*
%TD*%
D17*
%TO.C,R4*%
X38758000Y-36680000D03*
D14*
X31138000Y-36680000D03*
%TD*%
D10*
%TO.C,SW65*%
X261620000Y-138430000D03*
D11*
X266700000Y-138430000D03*
D10*
X271780000Y-138430000D03*
D12*
X269240000Y-133350000D03*
X262890000Y-135890000D03*
%TD*%
D15*
%TO.C,SW67*%
X157430000Y-86030000D03*
D11*
X152350000Y-86030000D03*
D15*
X147270000Y-86030000D03*
D16*
X156160000Y-88570000D03*
X149810000Y-91110000D03*
%TD*%
D13*
%TO.C,D23*%
X203858000Y-39220000D03*
D14*
X203858000Y-46840000D03*
%TD*%
D10*
%TO.C,SW58*%
X52070000Y-138430000D03*
D11*
X57150000Y-138430000D03*
D10*
X62230000Y-138430000D03*
D12*
X59690000Y-133350000D03*
X53340000Y-135890000D03*
%TD*%
D10*
%TO.C,SW10*%
X204470000Y-62230000D03*
D11*
X209550000Y-62230000D03*
D10*
X214630000Y-62230000D03*
D12*
X212090000Y-57150000D03*
X205740000Y-59690000D03*
%TD*%
D13*
%TO.C,D9*%
X201318000Y-41760000D03*
D14*
X201318000Y-49380000D03*
%TD*%
D13*
%TO.C,D71*%
X283527500Y-42862500D03*
D14*
X283527500Y-50482500D03*
%TD*%
D13*
%TO.C,D12*%
X239418000Y-41760000D03*
D14*
X239418000Y-49380000D03*
%TD*%
D13*
%TO.C,D28*%
X267358000Y-39220000D03*
D14*
X267358000Y-46840000D03*
%TD*%
D10*
%TO.C,SW34*%
X128270000Y-100330000D03*
D11*
X133350000Y-100330000D03*
D10*
X138430000Y-100330000D03*
D12*
X135890000Y-95250000D03*
X129540000Y-97790000D03*
%TD*%
D13*
%TO.C,D40*%
X244498000Y-36680000D03*
D14*
X244498000Y-44300000D03*
%TD*%
D10*
%TO.C,SW59*%
X71120000Y-138430000D03*
D11*
X76200000Y-138430000D03*
D10*
X81280000Y-138430000D03*
D12*
X78740000Y-133350000D03*
X72390000Y-135890000D03*
%TD*%
D13*
%TO.C,D31*%
X79398000Y-36680000D03*
D14*
X79398000Y-44300000D03*
%TD*%
D20*
%TO.C,REF\u002A\u002A*%
X302918000Y-31600000D03*
%TD*%
D15*
%TO.C,SW56*%
X285432000Y-119380000D03*
D11*
X290512000Y-119380000D03*
D15*
X295592000Y-119380000D03*
D16*
X286702000Y-116840000D03*
X293052000Y-114300000D03*
%TD*%
D21*
%TO.C,REF\u002A\u002A*%
X301938000Y-146560000D03*
%TD*%
D15*
%TO.C,SW70*%
X166370000Y-114630000D03*
D11*
X171450000Y-114630000D03*
D15*
X176530000Y-114630000D03*
D16*
X167640000Y-112090000D03*
X173990000Y-109550000D03*
%TD*%
D13*
%TO.C,D58*%
X61618000Y-31600000D03*
D14*
X61618000Y-39220000D03*
%TD*%
D10*
%TO.C,SW4*%
X90170000Y-62230000D03*
D11*
X95250000Y-62230000D03*
D10*
X100330000Y-62230000D03*
D12*
X97790000Y-57150000D03*
X91440000Y-59690000D03*
%TD*%
D13*
%TO.C,D64*%
X249578000Y-31600000D03*
D14*
X249578000Y-39220000D03*
%TD*%
D26*
%TO.C,RESET1*%
X292758000Y-42690000D03*
X299258000Y-42690000D03*
X292758000Y-47190000D03*
X299258000Y-47190000D03*
%TD*%
D23*
%TO.C,J6*%
X20600000Y-38820000D03*
%TD*%
D28*
%TO.C,J1*%
X27018000Y-34090000D03*
D29*
X27018000Y-34990000D03*
X27018000Y-35890000D03*
X27018000Y-36790000D03*
X27018000Y-37690000D03*
X27018000Y-38590000D03*
X27018000Y-39490000D03*
X26238000Y-39040000D03*
X26238000Y-38140000D03*
X26238000Y-37240000D03*
X26238000Y-36340000D03*
X26238000Y-35440000D03*
X26238000Y-34540000D03*
X26238000Y-33640000D03*
D30*
X28058000Y-34140000D03*
X25198000Y-34140000D03*
X28058000Y-38940000D03*
X25198000Y-38940000D03*
%TD*%
D13*
%TO.C,D66*%
X274978000Y-31600000D03*
D14*
X274978000Y-39220000D03*
%TD*%
D13*
%TO.C,D62*%
X211478000Y-31600000D03*
D14*
X211478000Y-39220000D03*
%TD*%
D13*
%TO.C,D42*%
X269898000Y-36680000D03*
D14*
X269898000Y-44300000D03*
%TD*%
D13*
%TO.C,D8*%
X191158000Y-41760000D03*
D14*
X191158000Y-49380000D03*
%TD*%
D10*
%TO.C,SW6*%
X128270000Y-62230000D03*
D11*
X133350000Y-62230000D03*
D10*
X138430000Y-62230000D03*
D12*
X135890000Y-57150000D03*
X129540000Y-59690000D03*
%TD*%
D10*
%TO.C,SW40*%
X242570000Y-100330000D03*
D11*
X247650000Y-100330000D03*
D10*
X252730000Y-100330000D03*
D12*
X250190000Y-95250000D03*
X243840000Y-97790000D03*
%TD*%
D13*
%TO.C,D48*%
X114958000Y-34140000D03*
D14*
X114958000Y-41760000D03*
%TD*%
D13*
%TO.C,D49*%
X125118000Y-34140000D03*
D14*
X125118000Y-41760000D03*
%TD*%
D10*
%TO.C,SW44*%
X52070000Y-119380000D03*
D11*
X57150000Y-119380000D03*
D10*
X62230000Y-119380000D03*
D12*
X59690000Y-114300000D03*
X53340000Y-116840000D03*
%TD*%
D10*
%TO.C,SW7*%
X147320000Y-62230000D03*
D11*
X152400000Y-62230000D03*
D10*
X157480000Y-62230000D03*
D12*
X154940000Y-57150000D03*
X148590000Y-59690000D03*
%TD*%
D13*
%TO.C,D37*%
X206398000Y-36680000D03*
D14*
X206398000Y-44300000D03*
%TD*%
D13*
%TO.C,D10*%
X214018000Y-41760000D03*
D14*
X214018000Y-49380000D03*
%TD*%
D10*
%TO.C,SW5*%
X109220000Y-62230000D03*
D11*
X114300000Y-62230000D03*
D10*
X119380000Y-62230000D03*
D12*
X116840000Y-57150000D03*
X110490000Y-59690000D03*
%TD*%
D10*
%TO.C,SW17*%
X71120000Y-81280000D03*
D11*
X76200000Y-81280000D03*
D10*
X81280000Y-81280000D03*
D12*
X78740000Y-76200000D03*
X72390000Y-78740000D03*
%TD*%
D13*
%TO.C,D1*%
X59078000Y-41760000D03*
D14*
X59078000Y-49380000D03*
%TD*%
D10*
%TO.C,SW50*%
X176548000Y-119370000D03*
D11*
X171468000Y-119370000D03*
D10*
X166388000Y-119370000D03*
D12*
X168928000Y-124450000D03*
X175278000Y-121910000D03*
%TD*%
D15*
%TO.C,SW1*%
X28300000Y-62190000D03*
D11*
X33380000Y-62190000D03*
D15*
X38460000Y-62190000D03*
D16*
X29570000Y-59650000D03*
X35920000Y-57110000D03*
%TD*%
D23*
%TO.C,J6*%
X20600000Y-41360000D03*
%TD*%
D15*
%TO.C,SW61*%
X132715500Y-138430000D03*
D11*
X137795500Y-138430000D03*
D15*
X142875500Y-138430000D03*
D16*
X140335500Y-133350000D03*
X133985500Y-135890000D03*
%TD*%
M02*
