M48
; DRILL file {KiCad 7.0.6} date Fri Feb  2 12:37:56 2024
; FORMAT={-:-/ absolute / inch / decimal}
; #@! TF.CreationDate,2024-02-02T12:37:56-05:00
; #@! TF.GenerationSoftware,Kicad,Pcbnew,7.0.6
; #@! TF.FileFunction,Plated,1,2,PTH
FMAT,2
INCH
; #@! TA.AperFunction,Plated,PTH,ViaDrill
T1C0.0157
; #@! TA.AperFunction,Plated,PTH,ComponentDrill
T2C0.0157
; #@! TA.AperFunction,Plated,PTH,ComponentDrill
T3C0.0236
; #@! TA.AperFunction,Plated,PTH,ComponentDrill
T4C0.0300
; #@! TA.AperFunction,Plated,PTH,ComponentDrill
T5C0.0315
; #@! TA.AperFunction,Plated,PTH,ComponentDrill
T6C0.0430
; #@! TA.AperFunction,Plated,PTH,ComponentDrill
T7C0.0433
; #@! TA.AperFunction,Plated,PTH,ComponentDrill
T8C0.0591
%
G90
G05
T1
X0.85Y-2.75
X0.9449Y-1.3976
X1.0472Y-1.2047
X1.0499Y-1.672
X1.0507Y-1.7445
X1.0669Y-1.9055
X1.1251Y-1.6373
X1.1404Y-1.3845
X1.1614Y-1.7421
X1.1689Y-1.4882
X1.3205Y-1.439
X1.348Y-1.8268
X1.4259Y-1.6441
X1.7165Y-1.5945
X1.722Y-1.7874
X1.85Y-2.75
X2.55Y-2.75
X3.35Y-2.75
X4.05Y-2.75
X4.85Y-2.75
X5.1295Y-1.2126
X5.3125Y-1.6441
X5.3165Y-1.7835
X5.3756Y-1.3307
X5.5526Y-1.6447
X5.5947Y-1.6447
X5.639Y-1.6447
X5.65Y-2.75
X5.726Y-1.705
X6.1366Y-1.7529
X6.1822Y-1.7839
X6.1899Y-1.9285
X6.1994Y-1.685
X6.2279Y-1.5565
X6.235Y-1.3307
X6.2811Y-1.7353
X6.3205Y-1.3799
X6.35Y-2.75
X6.3756Y-2.1575
X6.5862Y-1.5374
X6.5961Y-1.311
X6.6447Y-1.3898
X6.6447Y-1.4689
X6.6743Y-1.4985
X6.7929Y-1.4587
X6.9996Y-1.6654
X7.0023Y-1.4229
X7.0438Y-1.409
X7.0839Y-1.394
X7.107Y-1.4766
X7.1079Y-1.685
X7.1231Y-1.3798
X7.1394Y-1.4442
X7.1469Y-1.9606
X7.15Y-2.75
X7.1711Y-2.1373
X7.173Y-1.4105
X7.1862Y-1.9628
X7.1989Y-2.1095
X7.2028Y-1.3808
X7.2255Y-1.9604
X7.2267Y-2.0817
X7.2648Y-1.9604
X7.2648Y-2.0718
X7.3042Y-1.9604
X7.3042Y-2.0718
X7.3435Y-1.7313
X7.3435Y-1.9604
X7.3435Y-2.0718
X7.5606Y-2.0945
X7.5999Y-2.094
X7.6398Y-2.0945
X7.6791Y-2.0945
X7.7185Y-2.0945
X7.7579Y-2.0945
X7.8756Y-5.4547
X7.8756Y-5.8287
X7.95Y-2.75
X8.65Y-2.75
X9.45Y-2.75
X10.1197Y-5.4449
X10.1295Y-5.8189
X10.15Y-2.75
X10.95Y-2.75
X10.976Y-5.4449
X10.976Y-5.8189
X11.85Y-2.75
T2
X1.033Y-1.3244
X1.033Y-1.3598
X1.033Y-1.3953
X1.033Y-1.4307
X1.033Y-1.4661
X1.033Y-1.5016
X1.033Y-1.537
X1.0637Y-1.3421
X1.0637Y-1.3776
X1.0637Y-1.413
X1.0637Y-1.4484
X1.0637Y-1.4839
X1.0637Y-1.5193
X1.0637Y-1.5547
T4
X11.122Y-1.3535
X11.122Y-1.4535
X11.122Y-1.5535
X11.222Y-1.3535
X11.222Y-1.4535
X11.222Y-1.5535
T5
X1.2259Y-1.2441
X1.2259Y-1.3441
X1.2259Y-1.4441
X1.2259Y-1.5441
X1.2259Y-1.6441
X1.2259Y-1.7441
X1.2259Y-1.8441
X1.2259Y-1.9441
X1.5259Y-1.2441
X1.5259Y-1.3441
X1.5259Y-1.4441
X1.5259Y-1.5441
X1.5259Y-1.6441
X1.5259Y-1.7441
X1.5259Y-1.8441
X1.5259Y-1.9441
X1.6291Y-1.9441
X1.7259Y-1.2457
X1.7259Y-1.3441
X1.8259Y-1.9441
X1.9259Y-1.2441
X1.9259Y-1.5441
X2.0259Y-1.3441
X2.0259Y-1.6441
X2.1259Y-1.4441
X2.1259Y-1.7441
X2.2259Y-1.5441
X2.2259Y-1.8441
X2.3259Y-1.6441
X2.3259Y-1.9441
X2.4259Y-1.2441
X2.4259Y-1.5441
X2.5259Y-1.3441
X2.5259Y-1.6441
X2.6259Y-1.4441
X2.6259Y-1.7441
X2.7259Y-1.5441
X2.7259Y-1.8441
X2.8259Y-1.6441
X2.8259Y-1.9441
X2.9259Y-1.2441
X2.9259Y-1.5441
X3.0259Y-1.3441
X3.0259Y-1.6441
X3.1259Y-1.4441
X3.1259Y-1.7441
X3.2259Y-1.5441
X3.2259Y-1.8441
X3.3259Y-1.6441
X3.3259Y-1.9441
X3.4259Y-1.2441
X3.4259Y-1.5441
X3.5259Y-1.3441
X3.5259Y-1.6441
X3.6259Y-1.4441
X3.6259Y-1.7441
X3.7259Y-1.5441
X3.7259Y-1.8441
X3.8259Y-1.6441
X3.8259Y-1.9441
X3.9259Y-1.2441
X3.9259Y-1.5441
X4.0259Y-1.3441
X4.0259Y-1.6441
X4.1259Y-1.4441
X4.1259Y-1.7441
X4.2259Y-1.5441
X4.2259Y-1.8441
X4.3259Y-1.6441
X4.3259Y-1.9441
X4.4259Y-1.2441
X4.4259Y-1.5441
X4.5259Y-1.3441
X4.5259Y-1.6441
X4.6259Y-1.4441
X4.6259Y-1.7441
X4.7259Y-1.5441
X4.7259Y-1.8441
X4.8259Y-1.6441
X4.8259Y-1.9441
X4.9259Y-1.3441
X4.9259Y-1.6441
X5.0259Y-1.4441
X5.0259Y-1.7441
X5.1259Y-1.5441
X5.1259Y-1.8441
X5.2259Y-1.6441
X5.2259Y-1.9441
X5.2575Y-1.1929
X5.2575Y-1.2913
X5.4232Y-1.2425
X5.4232Y-1.8425
X5.5232Y-1.2425
X5.5232Y-1.8425
X5.6232Y-1.2425
X5.6232Y-1.8425
X5.7232Y-1.2425
X5.7232Y-1.8425
X5.8232Y-1.2425
X5.8232Y-1.8425
X5.9232Y-1.2425
X5.9232Y-1.8425
X6.0232Y-1.2425
X6.0232Y-1.8425
X6.0881Y-1.9512
X6.0881Y-2.0496
X6.1232Y-1.2425
X6.1232Y-1.8425
X6.2232Y-1.2425
X6.2232Y-1.8425
X6.2771Y-1.9945
X6.3232Y-1.2425
X6.3232Y-1.8425
X6.4232Y-1.2425
X6.4232Y-1.8425
X6.4692Y-1.9945
X6.5232Y-1.2425
X6.5232Y-1.8425
X6.6232Y-1.2425
X6.6232Y-1.8425
X6.6609Y-1.9512
X6.6609Y-2.0496
X6.7232Y-1.2425
X6.7232Y-1.8425
X6.8232Y-1.2425
X6.8232Y-1.8425
X6.9232Y-1.2425
X6.9232Y-1.8425
X7.0232Y-1.2425
X7.0232Y-1.8425
X7.1232Y-1.2425
X7.1232Y-1.8425
X7.2232Y-1.2425
X7.2232Y-1.8425
X7.3232Y-1.2425
X7.3232Y-1.8425
X7.5259Y-1.6441
X7.5259Y-1.9441
X7.6259Y-1.5441
X7.6259Y-1.8441
X7.7259Y-1.4441
X7.7259Y-1.7441
X7.8259Y-1.3441
X7.8259Y-1.6441
X7.9259Y-1.6441
X7.9259Y-1.9441
X8.0259Y-1.5441
X8.0259Y-1.8441
X8.1259Y-1.4441
X8.1259Y-1.7441
X8.2259Y-1.3441
X8.2259Y-1.6441
X8.3259Y-1.2441
X8.3259Y-1.5441
X8.4259Y-1.6441
X8.4259Y-1.9441
X8.5259Y-1.5441
X8.5259Y-1.8441
X8.6259Y-1.4441
X8.6259Y-1.7441
X8.7259Y-1.3441
X8.7259Y-1.6441
X8.8259Y-1.2441
X8.8259Y-1.5441
X8.9259Y-1.6441
X8.9259Y-1.9441
X9.0259Y-1.5441
X9.0259Y-1.8441
X9.1259Y-1.4441
X9.1259Y-1.7441
X9.2259Y-1.3441
X9.2259Y-1.6441
X9.3259Y-1.2441
X9.3259Y-1.5441
X9.4259Y-1.6441
X9.4259Y-1.9441
X9.5259Y-1.5441
X9.5259Y-1.8441
X9.6259Y-1.4441
X9.6259Y-1.7441
X9.7259Y-1.3441
X9.7259Y-1.6441
X9.8259Y-1.2441
X9.8259Y-1.5441
X9.9259Y-1.6441
X9.9259Y-1.9441
X10.0259Y-1.5441
X10.0259Y-1.8441
X10.1259Y-1.4441
X10.1259Y-1.7441
X10.2259Y-1.3441
X10.2259Y-1.6441
X10.3259Y-1.2441
X10.3259Y-1.5441
X10.4259Y-1.6441
X10.4259Y-1.9441
X10.5259Y-1.5441
X10.5259Y-1.8441
X10.6259Y-1.4441
X10.6259Y-1.7441
X10.7259Y-1.3441
X10.7259Y-1.6441
X10.8259Y-1.2441
X10.8259Y-1.5441
X11.1625Y-1.6875
X11.1625Y-1.9875
T6
X0.811Y-1.4283
X0.811Y-1.5283
X0.811Y-1.6283
X0.811Y-1.7283
T7
X11.5259Y-1.3441
X11.5259Y-1.5213
X11.5259Y-1.6807
X11.5259Y-1.8579
X11.7818Y-1.3441
X11.7818Y-1.5213
X11.7818Y-1.6807
X11.7818Y-1.8579
T8
X1.1625Y-3.1
X1.1625Y-3.85
X1.1625Y-4.6
X1.1625Y-5.35
X1.1642Y-2.3484
X1.4125Y-3.0
X1.4125Y-3.75
X1.4125Y-4.5
X1.4125Y-5.25
X1.4142Y-2.2484
X2.1Y-2.35
X2.1Y-3.1
X2.1Y-3.85
X2.1Y-4.6
X2.1Y-5.35
X2.35Y-2.25
X2.35Y-3.0
X2.35Y-3.75
X2.35Y-4.5
X2.35Y-5.25
X2.85Y-2.35
X2.85Y-3.1
X2.85Y-3.85
X2.85Y-4.6
X2.85Y-5.35
X3.0875Y-5.65
X3.1Y-2.25
X3.1Y-3.0
X3.1Y-3.75
X3.1Y-4.5
X3.1Y-5.25
X3.3375Y-5.55
X3.6Y-2.35
X3.6Y-3.1
X3.6Y-3.85
X3.6Y-4.6
X3.6Y-5.35
X3.85Y-2.25
X3.85Y-3.0
X3.85Y-3.75
X3.85Y-4.5
X3.85Y-5.25
X4.35Y-2.35
X4.35Y-3.1
X4.35Y-3.85
X4.35Y-4.6
X4.3511Y-5.3504
X4.6Y-2.25
X4.6Y-3.0
X4.6Y-3.75
X4.6Y-4.5
X4.6011Y-5.2504
X5.1Y-2.35
X5.1Y-3.1
X5.1Y-3.85
X5.1Y-4.6
X5.275Y-5.35
X5.35Y-2.25
X5.35Y-3.0
X5.35Y-3.75
X5.35Y-4.5
X5.525Y-5.65
X5.525Y-5.25
X5.775Y-5.55
X5.848Y-4.4091
X5.85Y-2.35
X5.85Y-3.1
X5.85Y-3.85
X5.898Y-3.587
X5.8991Y-4.8996
X6.098Y-4.3091
X6.1Y-2.25
X6.1Y-3.0
X6.1Y-3.75
X6.148Y-3.487
X6.1491Y-4.7996
X6.225Y-5.3512
X6.475Y-5.2512
X6.6Y-2.35
X6.6Y-3.1
X6.6Y-3.85
X6.6Y-4.413
X6.65Y-3.587
X6.6507Y-4.8996
X6.85Y-2.25
X6.85Y-3.0
X6.85Y-3.75
X6.85Y-4.313
X6.9Y-3.487
X6.9007Y-4.7996
X6.9759Y-5.3508
X7.2125Y-5.65
X7.2259Y-5.2508
X7.35Y-2.35
X7.35Y-3.1
X7.35Y-3.85
X7.35Y-4.6
X7.4625Y-5.55
X7.6Y-2.25
X7.6Y-3.0
X7.6Y-3.75
X7.6Y-4.5
X8.1Y-2.35
X8.1Y-3.1
X8.1Y-3.85
X8.1Y-4.6
X8.1Y-5.3512
X8.35Y-2.25
X8.35Y-3.0
X8.35Y-3.75
X8.35Y-4.5
X8.35Y-5.2512
X8.85Y-2.35
X8.85Y-3.1
X8.85Y-3.85
X8.85Y-4.6
X8.85Y-5.35
X9.1Y-2.25
X9.1Y-3.0
X9.1Y-3.75
X9.1Y-4.5
X9.1Y-5.25
X9.4125Y-5.35
X9.6Y-2.35
X9.6Y-3.1
X9.6Y-3.85
X9.6Y-4.6
X9.65Y-5.65
X9.6625Y-5.25
X9.85Y-2.25
X9.85Y-3.0
X9.85Y-3.75
X9.85Y-4.5
X9.9Y-5.55
X10.35Y-2.35
X10.35Y-3.1
X10.35Y-3.85
X10.35Y-4.6
X10.35Y-5.35
X10.6Y-2.25
X10.6Y-3.0
X10.6Y-3.75
X10.6Y-4.5
X10.6Y-5.25
X11.2875Y-2.35
X11.2875Y-3.1
X11.2875Y-3.85
X11.2875Y-4.6
X11.2875Y-5.35
X11.5375Y-2.25
X11.5375Y-3.0
X11.5375Y-3.75
X11.5375Y-4.5
X11.5375Y-5.25
T3
G00X0.992Y-1.3638
M15
G01X0.992Y-1.3244
M16
G05
G00X0.992Y-1.5528
M15
G01X0.992Y-1.5134
M16
G05
G00X1.1046Y-1.3638
M15
G01X1.1046Y-1.3244
M16
G05
G00X1.1046Y-1.5528
M15
G01X1.1046Y-1.5134
M16
G05
T0
M30
