M48
; DRILL file {KiCad 7.0.6} date Fri Feb  2 12:37:56 2024
; FORMAT={-:-/ absolute / inch / decimal}
; #@! TF.CreationDate,2024-02-02T12:37:56-05:00
; #@! TF.GenerationSoftware,Kicad,Pcbnew,7.0.6
; #@! TF.FileFunction,NonPlated,1,2,NPTH
FMAT,2
INCH
; #@! TA.AperFunction,NonPlated,NPTH,ComponentDrill
T1C0.0669
; #@! TA.AperFunction,NonPlated,NPTH,ComponentDrill
T2C0.0689
; #@! TA.AperFunction,NonPlated,NPTH,ComponentDrill
T3C0.1063
; #@! TA.AperFunction,NonPlated,NPTH,ComponentDrill
T4C0.1200
; #@! TA.AperFunction,NonPlated,NPTH,ComponentDrill
T5C0.1201
; #@! TA.AperFunction,NonPlated,NPTH,ComponentDrill
T6C0.1260
; #@! TA.AperFunction,NonPlated,NPTH,ComponentDrill
T7C0.1570
; #@! TA.AperFunction,NonPlated,NPTH,ComponentDrill
T8C0.1575
%
G90
G05
T1
X2.05Y-2.45
X2.05Y-3.2
X2.05Y-3.95
X2.05Y-4.7
X2.05Y-5.45
X2.45Y-2.45
X2.45Y-3.2
X2.45Y-3.95
X2.45Y-4.7
X2.45Y-5.45
X2.8Y-2.45
X2.8Y-3.2
X2.8Y-3.95
X2.8Y-4.7
X2.8Y-5.45
X2.9875Y-5.45
X3.2Y-2.45
X3.2Y-3.2
X3.2Y-3.95
X3.2Y-4.7
X3.2Y-5.45
X3.3875Y-5.45
X3.55Y-2.45
X3.55Y-3.2
X3.55Y-3.95
X3.55Y-4.7
X3.55Y-5.45
X3.95Y-2.45
X3.95Y-3.2
X3.95Y-3.95
X3.95Y-4.7
X3.95Y-5.45
X4.3Y-2.45
X4.3Y-3.2
X4.3Y-3.95
X4.3Y-4.7
X4.3011Y-5.4504
X4.7Y-2.45
X4.7Y-3.2
X4.7Y-3.95
X4.7Y-4.7
X4.7011Y-5.4504
X5.05Y-2.45
X5.05Y-3.2
X5.05Y-3.95
X5.05Y-4.7
X5.45Y-2.45
X5.45Y-3.2
X5.45Y-3.95
X5.45Y-4.7
X5.7991Y-4.6996
X5.8Y-2.45
X5.8Y-3.2
X5.8Y-3.95
X6.175Y-5.4512
X6.1991Y-4.6996
X6.2Y-2.45
X6.2Y-3.2
X6.2Y-3.95
X6.55Y-2.45
X6.55Y-3.2
X6.55Y-3.95
X6.5507Y-4.6996
X6.575Y-5.4512
X6.9259Y-5.4508
X6.95Y-2.45
X6.95Y-3.2
X6.95Y-3.95
X6.9507Y-4.6996
X7.1125Y-5.45
X7.3Y-2.45
X7.3Y-3.2
X7.3Y-3.95
X7.3Y-4.7
X7.3259Y-5.4508
X7.5125Y-5.45
X7.7Y-2.45
X7.7Y-3.2
X7.7Y-3.95
X7.7Y-4.7
X8.05Y-2.45
X8.05Y-3.2
X8.05Y-3.95
X8.05Y-4.7
X8.05Y-5.4512
X8.45Y-2.45
X8.45Y-3.2
X8.45Y-3.95
X8.45Y-4.7
X8.45Y-5.4512
X8.8Y-2.45
X8.8Y-3.2
X8.8Y-3.95
X8.8Y-4.7
X8.8Y-5.45
X9.2Y-2.45
X9.2Y-3.2
X9.2Y-3.95
X9.2Y-4.7
X9.2Y-5.45
X9.3625Y-5.45
X9.55Y-2.45
X9.55Y-3.2
X9.55Y-3.95
X9.55Y-4.7
X9.55Y-5.45
X9.7625Y-5.45
X9.95Y-2.45
X9.95Y-3.2
X9.95Y-3.95
X9.95Y-4.7
X9.95Y-5.45
X10.3Y-2.45
X10.3Y-3.2
X10.3Y-3.95
X10.3Y-4.7
X10.3Y-5.45
X10.7Y-2.45
X10.7Y-3.2
X10.7Y-3.95
X10.7Y-4.7
X10.7Y-5.45
T2
X1.1125Y-3.2
X1.1125Y-3.95
X1.1125Y-4.7
X1.1125Y-5.45
X1.1142Y-2.4484
X1.5125Y-3.2
X1.5125Y-3.95
X1.5125Y-4.7
X1.5125Y-5.45
X1.5142Y-2.4484
X5.225Y-5.45
X5.425Y-5.45
X5.625Y-5.45
X5.798Y-3.387
X5.798Y-4.5091
X5.825Y-5.45
X6.198Y-3.387
X6.198Y-4.5091
X6.55Y-3.387
X6.55Y-4.513
X6.95Y-3.387
X6.95Y-4.513
X11.2375Y-2.45
X11.2375Y-3.2
X11.2375Y-3.95
X11.2375Y-4.7
X11.2375Y-5.45
X11.6375Y-2.45
X11.6375Y-3.2
X11.6375Y-3.95
X11.6375Y-4.7
X11.6375Y-5.45
T3
X0.8259Y-1.2441
X0.8259Y-1.9441
X11.9259Y-1.2441
X11.9259Y-1.9441
T4
X4.125Y-5.1762
X5.155Y-5.175
X6.095Y-5.175
X8.625Y-5.1762
T5
X6.6574Y-5.1752
X7.5944Y-5.1752
T6
X0.8637Y-5.7701
X0.8873Y-2.211
X6.3755Y-3.5772
X11.8598Y-2.215
X11.8873Y-5.7701
T7
X4.125Y-5.775
X5.155Y-5.7738
X6.095Y-5.7738
X8.625Y-5.775
T8
X1.3125Y-3.2
X1.3125Y-3.95
X1.3125Y-4.7
X1.3125Y-5.45
X1.3142Y-2.4484
X2.25Y-2.45
X2.25Y-3.2
X2.25Y-3.95
X2.25Y-4.7
X2.25Y-5.45
X3.0Y-2.45
X3.0Y-3.2
X3.0Y-3.95
X3.0Y-4.7
X3.0Y-5.45
X3.1875Y-5.45
X3.75Y-2.45
X3.75Y-3.2
X3.75Y-3.95
X3.75Y-4.7
X3.75Y-5.45
X4.5Y-2.45
X4.5Y-3.2
X4.5Y-3.95
X4.5Y-4.7
X4.5011Y-5.4504
X5.25Y-2.45
X5.25Y-3.2
X5.25Y-3.95
X5.25Y-4.7
X5.425Y-5.45
X5.625Y-5.45
X5.998Y-3.387
X5.998Y-4.5091
X5.9991Y-4.6996
X6.0Y-2.45
X6.0Y-3.2
X6.0Y-3.95
X6.375Y-5.4512
X6.6574Y-5.7752
X6.75Y-2.45
X6.75Y-3.2
X6.75Y-3.387
X6.75Y-3.95
X6.75Y-4.513
X6.7507Y-4.6996
X7.1259Y-5.4508
X7.3125Y-5.45
X7.5Y-2.45
X7.5Y-3.2
X7.5Y-3.95
X7.5Y-4.7
X7.5944Y-5.7752
X8.25Y-2.45
X8.25Y-3.2
X8.25Y-3.95
X8.25Y-4.7
X8.25Y-5.4512
X9.0Y-2.45
X9.0Y-3.2
X9.0Y-3.95
X9.0Y-4.7
X9.0Y-5.45
X9.5625Y-5.45
X9.75Y-2.45
X9.75Y-3.2
X9.75Y-3.95
X9.75Y-4.7
X9.75Y-5.45
X10.5Y-2.45
X10.5Y-3.2
X10.5Y-3.95
X10.5Y-4.7
X10.5Y-5.45
X11.4375Y-2.45
X11.4375Y-3.2
X11.4375Y-3.95
X11.4375Y-4.7
X11.4375Y-5.45
T0
M30
